<?xml version="1.0" encoding="us-ascii" standalone="no"?><svg xmlns="http://www.w3.org/2000/svg" xmlns:xlink="http://www.w3.org/1999/xlink" contentStyleType="text/css" height="710px" preserveAspectRatio="none" style="width:1174px;height:710px;background:#FFFFFF;" version="1.1" viewBox="0 0 1174 710" width="1174px" zoomAndPan="magnify"><defs/><g><rect fill="none" height="255.1382" style="stroke:#000000;stroke-width:1.5;" width="1157" x="10" y="53.29"/><rect fill="none" height="59.2529" style="stroke:#000000;stroke-width:1.5;" width="238" x="10" y="347.4282"/><rect fill="none" height="213.0117" style="stroke:#000000;stroke-width:1.5;" width="1158" x="10" y="445.6812"/><line style="stroke:#181818;stroke-width:0.5;stroke-dasharray:5.0,5.0;" x1="47" x2="47" y1="36.29" y2="675.6929"/><line style="stroke:#181818;stroke-width:0.5;stroke-dasharray:5.0,5.0;" x1="336.5" x2="336.5" y1="36.29" y2="675.6929"/><line style="stroke:#181818;stroke-width:0.5;stroke-dasharray:5.0,5.0;" x1="625" x2="625" y1="36.29" y2="675.6929"/><line style="stroke:#181818;stroke-width:0.5;stroke-dasharray:5.0,5.0;" x1="949" x2="949" y1="36.29" y2="675.6929"/><rect fill="#E2E2F0" height="30.29" rx="2.5" ry="2.5" style="stroke:#181818;stroke-width:0.5;" width="54" x="20" y="5"/><text fill="#000000" font-family="sans-serif" font-size="14" lengthAdjust="spacing" textLength="40" x="27" y="25.3027">Client</text><rect fill="#E2E2F0" height="30.29" rx="2.5" ry="2.5" style="stroke:#181818;stroke-width:0.5;" width="54" x="20" y="674.6929"/><text fill="#000000" font-family="sans-serif" font-size="14" lengthAdjust="spacing" textLength="40" x="27" y="694.9956">Client</text><rect fill="#E2E2F0" height="30.29" rx="2.5" ry="2.5" style="stroke:#181818;stroke-width:0.5;" width="97" x="288.5" y="5"/><text fill="#000000" font-family="sans-serif" font-size="14" lengthAdjust="spacing" textLength="83" x="295.5" y="25.3027">API Gateway</text><rect fill="#E2E2F0" height="30.29" rx="2.5" ry="2.5" style="stroke:#181818;stroke-width:0.5;" width="97" x="288.5" y="674.6929"/><text fill="#000000" font-family="sans-serif" font-size="14" lengthAdjust="spacing" textLength="83" x="295.5" y="694.9956">API Gateway</text><rect fill="#E2E2F0" height="30.29" rx="2.5" ry="2.5" style="stroke:#181818;stroke-width:0.5;" width="68" x="591" y="5"/><text fill="#000000" font-family="sans-serif" font-size="14" lengthAdjust="spacing" textLength="54" x="598" y="25.3027">Lambda</text><rect fill="#E2E2F0" height="30.29" rx="2.5" ry="2.5" style="stroke:#181818;stroke-width:0.5;" width="68" x="591" y="674.6929"/><text fill="#000000" font-family="sans-serif" font-size="14" lengthAdjust="spacing" textLength="54" x="598" y="694.9956">Lambda</text><rect fill="#E2E2F0" height="30.29" rx="2.5" ry="2.5" style="stroke:#181818;stroke-width:0.5;" width="88" x="905" y="5"/><text fill="#000000" font-family="sans-serif" font-size="14" lengthAdjust="spacing" textLength="74" x="912" y="25.3027">DynamoDB</text><rect fill="#E2E2F0" height="30.29" rx="2.5" ry="2.5" style="stroke:#181818;stroke-width:0.5;" width="88" x="905" y="674.6929"/><text fill="#000000" font-family="sans-serif" font-size="14" lengthAdjust="spacing" textLength="74" x="912" y="694.9956">DynamoDB</text><path d="M10,53.29 L272,53.29 L272,60.4165 L262,70.4165 L10,70.4165 L10,53.29 " fill="#EEEEEE" style="stroke:#000000;stroke-width:1.5;"/><rect fill="none" height="255.1382" style="stroke:#000000;stroke-width:1.5;" width="1157" x="10" y="53.29"/><text fill="#000000" font-family="sans-serif" font-size="13" font-weight="bold" lengthAdjust="spacing" textLength="217" x="25" y="66.6743">Create the message - Store First</text><polygon fill="#181818" points="325,87.543,335,91.543,325,95.543,329,91.543" style="stroke:#181818;stroke-width:1.0;"/><line style="stroke:#181818;stroke-width:1.0;" x1="47" x2="331" y1="91.543" y2="91.543"/><text fill="#000000" font-family="sans-serif" font-size="13" lengthAdjust="spacing" textLength="161" x="54" y="86.769">Send the blog's entry title</text><polygon fill="#181818" points="613,116.6694,623,120.6694,613,124.6694,617,120.6694" style="stroke:#181818;stroke-width:1.0;"/><line style="stroke:#181818;stroke-width:1.0;" x1="337" x2="619" y1="120.6694" y2="120.6694"/><text fill="#000000" font-family="sans-serif" font-size="13" lengthAdjust="spacing" textLength="159" x="344" y="115.8955">Pass the blog's entry title</text><line style="stroke:#181818;stroke-width:1.0;" x1="625" x2="667" y1="149.7959" y2="149.7959"/><line style="stroke:#181818;stroke-width:1.0;" x1="667" x2="667" y1="149.7959" y2="162.7959"/><line style="stroke:#181818;stroke-width:1.0;" x1="626" x2="667" y1="162.7959" y2="162.7959"/><polygon fill="#181818" points="636,158.7959,626,162.7959,636,166.7959,632,162.7959" style="stroke:#181818;stroke-width:1.0;"/><text fill="#000000" font-family="sans-serif" font-size="13" lengthAdjust="spacing" textLength="146" x="632" y="145.022">Generate reference/key</text><polygon fill="#181818" points="937,198.4856,947,202.4856,937,206.4856,941,202.4856" style="stroke:#181818;stroke-width:1.0;"/><line style="stroke:#181818;stroke-width:1.0;" x1="625" x2="943" y1="202.4856" y2="202.4856"/><text fill="#000000" font-family="sans-serif" font-size="13" lengthAdjust="spacing" textLength="281" x="632" y="197.7117">Store the reference/key and blog's entry title</text><path d="M954,175.7959 L954,215.7959 L1152,215.7959 L1152,185.7959 L1142,175.7959 L954,175.7959 " fill="#FEFFDD" style="stroke:#181818;stroke-width:0.5;"/><path d="M1142,175.7959 L1142,185.7959 L1152,185.7959 L1142,175.7959 " fill="#FEFFDD" style="stroke:#181818;stroke-width:0.5;"/><text fill="#000000" font-family="sans-serif" font-size="13" lengthAdjust="spacing" textLength="177" x="960" y="193.1484">The blog's entry now exists,</text><text fill="#000000" font-family="sans-serif" font-size="13" lengthAdjust="spacing" textLength="125" x="960" y="208.2749">but without content</text><polygon fill="#181818" points="636,238.1753,626,242.1753,636,246.1753,632,242.1753" style="stroke:#181818;stroke-width:1.0;"/><line style="stroke:#181818;stroke-width:1.0;" x1="630" x2="948" y1="242.1753" y2="242.1753"/><text fill="#000000" font-family="sans-serif" font-size="13" lengthAdjust="spacing" textLength="126" x="642" y="237.4014">Return confirmation</text><polygon fill="#181818" points="348,267.3018,338,271.3018,348,275.3018,344,271.3018" style="stroke:#181818;stroke-width:1.0;"/><line style="stroke:#181818;stroke-width:1.0;" x1="342" x2="624" y1="271.3018" y2="271.3018"/><text fill="#000000" font-family="sans-serif" font-size="13" lengthAdjust="spacing" textLength="143" x="354" y="266.5278">Pass the reference/key</text><polygon fill="#181818" points="58,296.4282,48,300.4282,58,304.4282,54,300.4282" style="stroke:#181818;stroke-width:1.0;"/><line style="stroke:#181818;stroke-width:1.0;" x1="52" x2="336" y1="300.4282" y2="300.4282"/><text fill="#000000" font-family="sans-serif" font-size="13" lengthAdjust="spacing" textLength="156" x="64" y="295.6543">Return the reference/key</text><path d="M10,347.4282 L140,347.4282 L140,354.5547 L130,364.5547 L10,364.5547 L10,347.4282 " fill="#EEEEEE" style="stroke:#000000;stroke-width:1.5;"/><rect fill="none" height="59.2529" style="stroke:#000000;stroke-width:1.5;" width="238" x="10" y="347.4282"/><text fill="#000000" font-family="sans-serif" font-size="13" font-weight="bold" lengthAdjust="spacing" textLength="85" x="25" y="360.8125">Waiting time</text><line style="stroke:#181818;stroke-width:1.0;" x1="47" x2="89" y1="385.6812" y2="385.6812"/><line style="stroke:#181818;stroke-width:1.0;" x1="89" x2="89" y1="385.6812" y2="398.6812"/><line style="stroke:#181818;stroke-width:1.0;" x1="48" x2="89" y1="398.6812" y2="398.6812"/><polygon fill="#181818" points="58,394.6812,48,398.6812,58,402.6812,54,398.6812" style="stroke:#181818;stroke-width:1.0;"/><text fill="#000000" font-family="sans-serif" font-size="13" lengthAdjust="spacing" textLength="182" x="54" y="380.9072">Client gathers blog's content</text><path d="M10,445.6812 L414,445.6812 L414,452.8076 L404,462.8076 L10,462.8076 L10,445.6812 " fill="#EEEEEE" style="stroke:#000000;stroke-width:1.5;"/><rect fill="none" height="213.0117" style="stroke:#000000;stroke-width:1.5;" width="1158" x="10" y="445.6812"/><text fill="#000000" font-family="sans-serif" font-size="13" font-weight="bold" lengthAdjust="spacing" textLength="359" x="25" y="459.0654">Complete/add information to message - Enrich Later</text><polygon fill="#181818" points="325,479.9341,335,483.9341,325,487.9341,329,483.9341" style="stroke:#181818;stroke-width:1.0;"/><line style="stroke:#181818;stroke-width:1.0;" x1="47" x2="331" y1="483.9341" y2="483.9341"/><text fill="#000000" font-family="sans-serif" font-size="13" lengthAdjust="spacing" textLength="266" x="54" y="479.1602">Send the reference/key and blog's content</text><polygon fill="#181818" points="613,509.0605,623,513.0605,613,517.0605,617,513.0605" style="stroke:#181818;stroke-width:1.0;"/><line style="stroke:#181818;stroke-width:1.0;" x1="337" x2="619" y1="513.0605" y2="513.0605"/><text fill="#000000" font-family="sans-serif" font-size="13" lengthAdjust="spacing" textLength="264" x="344" y="508.2866">Pass the reference/key and blog's content</text><polygon fill="#181818" points="937,548.7502,947,552.7502,937,556.7502,941,552.7502" style="stroke:#181818;stroke-width:1.0;"/><line style="stroke:#181818;stroke-width:1.0;" x1="625" x2="943" y1="552.7502" y2="552.7502"/><text fill="#000000" font-family="sans-serif" font-size="13" lengthAdjust="spacing" textLength="300" x="632" y="547.9763">Using the reference/key, add the blog's content</text><path d="M954,526.0605 L954,566.0605 L1153,566.0605 L1153,536.0605 L1143,526.0605 L954,526.0605 " fill="#FEFFDD" style="stroke:#181818;stroke-width:0.5;"/><path d="M1143,526.0605 L1143,536.0605 L1153,536.0605 L1143,526.0605 " fill="#FEFFDD" style="stroke:#181818;stroke-width:0.5;"/><text fill="#000000" font-family="sans-serif" font-size="13" lengthAdjust="spacing" textLength="178" x="960" y="543.4131">The blog's entry is complete</text><text fill="#000000" font-family="sans-serif" font-size="13" lengthAdjust="spacing" textLength="99" x="960" y="558.5396">with its content</text><polygon fill="#181818" points="636,588.4399,626,592.4399,636,596.4399,632,592.4399" style="stroke:#181818;stroke-width:1.0;"/><line style="stroke:#181818;stroke-width:1.0;" x1="630" x2="948" y1="592.4399" y2="592.4399"/><text fill="#000000" font-family="sans-serif" font-size="13" lengthAdjust="spacing" textLength="126" x="642" y="587.666">Return confirmation</text><polygon fill="#181818" points="348,617.5664,338,621.5664,348,625.5664,344,621.5664" style="stroke:#181818;stroke-width:1.0;"/><line style="stroke:#181818;stroke-width:1.0;" x1="342" x2="624" y1="621.5664" y2="621.5664"/><text fill="#000000" font-family="sans-serif" font-size="13" lengthAdjust="spacing" textLength="113" x="354" y="616.7925">Pass confirmation</text><polygon fill="#181818" points="58,646.6929,48,650.6929,58,654.6929,54,650.6929" style="stroke:#181818;stroke-width:1.0;"/><line style="stroke:#181818;stroke-width:1.0;" x1="52" x2="336" y1="650.6929" y2="650.6929"/><text fill="#000000" font-family="sans-serif" font-size="13" lengthAdjust="spacing" textLength="126" x="64" y="645.9189">Return confirmation</text><!--SRC=[lP8nJyCm48LdyYjEMLXQTMT0WXOgf0uL1J6xpTKvaTZL-QeIgJyUEscZk27G2I-9vFlktZq_pNQ_WocZ4WJ94KfqJcc4CQp4Ci8piPC4_4cd1Q6H5CRta3uiNs3kcOEgqZjOeSbgUbrOVUl0bt45Gb9WWtRBQtwXodMcFBfKplsAdYfZQeu6EKXct2AZsU3a4wi-CAkCAktiCMYirmcJ8WQKbpumszWmWNJU613EswLIOm-0N-J4ZTgYzLxWG99R_zrO8xwolWikXPwDpbPRlDehofvDuBR4fHAofhzNR7_huGzkz9m_lM8xgCzvcSdnU4nqdOqFHK96UrjAJ6wY4BIjcX_GoZTZTpRel7hSRshBNO624vLbG6PhJqk2s4xudWpJ9eU5LyuNKmUYD_YgtHUu9eZNDHf8sRkhlRfiCuAmRIVctLxNn8m2qXZN5eM80OdxluprWJ_Z5I5Ut3S0]--></g></svg>