<?xml version="1.0" encoding="us-ascii" standalone="no"?><svg xmlns="http://www.w3.org/2000/svg" xmlns:xlink="http://www.w3.org/1999/xlink" contentStyleType="text/css" height="958px" preserveAspectRatio="none" style="width:1751px;height:958px;background:#FFFFFF;" version="1.1" viewBox="0 0 1751 958" width="1751px" zoomAndPan="magnify"><defs/><g><rect fill="none" height="693.9087" style="stroke:#000000;stroke-width:1.5;" width="1429" x="316.5" y="153.6694"/><rect fill="none" height="573.4028" style="stroke:#000000;stroke-width:1.5;" width="1184" x="326.5" y="177.7959"/><rect fill="none" height="204.8853" style="stroke:#000000;stroke-width:1.5;" width="1003" x="336.5" y="201.9224"/><rect fill="none" height="323.3911" style="stroke:#000000;stroke-width:1.5;" width="1164" x="336.5" y="420.8076"/><rect fill="none" height="104.5059" style="stroke:#000000;stroke-width:1.5;" width="759.5" x="731" y="632.6929"/><rect fill="none" height="75.3794" style="stroke:#000000;stroke-width:1.5;" width="1358" x="377.5" y="765.1987"/><line style="stroke:#181818;stroke-width:0.5;stroke-dasharray:5.0,5.0;" x1="32" x2="32" y1="36.29" y2="922.8311"/><line style="stroke:#181818;stroke-width:0.5;stroke-dasharray:5.0,5.0;" x1="361.5" x2="361.5" y1="36.29" y2="922.8311"/><line style="stroke:#181818;stroke-width:0.5;stroke-dasharray:5.0,5.0;" x1="434.5" x2="434.5" y1="36.29" y2="922.8311"/><line style="stroke:#181818;stroke-width:0.5;stroke-dasharray:5.0,5.0;" x1="775" x2="775" y1="36.29" y2="922.8311"/><line style="stroke:#181818;stroke-width:0.5;stroke-dasharray:5.0,5.0;" x1="1210.5" x2="1210.5" y1="36.29" y2="922.8311"/><line style="stroke:#181818;stroke-width:0.5;stroke-dasharray:5.0,5.0;" x1="1285.5" x2="1285.5" y1="36.29" y2="922.8311"/><line style="stroke:#181818;stroke-width:0.5;stroke-dasharray:5.0,5.0;" x1="1409.5" x2="1409.5" y1="36.29" y2="922.8311"/><line style="stroke:#181818;stroke-width:0.5;stroke-dasharray:5.0,5.0;" x1="1607.5" x2="1607.5" y1="36.29" y2="922.8311"/><rect fill="#E2E2F0" height="30.29" rx="2.5" ry="2.5" style="stroke:#181818;stroke-width:0.5;" width="54" x="5" y="5"/><text fill="#000000" font-family="sans-serif" font-size="14" lengthAdjust="spacing" textLength="40" x="12" y="25.3027">Client</text><rect fill="#E2E2F0" height="30.29" rx="2.5" ry="2.5" style="stroke:#181818;stroke-width:0.5;" width="54" x="5" y="921.8311"/><text fill="#000000" font-family="sans-serif" font-size="14" lengthAdjust="spacing" textLength="40" x="12" y="942.1338">Client</text><rect fill="#E2E2F0" height="30.29" rx="2.5" ry="2.5" style="stroke:#181818;stroke-width:0.5;" width="31" x="346.5" y="5"/><text fill="#000000" font-family="sans-serif" font-size="14" lengthAdjust="spacing" textLength="17" x="353.5" y="25.3027">S3</text><rect fill="#E2E2F0" height="30.29" rx="2.5" ry="2.5" style="stroke:#181818;stroke-width:0.5;" width="31" x="346.5" y="921.8311"/><text fill="#000000" font-family="sans-serif" font-size="14" lengthAdjust="spacing" textLength="17" x="353.5" y="942.1338">S3</text><rect fill="#E2E2F0" height="30.29" rx="2.5" ry="2.5" style="stroke:#181818;stroke-width:0.5;" width="95" x="387.5" y="5"/><text fill="#000000" font-family="sans-serif" font-size="14" lengthAdjust="spacing" textLength="81" x="394.5" y="25.3027">EventBridge</text><rect fill="#E2E2F0" height="30.29" rx="2.5" ry="2.5" style="stroke:#181818;stroke-width:0.5;" width="95" x="387.5" y="921.8311"/><text fill="#000000" font-family="sans-serif" font-size="14" lengthAdjust="spacing" textLength="81" x="394.5" y="942.1338">EventBridge</text><rect fill="#E2E2F0" height="30.29" rx="2.5" ry="2.5" style="stroke:#181818;stroke-width:0.5;" width="68" x="741" y="5"/><text fill="#000000" font-family="sans-serif" font-size="14" lengthAdjust="spacing" textLength="54" x="748" y="25.3027">Lambda</text><rect fill="#E2E2F0" height="30.29" rx="2.5" ry="2.5" style="stroke:#181818;stroke-width:0.5;" width="68" x="741" y="921.8311"/><text fill="#000000" font-family="sans-serif" font-size="14" lengthAdjust="spacing" textLength="54" x="748" y="942.1338">Lambda</text><rect fill="#E2E2F0" height="30.29" rx="2.5" ry="2.5" style="stroke:#181818;stroke-width:0.5;" width="41" x="1190.5" y="5"/><text fill="#000000" font-family="sans-serif" font-size="14" lengthAdjust="spacing" textLength="27" x="1197.5" y="25.3027">SQS</text><rect fill="#E2E2F0" height="30.29" rx="2.5" ry="2.5" style="stroke:#181818;stroke-width:0.5;" width="41" x="1190.5" y="921.8311"/><text fill="#000000" font-family="sans-serif" font-size="14" lengthAdjust="spacing" textLength="27" x="1197.5" y="942.1338">SQS</text><rect fill="#E2E2F0" height="30.29" rx="2.5" ry="2.5" style="stroke:#181818;stroke-width:0.5;" width="88" x="1241.5" y="5"/><text fill="#000000" font-family="sans-serif" font-size="14" lengthAdjust="spacing" textLength="74" x="1248.5" y="25.3027">DynamoDB</text><rect fill="#E2E2F0" height="30.29" rx="2.5" ry="2.5" style="stroke:#181818;stroke-width:0.5;" width="88" x="1241.5" y="921.8311"/><text fill="#000000" font-family="sans-serif" font-size="14" lengthAdjust="spacing" textLength="74" x="1248.5" y="942.1338">DynamoDB</text><rect fill="#E2E2F0" height="30.29" rx="2.5" ry="2.5" style="stroke:#181818;stroke-width:0.5;" width="141" x="1339.5" y="5"/><text fill="#000000" font-family="sans-serif" font-size="14" lengthAdjust="spacing" textLength="127" x="1346.5" y="25.3027">Customer Analysis</text><rect fill="#E2E2F0" height="30.29" rx="2.5" ry="2.5" style="stroke:#181818;stroke-width:0.5;" width="141" x="1339.5" y="921.8311"/><text fill="#000000" font-family="sans-serif" font-size="14" lengthAdjust="spacing" textLength="127" x="1346.5" y="942.1338">Customer Analysis</text><rect fill="#E2E2F0" height="30.29" rx="2.5" ry="2.5" style="stroke:#181818;stroke-width:0.5;" width="235" x="1490.5" y="5"/><text fill="#000000" font-family="sans-serif" font-size="14" lengthAdjust="spacing" textLength="221" x="1497.5" y="25.3027">Dashboard &amp; Other Applications</text><rect fill="#E2E2F0" height="30.29" rx="2.5" ry="2.5" style="stroke:#181818;stroke-width:0.5;" width="235" x="1490.5" y="921.8311"/><text fill="#000000" font-family="sans-serif" font-size="14" lengthAdjust="spacing" textLength="221" x="1497.5" y="942.1338">Dashboard &amp; Other Applications</text><line style="stroke:#181818;stroke-width:1.0;" x1="32" x2="74" y1="67.4165" y2="67.4165"/><line style="stroke:#181818;stroke-width:1.0;" x1="74" x2="74" y1="67.4165" y2="80.4165"/><line style="stroke:#181818;stroke-width:1.0;" x1="33" x2="74" y1="80.4165" y2="80.4165"/><polygon fill="#181818" points="43,76.4165,33,80.4165,43,84.4165,39,80.4165" style="stroke:#181818;stroke-width:1.0;"/><text fill="#000000" font-family="sans-serif" font-size="13" lengthAdjust="spacing" textLength="157" x="39" y="62.6426">Generate a reference/key</text><polygon fill="#181818" points="350,105.543,360,109.543,350,113.543,354,109.543" style="stroke:#181818;stroke-width:1.0;"/><line style="stroke:#181818;stroke-width:1.0;" x1="32" x2="356" y1="109.543" y2="109.543"/><text fill="#000000" font-family="sans-serif" font-size="13" lengthAdjust="spacing" textLength="306" x="39" y="104.769">Store the feedback in S3 using the reference/key</text><polygon fill="#181818" points="423,134.6694,433,138.6694,423,142.6694,427,138.6694" style="stroke:#181818;stroke-width:1.0;"/><line style="stroke:#181818;stroke-width:1.0;" x1="32" x2="429" y1="138.6694" y2="138.6694"/><text fill="#000000" font-family="sans-serif" font-size="13" lengthAdjust="spacing" textLength="330" x="39" y="133.8955">Send event with reference/key, S3 location and stars</text><path d="M316.5,153.6694 L484.5,153.6694 L484.5,160.7959 L474.5,170.7959 L316.5,170.7959 L316.5,153.6694 " fill="#EEEEEE" style="stroke:#000000;stroke-width:1.5;"/><rect fill="none" height="693.9087" style="stroke:#000000;stroke-width:1.5;" width="1429" x="316.5" y="153.6694"/><text fill="#000000" font-family="sans-serif" font-size="13" font-weight="bold" lengthAdjust="spacing" textLength="123" x="331.5" y="167.0537">EventBridge Rules</text><path d="M326.5,177.7959 L593.5,177.7959 L593.5,184.9224 L583.5,194.9224 L326.5,194.9224 L326.5,177.7959 " fill="#EEEEEE" style="stroke:#000000;stroke-width:1.5;"/><rect fill="none" height="573.4028" style="stroke:#000000;stroke-width:1.5;" width="1184" x="326.5" y="177.7959"/><text fill="#000000" font-family="sans-serif" font-size="13" font-weight="bold" lengthAdjust="spacing" textLength="222" x="341.5" y="191.1802">1-2 stars concurrent invocations</text><path d="M336.5,201.9224 L492.5,201.9224 L492.5,209.0488 L482.5,219.0488 L336.5,219.0488 L336.5,201.9224 " fill="#EEEEEE" style="stroke:#000000;stroke-width:1.5;"/><rect fill="none" height="204.8853" style="stroke:#000000;stroke-width:1.5;" width="1003" x="336.5" y="201.9224"/><text fill="#000000" font-family="sans-serif" font-size="13" font-weight="bold" lengthAdjust="spacing" textLength="111" x="351.5" y="215.3066">Word Count flow</text><polygon fill="#181818" points="763,236.1753,773,240.1753,763,244.1753,767,240.1753" style="stroke:#181818;stroke-width:1.0;"/><line style="stroke:#181818;stroke-width:1.0;" x1="435" x2="769" y1="240.1753" y2="240.1753"/><text fill="#000000" font-family="sans-serif" font-size="13" lengthAdjust="spacing" textLength="275" x="442" y="235.4014">Invoke function to count words in feedback</text><polygon fill="#181818" points="373,265.3018,363,269.3018,373,273.3018,369,269.3018" style="stroke:#181818;stroke-width:1.0;"/><line style="stroke:#181818;stroke-width:1.0;" x1="367" x2="774" y1="269.3018" y2="269.3018"/><text fill="#000000" font-family="sans-serif" font-size="13" lengthAdjust="spacing" textLength="230" x="379" y="264.5278">Get the feedback stored as an object</text><polygon fill="#181818" points="763,294.4282,773,298.4282,763,302.4282,767,298.4282" style="stroke:#181818;stroke-width:1.0;"/><line style="stroke:#181818;stroke-width:1.0;" x1="362" x2="769" y1="298.4282" y2="298.4282"/><text fill="#000000" font-family="sans-serif" font-size="13" lengthAdjust="spacing" textLength="161" x="369" y="293.6543">Feedback object retrieved</text><line style="stroke:#181818;stroke-width:1.0;" x1="775" x2="817" y1="327.5547" y2="327.5547"/><line style="stroke:#181818;stroke-width:1.0;" x1="817" x2="817" y1="327.5547" y2="340.5547"/><line style="stroke:#181818;stroke-width:1.0;" x1="776" x2="817" y1="340.5547" y2="340.5547"/><polygon fill="#181818" points="786,336.5547,776,340.5547,786,344.5547,782,340.5547" style="stroke:#181818;stroke-width:1.0;"/><text fill="#000000" font-family="sans-serif" font-size="13" lengthAdjust="spacing" textLength="80" x="782" y="322.7808">Count words</text><polygon fill="#181818" points="1199,365.6812,1209,369.6812,1199,373.6812,1203,369.6812" style="stroke:#181818;stroke-width:1.0;"/><line style="stroke:#181818;stroke-width:1.0;" x1="775" x2="1205" y1="369.6812" y2="369.6812"/><text fill="#000000" font-family="sans-serif" font-size="13" lengthAdjust="spacing" textLength="412" x="782" y="364.9072">Send message with reference/key to queue for further processing</text><polygon fill="#181818" points="1273.5,394.8076,1283.5,398.8076,1273.5,402.8076,1277.5,398.8076" style="stroke:#181818;stroke-width:1.0;"/><line style="stroke:#181818;stroke-width:1.0;" x1="775" x2="1279.5" y1="398.8076" y2="398.8076"/><text fill="#000000" font-family="sans-serif" font-size="13" lengthAdjust="spacing" textLength="368" x="782" y="394.0337">Create or update item with feedback word count attributes</text><path d="M336.5,420.8076 L462.5,420.8076 L462.5,427.9341 L452.5,437.9341 L336.5,437.9341 L336.5,420.8076 " fill="#EEEEEE" style="stroke:#000000;stroke-width:1.5;"/><rect fill="none" height="323.3911" style="stroke:#000000;stroke-width:1.5;" width="1164" x="336.5" y="420.8076"/><text fill="#000000" font-family="sans-serif" font-size="13" font-weight="bold" lengthAdjust="spacing" textLength="81" x="351.5" y="434.1919">Feeling flow</text><polygon fill="#181818" points="763,455.0605,773,459.0605,763,463.0605,767,459.0605" style="stroke:#181818;stroke-width:1.0;"/><line style="stroke:#181818;stroke-width:1.0;" x1="435" x2="769" y1="459.0605" y2="459.0605"/><text fill="#000000" font-family="sans-serif" font-size="13" lengthAdjust="spacing" textLength="316" x="442" y="454.2866">Invoke function to identify the feeling in feedback</text><polygon fill="#181818" points="373,484.187,363,488.187,373,492.187,369,488.187" style="stroke:#181818;stroke-width:1.0;"/><line style="stroke:#181818;stroke-width:1.0;" x1="367" x2="774" y1="488.187" y2="488.187"/><text fill="#000000" font-family="sans-serif" font-size="13" lengthAdjust="spacing" textLength="230" x="379" y="483.4131">Get the feedback stored as an object</text><polygon fill="#181818" points="763,513.3135,773,517.3135,763,521.3135,767,517.3135" style="stroke:#181818;stroke-width:1.0;"/><line style="stroke:#181818;stroke-width:1.0;" x1="362" x2="769" y1="517.3135" y2="517.3135"/><text fill="#000000" font-family="sans-serif" font-size="13" lengthAdjust="spacing" textLength="161" x="369" y="512.5396">Feedback object retrieved</text><line style="stroke:#181818;stroke-width:1.0;" x1="775" x2="817" y1="546.4399" y2="546.4399"/><line style="stroke:#181818;stroke-width:1.0;" x1="817" x2="817" y1="546.4399" y2="559.4399"/><line style="stroke:#181818;stroke-width:1.0;" x1="776" x2="817" y1="559.4399" y2="559.4399"/><polygon fill="#181818" points="786,555.4399,776,559.4399,786,563.4399,782,559.4399" style="stroke:#181818;stroke-width:1.0;"/><text fill="#000000" font-family="sans-serif" font-size="13" lengthAdjust="spacing" textLength="156" x="782" y="541.666">Identify feedback feeling</text><polygon fill="#181818" points="1199,584.5664,1209,588.5664,1199,592.5664,1203,588.5664" style="stroke:#181818;stroke-width:1.0;"/><line style="stroke:#181818;stroke-width:1.0;" x1="775" x2="1205" y1="588.5664" y2="588.5664"/><text fill="#000000" font-family="sans-serif" font-size="13" lengthAdjust="spacing" textLength="412" x="782" y="583.7925">Send message with reference/key to queue for further processing</text><polygon fill="#181818" points="1273.5,613.6929,1283.5,617.6929,1273.5,621.6929,1277.5,617.6929" style="stroke:#181818;stroke-width:1.0;"/><line style="stroke:#181818;stroke-width:1.0;" x1="775" x2="1279.5" y1="617.6929" y2="617.6929"/><text fill="#000000" font-family="sans-serif" font-size="13" lengthAdjust="spacing" textLength="340" x="782" y="612.9189">Create or update item with feedback feeling attributes</text><path d="M731,632.6929 L915,632.6929 L915,639.8193 L905,649.8193 L731,649.8193 L731,632.6929 " fill="#EEEEEE" style="stroke:#000000;stroke-width:1.5;"/><rect fill="none" height="104.5059" style="stroke:#000000;stroke-width:1.5;" width="759.5" x="731" y="632.6929"/><text fill="#000000" font-family="sans-serif" font-size="13" font-weight="bold" lengthAdjust="spacing" textLength="139" x="746" y="646.0771">Post-SQS processing</text><polygon fill="#181818" points="1199,666.9458,1209,670.9458,1199,674.9458,1203,670.9458" style="stroke:#181818;stroke-width:1.0;"/><line style="stroke:#181818;stroke-width:1.0;" x1="775" x2="1205" y1="670.9458" y2="670.9458"/><text fill="#000000" font-family="sans-serif" font-size="13" lengthAdjust="spacing" textLength="140" x="782" y="666.1719">Poll for new messages</text><polygon fill="#181818" points="786,696.0723,776,700.0723,786,704.0723,782,700.0723" style="stroke:#181818;stroke-width:1.0;"/><line style="stroke:#181818;stroke-width:1.0;" x1="780" x2="1210" y1="700.0723" y2="700.0723"/><text fill="#000000" font-family="sans-serif" font-size="13" lengthAdjust="spacing" textLength="120" x="792" y="695.2983">Messages retrieved</text><polygon fill="#181818" points="1398,725.1987,1408,729.1987,1398,733.1987,1402,729.1987" style="stroke:#181818;stroke-width:1.0;"/><line style="stroke:#181818;stroke-width:1.0;" x1="775" x2="1404" y1="729.1987" y2="729.1987"/><text fill="#000000" font-family="sans-serif" font-size="13" lengthAdjust="spacing" textLength="372" x="782" y="724.4248">Send feedback and stars to be analyzed by customer teams</text><path d="M377.5,765.1987 L485.5,765.1987 L485.5,772.3252 L475.5,782.3252 L377.5,782.3252 L377.5,765.1987 " fill="#EEEEEE" style="stroke:#000000;stroke-width:1.5;"/><rect fill="none" height="75.3794" style="stroke:#000000;stroke-width:1.5;" width="1358" x="377.5" y="765.1987"/><text fill="#000000" font-family="sans-serif" font-size="13" font-weight="bold" lengthAdjust="spacing" textLength="63" x="392.5" y="778.583">3-5 stars</text><polygon fill="#181818" points="763,799.4517,773,803.4517,763,807.4517,767,803.4517" style="stroke:#181818;stroke-width:1.0;"/><line style="stroke:#181818;stroke-width:1.0;" x1="435" x2="769" y1="803.4517" y2="803.4517"/><text fill="#000000" font-family="sans-serif" font-size="13" lengthAdjust="spacing" textLength="298" x="442" y="798.6777">Invoke function to send feedback to dashboard</text><polygon fill="#181818" points="1596,828.5781,1606,832.5781,1596,836.5781,1600,832.5781" style="stroke:#181818;stroke-width:1.0;"/><line style="stroke:#181818;stroke-width:1.0;" x1="775" x2="1602" y1="832.5781" y2="832.5781"/><text fill="#000000" font-family="sans-serif" font-size="13" lengthAdjust="spacing" textLength="356" x="782" y="827.8042">Send stars to show in dashboard and further proicessing</text><polygon fill="#181818" points="1222,871.7046,1212,875.7046,1222,879.7046,1218,875.7046" style="stroke:#181818;stroke-width:1.0;"/><line style="stroke:#181818;stroke-width:1.0;" x1="1216" x2="1607" y1="875.7046" y2="875.7046"/><text fill="#000000" font-family="sans-serif" font-size="13" lengthAdjust="spacing" textLength="118" x="1228" y="870.9307">Further processing</text><polygon fill="#181818" points="1296.5,900.8311,1286.5,904.8311,1296.5,908.8311,1292.5,904.8311" style="stroke:#181818;stroke-width:1.0;"/><line style="stroke:#181818;stroke-width:1.0;" x1="1290.5" x2="1607" y1="904.8311" y2="904.8311"/><text fill="#000000" font-family="sans-serif" font-size="13" lengthAdjust="spacing" textLength="118" x="1302.5" y="900.0571">Further processing</text><!--SRC=[rLHDRzGm43qtlsAq1qwi4AouS41gjxIg1AAm1yvEFBjhDh63FxeAlvwPnCv7Gmg8KtE9PS-yUVFUsAjjgL3x5QpVmogkty4jQhJ28mYmk4UBki1N9soorJXyjw7GdJSMmHyHzeWo5yK9b8RT1e9J-j0UF07nuO6MLrR90p8MQWd8Mt1M_ZXDVCcWfIc4LqQ3e4ZdXNLPTh0cr312Wg-XH9TTT0Ulrs-wI2YCBeAr3A_qGqHo6SIl2_zch8Ij2HIqBysvF-LlGhVb_r5KkHH4_Ou0JwH1q4NBpnigno1dmdCiIP9dYXW11ZrlqK_LT2om1E6ePp3vTopy58BIfbnkKceNJJ9wgqXMkLowpzqEf9yW-cMNtAhGEK6Ip_rY2Nu43DIAiIICfQuirDOKb4AZiGn_tMXHcUihfcEHnv00GYrvfJnMNR5U82ORnHQUEis3nu4yaSmUMKpwb3oR_-claXIizasogyLyDaRV9VPz_TZ2Sx4zAVuRpmUhxutpQ-AzH62XntjJbYr_ZUVKgvidSl1KrKynTi6AMRbj8DSh4kXIYx9noYM1-pRxXuw5pUb5vi2VD2Tv0qNAzYYgAJyU-yVhzCy6VJRhj_4PvRsBVxi0RaAKDgHmnzm8AoFQnDrq1Y_WSpiJbtLTglW8fxRxJjtHdFaozP2j4ADnKcCxkRFsel-fpCZZc_be_bNsQ4pd4By0]--></g></svg>