<?xml version="1.0" ?>
<!DOCTYPE svg  PUBLIC '-//W3C//DTD SVG 1.1//EN'  'http://www.w3.org/Graphics/SVG/1.1/DTD/svg11.dtd'>
<!-- Uploaded to: SVG Repo, www.svgrepo.com, Generator: SVG Repo Mixer Tools -->
<svg fill="#000000" width="800px" height="800px" viewBox="0 0 512 512" enable-background="new 0 0 512 512" id="Self_x5F_confident" version="1.1" xml:space="preserve"
    xmlns="http://www.w3.org/2000/svg"
    xmlns:xlink="http://www.w3.org/1999/xlink">

    <g>

        <path d="M382.132,95.913c-2.686-2.113-6.578-1.646-8.688,1.037c-2.115,2.688-1.648,6.576,1.037,8.688   c46.475,36.553,73.127,91.385,73.127,150.434c0,3.416,2.771,6.188,6.188,6.188s6.188-2.771,6.188-6.188   C459.983,193.2,431.608,134.827,382.132,95.913z"/>

        <path d="M65.058,256.071c0-59.049,26.652-113.881,73.127-150.434c2.686-2.111,3.15-6,1.037-8.688c-2.111-2.684-6-3.15-8.688-1.037   C81.058,134.827,52.683,193.2,52.683,256.071c0,3.416,2.771,6.188,6.188,6.188S65.058,259.487,65.058,256.071z"/>

        <path d="M451.319,288.03c-3.352-0.646-6.605,1.531-7.258,4.889c-12.816,65.68-58.77,118.115-118.416,141.375l1.674,12.564   c64.863-24.205,115.045-80.611,128.889-151.57C456.862,291.935,454.675,288.685,451.319,288.03z"/>

        <path d="M186.991,434.284c-59.643-23.27-105.588-75.711-118.395-141.393c-0.652-3.354-3.902-5.533-7.256-4.889   c-3.354,0.654-5.545,3.902-4.891,7.256c13.834,70.961,64.004,127.373,128.865,151.588L186.991,434.284z"/>

        <path d="M269.862,446.8c-4.479,0.324-8.98,0.545-13.529,0.545c-4.557,0-9.066-0.223-13.555-0.547l-1.695,12.322   c5.043,0.387,10.125,0.6,15.25,0.6c5.117,0,10.191-0.213,15.227-0.598L269.862,446.8z"/>

        <path d="M168.14,78.952c6.148,2.256,9.236,5.342,11.492,11.492c0.965,2.625,4.631,2.625,5.594,0   c2.258-6.15,5.344-9.236,11.492-11.492c2.627-0.965,2.627-4.633,0-5.594c-6.148-2.258-9.234-5.344-11.492-11.494   c-0.963-2.627-4.629-2.627-5.594,0c-2.256,6.15-5.344,9.236-11.492,11.494C165.515,74.319,165.515,77.987,168.14,78.952z"/>

        <path d="M316.677,78.952c6.15,2.256,9.236,5.342,11.492,11.492c0.965,2.625,4.633,2.625,5.598,0   c2.254-6.15,5.34-9.236,11.49-11.492c2.627-0.965,2.627-4.633,0-5.594c-6.15-2.258-9.236-5.344-11.49-11.494   c-0.965-2.627-4.633-2.627-5.598,0c-2.256,6.15-5.342,9.236-11.492,11.494C314.052,74.319,314.052,77.987,316.677,78.952z"/>

        <path d="M235.827,61.28c1.191,0.863,1.689,2.396,1.234,3.799L229.63,87.95c-1.016,3.131,2.566,5.734,5.23,3.799l19.455-14.135   c1.189-0.865,2.803-0.865,3.994,0l19.457,14.135c2.662,1.936,6.246-0.668,5.229-3.799l-7.432-22.871   c-0.453-1.402,0.045-2.936,1.236-3.799l19.455-14.886c2.662-1.934,1.295-6.894-1.998-6.894h-24.049c-1.473,0-2.777-0.2-3.232-1.6   l-7.432-22.5c-1.018-3.129-5.445-2.941-6.461,0.188l-7.434,22.219c-0.455,1.398-1.758,1.693-3.23,1.693h-24.051   c-3.293,0-4.66,4.96-1.998,6.894L235.827,61.28z"/>

        <path d="M256.312,127.446c-20.479,0-37.08,16.6-37.08,37.08c0,20.479,16.602,37.078,37.08,37.078   c20.48,0,37.082-16.6,37.082-37.078C293.394,144.046,276.792,127.446,256.312,127.446z M272.243,168.388   c-1.26,7.867-7.965,13.578-15.939,13.578c-7.9,0-14.592-5.645-15.912-13.42c-0.168-0.977,0.105-1.979,0.742-2.736   s1.574-1.199,2.566-1.203l25.191-0.129c1.021,0.002,1.934,0.424,2.58,1.178C272.116,166.409,272.397,167.407,272.243,168.388z"/>

        <path d="M306.46,358.542l-1.131-8.572l-0.105,0.08l-6.68-45.402l0.113-0.115l-1.176-8.553l-4.049-29.727   c-0.158-1.146,1.215-1.82,2.025-1.01l15.549,15.547c3.283,3.285,3.283,8.594,0,11.879l-1.33,1.33l6.674,45.389l27.797-25.365   c15.029-15.051,15.029-39.443,0-54.473l0.047-0.068l-20.904-20.787c-14.939-14.92-35.168-23.195-56.273-23.195H245.62   c-21.105,0-41.355,8.218-56.271,23.138L168.446,259.5h0.043c-15.029,15-15.029,39.445,0,54.498l27.82,25.385l6.67-45.37   l-1.346-1.347c-3.285-3.285-3.285-8.593,0-11.878l15.547-15.547c0.809-0.809,2.182-0.136,2.023,1.011l-5.225,38.278l0.111,0.111   l-6.633,45.258l-0.127-0.119l-19.176,143.512c-0.383,2.879,1.867,5.208,4.77,5.208h29.363c2.408,0,4.432-1.52,4.77-3.902   l15.908-115.318c0.27-1.957,0.922-3.739,1.867-5.358c5.018-8.527,17.955-8.495,22.949,0.032c0.945,1.619,1.6,3.479,1.891,5.44   l15.906,115.194c0.34,2.385,2.365,3.912,4.771,3.912h29.361c2.902,0,5.152-2.328,4.77-5.207L306.46,358.542z M269.104,290.901   l-12.256,8.604l-12.771-8.604c-0.377-0.262-0.822-0.73-0.717-1.18l10.305-44.066c0.076-0.32-0.061-0.658-0.256-0.924l-7.156-9.556   c-0.547-0.742-0.049-1.675,0.875-1.675h18.395c0.924,0,1.453,0.933,0.906,1.675l-7.121,9.614c-0.199,0.266-0.268,0.576-0.189,0.896   l10.434,44.051C269.661,290.186,269.481,290.64,269.104,290.901z"/>

    </g>

</svg>