<svg xmlns="http://www.w3.org/2000/svg" xmlns:lucid="lucid" width="298.13" height="297.32"><g lucid:page-tab-id="0_0"><path d="M84.85 269.04c-15.62 15.62-40.95 15.62-56.57 0-15.62-15.63-15.62-40.95 0-56.57 15.63-15.62 40.95-15.62 56.57 0 15.62 15.62 15.62 40.94 0 56.57zM84.85 84.85c-15.62 15.62-40.95 15.62-56.57 0-15.62-15.62-15.62-40.94 0-56.57 15.63-15.62 40.95-15.62 56.57 0 15.62 15.63 15.62 40.95 0 56.57zM269.84 28.28c15.62 15.63 15.62 40.95 0 56.57-15.62 15.62-40.94 15.62-56.57 0-15.62-15.62-15.62-40.94 0-56.57 15.63-15.62 40.95-15.62 56.57 0zM269.84 212.47c15.62 15.62 15.62 40.94 0 56.57-15.62 15.62-40.94 15.62-56.57 0-15.62-15.63-15.62-40.95 0-56.57 15.63-15.62 40.95-15.62 56.57 0zM188.63 150.75c0 22.1-17.9 40-40 40s-40-17.9-40-40 17.9-40 40-40 40 17.9 40 40z" stroke="#f2f3f5" stroke-width="10" fill="#fff"/><path d="M89.8 207.5l24.53-24.73" stroke="#f2f3f5" stroke-width="4" fill="none"/><path d="M91.25 208.88l-1.53 1.55-1.28-1.45-1.5-1.4 1.47-1.52zM117.12 182.8l-1.4 1.4-2.84-2.8 1.48-1.5z" stroke="#f2f3f5" stroke-width=".05" fill="#f2f3f5"/><path d="M89.8 89.8l26.85 26.62" stroke="#f2f3f5" stroke-width="4" fill="none"/><path d="M91.26 88.4l-2.82 2.85-1.55-1.53 1.44-1.28 1.4-1.5zM119.52 116.45l-2.9 2.76-1.42-1.4 2.82-2.83z" stroke="#f2f3f5" stroke-width=".05" fill="#f2f3f5"/><path d="M208.32 89.8l-27.17 27.05" stroke="#f2f3f5" stroke-width="4" fill="none"/><path d="M209.7 88.34l1.5 1.4-1.5 1.5-2.83-2.82 1.54-1.53zM182.6 118.23l-1.5 1.48-1.8-1.9-1.07-.87 1.54-1.54z" stroke="#f2f3f5" stroke-width=".05" fill="#f2f3f5"/><path d="M208.33 207.5l-24.9-25.2" stroke="#f2f3f5" stroke-width="4" fill="none"/><path d="M211.23 207.6l-1.45 1.28-1.4 1.5-1.5-1.5 2.84-2.82zM184.88 180.94l-2.84 2.8-1.4-1.42.93-.9 1.72-2.1z" stroke="#f2f3f5" stroke-width=".05" fill="#f2f3f5"/></g></svg>