<?xml version="1.0" encoding="utf-8"?><!-- Uploaded to: SVG Repo, www.svgrepo.com, Generator: SVG Repo Mixer Tools -->
<svg fill="#000000" width="800px" height="800px" viewBox="0 0 24 24"
  xmlns="http://www.w3.org/2000/svg">
  <path d="M20,19.2928932 L20,16.5 C20,16.2238576 20.2238576,16 20.5,16 C20.7761424,16 21,16.2238576 21,16.5 L21,20.5 C21,20.7761424 20.7761424,21 20.5,21 L16.5,21 C16.2238576,21 16,20.7761424 16,20.5 C16,20.2238576 16.2238576,20 16.5,20 L19.2928932,20 L16.1464466,16.8535534 C15.9511845,16.6582912 15.9511845,16.3417088 16.1464466,16.1464466 C16.3417088,15.9511845 16.6582912,15.9511845 16.8535534,16.1464466 L20,19.2928932 Z M4,4.70710678 L4,7.5 C4,7.77614237 3.77614237,8 3.5,8 C3.22385763,8 3,7.77614237 3,7.5 L3,3.5 C3,3.22385763 3.22385763,3 3.5,3 L7.5,3 C7.77614237,3 8,3.22385763 8,3.5 C8,3.77614237 7.77614237,4 7.5,4 L4.70710678,4 L7.85355339,7.14644661 C8.04881554,7.34170876 8.04881554,7.65829124 7.85355339,7.85355339 C7.65829124,8.04881554 7.34170876,8.04881554 7.14644661,7.85355339 L4,4.70710678 Z M4.70710678,20 L7.5,20 C7.77614237,20 8,20.2238576 8,20.5 C8,20.7761424 7.77614237,21 7.5,21 L3.5,21 C3.22385763,21 3,20.7761424 3,20.5 L3,16.5 C3,16.2238576 3.22385763,16 3.5,16 C3.77614237,16 4,16.2238576 4,16.5 L4,19.2928932 L7.14644661,16.1464466 C7.34170876,15.9511845 7.65829124,15.9511845 7.85355339,16.1464466 C8.04881554,16.3417088 8.04881554,16.6582912 7.85355339,16.8535534 L4.70710678,20 Z M19.2928932,4 L16.5,4 C16.2238576,4 16,3.77614237 16,3.5 C16,3.22385763 16.2238576,3 16.5,3 L20.5,3 C20.7761424,3 21,3.22385763 21,3.5 L21,7.53112887 C21,7.80727125 20.7761424,8.03112887 20.5,8.03112887 C20.2238576,8.03112887 20,7.80727125 20,7.53112887 L20,4.70710678 L16.8535534,7.85355339 C16.6582912,8.04881554 16.3417088,8.04881554 16.1464466,7.85355339 C15.9511845,7.65829124 15.9511845,7.34170876 16.1464466,7.14644661 L19.2928932,4 L19.2928932,4 Z M8,10.4949109 C8,9.11668583 9.11540994,7.99843045 10.4936306,7.99491906 L13.4936306,7.98727573 C14.8807119,7.98726762 16,9.10655574 16,10.4872676 L16,13.5 C16,14.8807119 14.8807119,16 13.5,16 L10.5,16 C9.11928813,16 8,14.8807119 8,13.5 L8,10.4949109 Z M9,10.4949109 L9,13.5 C9,14.3284271 9.67157288,15 10.5,15 L13.5,15 C14.3284271,15 15,14.3284271 15,13.5 L15,10.4872676 C15,9.65884049 14.3284271,8.98726762 13.5,8.98726762 L10.4961784,8.99491581 C9.66924596,8.99702265 9,9.66797587 9,10.4949109 Z"/>
</svg>