<svg xmlns="http://www.w3.org/2000/svg"
    xmlns:xlink="http://www.w3.org/1999/xlink"
    xmlns:lucid="lucid" width="860" height="892">
    <g transform="translate(2056 199)" lucid:page-tab-id="0_0">
        <path d="M-2040-174a6 6 0 0 1 6-6h108a6 6 0 0 1 6 6v88a6 6 0 0 1-6 6h-108a6 6 0 0 1-6-6z" stroke="#4881b3" stroke-width="2" fill="#f5fbff"/>
        <use xlink:href="#a" transform="matrix(1,0,0,1,-2040,-180) translate(23.554999999999993 55.025)"/>
        <path d="M-1980-78v9.94m0 9.94v19.88m0 9.94v19.88m0 9.94V21.4m0 9.93V51.2m0 9.95v19.88m0 9.94v19.88m0 9.94v19.87m0 9.94v19.9m0 9.92v19.88m0 9.94v19.88m0 9.94v19.88m0 9.94v19.88m0 9.94v19.88m0 9.94v19.87m0 9.93v19.88m0 9.95v19.88m0 9.94v19.88m0 9.94v19.87m0 9.94v19.88m0 9.94v19.88m0 9.94v19.88m0 9.94V578" stroke="#4881b3" stroke-width="2" fill="none"/>
        <path d="M-1979-77.97h-2V-79h2zM-1979 579h-2v-1.03h2z" stroke="#4881b3" stroke-width=".05" fill="#4881b3"/>
        <path d="M-1620-78v9.94m0 9.94v19.88m0 9.94v19.88m0 9.94V21.4m0 9.93V51.2m0 9.95v19.88m0 9.94v19.88m0 9.94v19.87m0 9.94v19.9m0 9.92v19.88m0 9.94v19.88m0 9.94v19.88m0 9.94v19.88m0 9.94v19.88m0 9.94v19.87m0 9.93v19.88m0 9.95v19.88m0 9.94v19.88m0 9.94v19.87m0 9.94v19.88m0 9.94v19.88m0 9.94v19.88m0 9.94V578" stroke="#4881b3" stroke-width="2" fill="none"/>
        <path d="M-1619-77.97h-2V-79h2zM-1619 579h-2v-1.03h2z" stroke="#4881b3" stroke-width=".05" fill="#4881b3"/>
        <path d="M-1277.5-78v9.94m0 9.94v19.88m0 9.94v19.88m0 9.94V21.4m0 9.93V51.2m0 9.95v19.88m0 9.94v19.88m0 9.94v19.87m0 9.94v19.9m0 9.92v19.88m0 9.94v19.88m0 9.94v19.88m0 9.94v19.88m0 9.94v19.88m0 9.94v19.87m0 9.93v19.88m0 9.95v19.88m0 9.94v19.88m0 9.94v19.87m0 9.94v19.88m0 9.94v19.88m0 9.94v19.88m0 9.94V578" stroke="#4881b3" stroke-width="2" fill="none"/>
        <path d="M-1276.5-77.97h-2V-79h2zM-1276.5 579h-2v-1.03h2z" stroke="#4881b3" stroke-width=".05" fill="#4881b3"/>
        <path d="M-2040 586a6 6 0 0 1 6-6h108a6 6 0 0 1 6 6v88a6 6 0 0 1-6 6h-108a6 6 0 0 1-6-6z" stroke="#4881b3" stroke-width="2" fill="#f5fbff"/>
        <use xlink:href="#a" transform="matrix(1,0,0,1,-2040,580) translate(23.554999999999993 55.025)"/>
        <path d="M-1680-174a6 6 0 0 1 6-6h108a6 6 0 0 1 6 6v88a6 6 0 0 1-6 6h-108a6 6 0 0 1-6-6z" stroke="#4881b3" stroke-width="2" fill="#f5fbff"/>
        <use xlink:href="#b" transform="matrix(1,0,0,1,-1680,-180) translate(18.57999999999999 55.025)"/>
        <path d="M-1680 586a6 6 0 0 1 6-6h108a6 6 0 0 1 6 6v88a6 6 0 0 1-6 6h-108a6 6 0 0 1-6-6z" stroke="#4881b3" stroke-width="2" fill="#f5fbff"/>
        <use xlink:href="#b" transform="matrix(1,0,0,1,-1680,580) translate(18.57999999999999 55.025)"/>
        <path d="M-1340-174a6 6 0 0 1 6-6h113.02a6 6 0 0 1 6 6v88a6 6 0 0 1-6 6H-1334a6 6 0 0 1-6-6z" stroke="#4881b3" stroke-width="2" fill="#f5fbff"/>
        <use xlink:href="#c" transform="matrix(1,0,0,1,-1340,-180) translate(15.554999999999994 55.025)"/>
        <path d="M-1340 586a6 6 0 0 1 6-6h113.02a6 6 0 0 1 6 6v88a6 6 0 0 1-6 6H-1334a6 6 0 0 1-6-6z" stroke="#4881b3" stroke-width="2" fill="#f5fbff"/>
        <use xlink:href="#c" transform="matrix(1,0,0,1,-1340,580) translate(15.554999999999994 55.025)"/>
        <path d="M-1979-39.12h239V.76h-221.5M-1978.97-39.12h-1.03" stroke="#4881b3" stroke-width="2" fill="none"/>
        <path d="M-1976.76.76l14.26-4.64V5.4z" stroke="#4881b3" stroke-width="2" fill="#4881b3"/>
        <use xlink:href="#d" transform="matrix(1,0,0,1,-1951.6977706782072,-60.39542347734735) translate(0 11.516111611161117)"/>
        <path d="M-1979 60.58h340.5M-1978.97 60.58h-1.03" stroke="#4881b3" stroke-width="2" fill="none"/>
        <path d="M-1623.24 60.58l-14.26 4.63v-9.26z" stroke="#4881b3" stroke-width="2" fill="#4881b3"/>
        <use xlink:href="#e" transform="matrix(1,0,0,1,-1848.263703870387,39.301561371137346) translate(0 11.516111611161117)"/>
        <path d="M-1619 120.4h323M-1618.97 120.4h-1.03" stroke="#4881b3" stroke-width="2" fill="none"/>
        <path d="M-1280.73 120.4l-14.26 4.63v-9.27z" stroke="#4881b3" stroke-width="2" fill="#4881b3"/>
        <use xlink:href="#f" transform="matrix(1,0,0,1,-1543.2930760576057,99.11975228022818) translate(0 11.516111611161117)"/>
        <path d="M-1720 166a6 6 0 0 1 6-6h79.86a6 6 0 0 1 6 6v5.52a14.48 14.48 0 0 1-4.25 10.24l-1.5 1.5a14.48 14.48 0 0 1-10.24 4.26H-1714a6 6 0 0 1-6-6z" fill="#f5fbff"/>
        <path d="M-1628.14 160v17.52l-10 10H-1720" stroke="#4881b3" stroke-width="2" fill="none"/>
        <path d="M-1720 166a6 6 0 0 1 6-6h468a6 6 0 0 1 6 6v368a6 6 0 0 1-6 6h-468a6 6 0 0 1-6-6zM-1720 312h20m15 0h20m15 0h20m15 0h20m15 0h20m15 0h20m15 0h20m15 0h20m15 0h20m15 0h20m15 0h20m15 0h20m15 0h20m15 0h20" stroke="#4881b3" stroke-width="2" fill="none"/>
        <use xlink:href="#g" transform="matrix(1,0,0,1,-1712,160) translate(0 16.879027902790277)"/>
        <use xlink:href="#h" transform="matrix(1,0,0,1,-1708,195.5161116111611) translate(0 16.879027902790277)"/>
        <use xlink:href="#i" transform="matrix(1,0,0,1,-1708,195.5161116111611) translate(30.389738973897398 16.879027902790277)"/>
        <use xlink:href="#h" transform="matrix(1,0,0,1,-1708,320) translate(0 16.879027902790277)"/>
        <use xlink:href="#j" transform="matrix(1,0,0,1,-1708,320) translate(30.389738973897398 16.879027902790277)"/>
        <use xlink:href="#k" transform="matrix(1,0,0,1,-1708,320) translate(65.57785778577859 16.879027902790277)"/>
        <use xlink:href="#l" transform="matrix(1,0,0,1,-1708,320) translate(89.56975697569759 16.879027902790277)"/>
        <path d="M-1619 240.03h124v39.88h-106.5M-1618.97 240.03h-1.03" stroke="#4881b3" stroke-width="2" fill="none"/>
        <path d="M-1616.76 279.9l14.26-4.63v9.27z" stroke="#4881b3" stroke-width="2" fill="#4881b3"/>
        <use xlink:href="#m" transform="matrix(1,0,0,1,-1487,242.69553106810676) translate(0 11.516111611161117)"/>
        <use xlink:href="#n" transform="matrix(1,0,0,1,-1487,242.69553106810676) translate(43.105445544554456 11.516111611161117)"/>
        <use xlink:href="#o" transform="matrix(1,0,0,1,-1487,242.69553106810676) translate(97.44709720972098 11.516111611161117)"/>
        <use xlink:href="#p" transform="matrix(1,0,0,1,-1487,242.69553106810676) translate(0 28.79027902790279)"/>
        <use xlink:href="#q" transform="matrix(1,0,0,1,-1487,242.69553106810676) translate(23.112196219621968 28.79027902790279)"/>
        <path d="M-1619 359.67h323M-1618.97 359.67h-1.03" stroke="#4881b3" stroke-width="2" fill="none"/>
        <path d="M-1280.73 359.67l-14.26 4.63v-9.27z" stroke="#4881b3" stroke-width="2" fill="#4881b3"/>
        <use xlink:href="#r" transform="matrix(1,0,0,1,-1536.5553510351035,338.3925159165915) translate(0 11.516111611161117)"/>
        <use xlink:href="#s" transform="matrix(1,0,0,1,-1536.5553510351035,338.3925159165915) translate(24.75164266426643 11.516111611161117)"/>
        <use xlink:href="#t" transform="matrix(1,0,0,1,-1536.5553510351035,338.3925159165915) translate(62.2589783978398 11.516111611161117)"/>
        <use xlink:href="#u" transform="matrix(1,0,0,1,-1536.5553510351035,338.3925159165915) translate(79.77306480648066 11.516111611161117)"/>
        <path d="M-1619 399.55h124v39.87h-106.5M-1618.97 399.55h-1.03" stroke="#4881b3" stroke-width="2" fill="none"/>
        <path d="M-1616.76 439.42l14.26-4.63v9.26z" stroke="#4881b3" stroke-width="2" fill="#4881b3"/>
        <g>
            <use xlink:href="#v" transform="matrix(1,0,0,1,-1487,410.8477905340531) translate(0 11.516111611161117)"/>
            <use xlink:href="#w" transform="matrix(1,0,0,1,-1487,410.8477905340531) translate(27.110846084608465 11.516111611161117)"/>
            <use xlink:href="#x" transform="matrix(1,0,0,1,-1487,410.8477905340531) translate(106.88391089108914 11.516111611161117)"/>
        </g>
        <path d="M-1619 519.18h323M-1618.97 519.18h-1.03" stroke="#4881b3" stroke-width="2" fill="none"/>
        <path d="M-1280.73 519.18l-14.26 4.64v-9.27z" stroke="#4881b3" stroke-width="2" fill="#4881b3"/>
        <g>
            <use xlink:href="#r" transform="matrix(1,0,0,1,-1528.5380580558055,480.6335242574254) translate(0 11.516111611161117)"/>
            <use xlink:href="#s" transform="matrix(1,0,0,1,-1528.5380580558055,480.6335242574254) translate(24.75164266426643 11.516111611161117)"/>
            <use xlink:href="#t" transform="matrix(1,0,0,1,-1528.5380580558055,480.6335242574254) translate(62.2589783978398 11.516111611161117)"/>
            <use xlink:href="#y" transform="matrix(1,0,0,1,-1528.5380580558055,480.6335242574254) translate(79.77306480648066 11.516111611161117)"/>
            <use xlink:href="#z" transform="matrix(1,0,0,1,-1528.5380580558055,480.6335242574254) translate(0 28.79027902790279)"/>
            <use xlink:href="#A" transform="matrix(1,0,0,1,-1528.5380580558055,480.6335242574254) translate(29.510036003600362 28.79027902790279)"/>
            <use xlink:href="#B" transform="matrix(1,0,0,1,-1528.5380580558055,480.6335242574254) translate(65.49788478847886 28.79027902790279)"/>
        </g>
        <defs>
            <path fill="#1D262B" d="M30-248c87 1 191-15 191 75 0 78-77 80-158 76V0H30v-248zm33 125c57 0 124 11 124-50 0-59-68-47-124-48v98" id="C"/>
            <path fill="#1D262B" d="M114-163C36-179 61-72 57 0H25l-1-190h30c1 12-1 29 2 39 6-27 23-49 58-41v29" id="D"/>
            <path fill="#1D262B" d="M100-194c62-1 85 37 85 99 1 63-27 99-86 99S16-35 15-95c0-66 28-99 85-99zM99-20c44 1 53-31 53-75 0-43-8-75-51-75s-53 32-53 75 10 74 51 75" id="E"/>
            <path fill="#1D262B" d="M85-194c31 0 48 13 60 33l-1-100h32l1 261h-30c-2-10 0-23-3-31C134-8 116 4 85 4 32 4 16-35 15-94c0-66 23-100 70-100zm9 24c-40 0-46 34-46 75 0 40 6 74 45 74 42 0 51-32 51-76 0-42-9-74-50-73" id="F"/>
            <path fill="#1D262B" d="M84 4C-5 8 30-112 23-190h32v120c0 31 7 50 39 49 72-2 45-101 50-169h31l1 190h-30c-1-10 1-25-2-33-11 22-28 36-60 37" id="G"/>
            <path fill="#1D262B" d="M96-169c-40 0-48 33-48 73s9 75 48 75c24 0 41-14 43-38l32 2c-6 37-31 61-74 61-59 0-76-41-82-99-10-93 101-131 147-64 4 7 5 14 7 22l-32 3c-4-21-16-35-41-35" id="H"/>
            <path fill="#1D262B" d="M100-194c63 0 86 42 84 106H49c0 40 14 67 53 68 26 1 43-12 49-29l28 8c-11 28-37 45-77 45C44 4 14-33 15-96c1-61 26-98 85-98zm52 81c6-60-76-77-97-28-3 7-6 17-6 28h103" id="I"/>
            <g id="a">
                <use transform="matrix(0.05,0,0,0.05,0,0)" xlink:href="#C"/>
                <use transform="matrix(0.05,0,0,0.05,12,0)" xlink:href="#D"/>
                <use transform="matrix(0.05,0,0,0.05,17.95,0)" xlink:href="#E"/>
                <use transform="matrix(0.05,0,0,0.05,27.950000000000003,0)" xlink:href="#F"/>
                <use transform="matrix(0.05,0,0,0.05,37.95,0)" xlink:href="#G"/>
                <use transform="matrix(0.05,0,0,0.05,47.95,0)" xlink:href="#H"/>
                <use transform="matrix(0.05,0,0,0.05,56.95,0)" xlink:href="#I"/>
                <use transform="matrix(0.05,0,0,0.05,66.95,0)" xlink:href="#D"/>
            </g>
            <path fill="#1D262B" d="M212-179c-10-28-35-45-73-45-59 0-87 40-87 99 0 60 29 101 89 101 43 0 62-24 78-52l27 14C228-24 195 4 139 4 59 4 22-46 18-125c-6-104 99-153 187-111 19 9 31 26 39 46" id="J"/>
            <path fill="#1D262B" d="M117-194c89-4 53 116 60 194h-32v-121c0-31-8-49-39-48C34-167 62-67 57 0H25l-1-190h30c1 10-1 24 2 32 11-22 29-35 61-36" id="K"/>
            <path fill="#1D262B" d="M135-143c-3-34-86-38-87 0 15 53 115 12 119 90S17 21 10-45l28-5c4 36 97 45 98 0-10-56-113-15-118-90-4-57 82-63 122-42 12 7 21 19 24 35" id="L"/>
            <path fill="#1D262B" d="M210-169c-67 3-38 105-44 169h-31v-121c0-29-5-50-35-48C34-165 62-65 56 0H25l-1-190h30c1 10-1 24 2 32 10-44 99-50 107 0 11-21 27-35 58-36 85-2 47 119 55 194h-31v-121c0-29-5-49-35-48" id="M"/>
            <g id="b">
                <use transform="matrix(0.05,0,0,0.05,0,0)" xlink:href="#J"/>
                <use transform="matrix(0.05,0,0,0.05,12.950000000000001,0)" xlink:href="#E"/>
                <use transform="matrix(0.05,0,0,0.05,22.950000000000003,0)" xlink:href="#K"/>
                <use transform="matrix(0.05,0,0,0.05,32.95,0)" xlink:href="#L"/>
                <use transform="matrix(0.05,0,0,0.05,41.95,0)" xlink:href="#G"/>
                <use transform="matrix(0.05,0,0,0.05,51.95,0)" xlink:href="#M"/>
                <use transform="matrix(0.05,0,0,0.05,66.9,0)" xlink:href="#I"/>
                <use transform="matrix(0.05,0,0,0.05,76.9,0)" xlink:href="#D"/>
            </g>
            <path fill="#1D262B" d="M24-231v-30h32v30H24zM24 0v-190h32V0H24" id="N"/>
            <path fill="#1D262B" d="M59-47c-2 24 18 29 38 22v24C64 9 27 4 27-40v-127H5v-23h24l9-43h21v43h35v23H59v120" id="O"/>
            <g id="c">
                <use transform="matrix(0.05,0,0,0.05,0,0)" xlink:href="#C"/>
                <use transform="matrix(0.05,0,0,0.05,12,0)" xlink:href="#I"/>
                <use transform="matrix(0.05,0,0,0.05,22,0)" xlink:href="#D"/>
                <use transform="matrix(0.05,0,0,0.05,27.950000000000003,0)" xlink:href="#L"/>
                <use transform="matrix(0.05,0,0,0.05,36.95,0)" xlink:href="#N"/>
                <use transform="matrix(0.05,0,0,0.05,40.900000000000006,0)" xlink:href="#L"/>
                <use transform="matrix(0.05,0,0,0.05,49.900000000000006,0)" xlink:href="#O"/>
                <use transform="matrix(0.05,0,0,0.05,54.900000000000006,0)" xlink:href="#I"/>
                <use transform="matrix(0.05,0,0,0.05,64.9,0)" xlink:href="#K"/>
                <use transform="matrix(0.05,0,0,0.05,74.9,0)" xlink:href="#H"/>
                <use transform="matrix(0.05,0,0,0.05,83.9,0)" xlink:href="#I"/>
            </g>
            <path fill="#1D262B" d="M-4 44V30h207v14H-4" id="P"/>
            <path fill="#1D262B" d="M195-6C206 82 75 100 31 46c-4-6-6-13-8-21l49-6c3 16 16 24 34 25 40 0 42-37 40-79-11 22-30 35-61 35-53 0-70-43-70-97 0-56 18-96 73-97 30 0 46 14 59 34l2-30h47zm-90-29c32 0 41-27 41-63 0-35-9-62-40-62-32 0-39 29-40 63 0 36 9 62 39 62" id="Q"/>
            <path fill="#1D262B" d="M185-48c-13 30-37 53-82 52C43 2 14-33 14-96s30-98 90-98c62 0 83 45 84 108H66c0 31 8 55 39 56 18 0 30-7 34-22zm-45-69c5-46-57-63-70-21-2 6-4 13-4 21h74" id="R"/>
            <path fill="#1D262B" d="M135-194c87-1 58 113 63 194h-50c-7-57 23-157-34-157-59 0-34 97-39 157H25l-1-190h47c2 12-1 28 3 38 12-26 28-41 61-42" id="S"/>
            <path fill="#1D262B" d="M135-150c-39-12-60 13-60 57V0H25l-1-190h47c2 13-1 29 3 40 6-28 27-53 61-41v41" id="T"/>
            <path fill="#1D262B" d="M133-34C117-15 103 5 69 4 32 3 11-16 11-54c-1-60 55-63 116-61 1-26-3-47-28-47-18 1-26 9-28 27l-52-2c7-38 36-58 82-57s74 22 75 68l1 82c-1 14 12 18 25 15v27c-30 8-71 5-69-32zm-48 3c29 0 43-24 42-57-32 0-66-3-65 30 0 17 8 27 23 27" id="U"/>
            <path fill="#1D262B" d="M115-3C79 11 28 4 28-45v-112H4v-33h27l15-45h31v45h36v33H77v99c-1 23 16 31 38 25v30" id="V"/>
            <path fill="#1D262B" d="M25-224v-37h50v37H25zM25 0v-190h50V0H25" id="W"/>
            <path fill="#1D262B" d="M88-194c31-1 46 15 58 34l-1-101h50l1 261h-48c-2-10 0-23-3-31C134-8 116 4 84 4 32 4 16-41 15-95c0-56 19-97 73-99zm17 164c33 0 40-30 41-66 1-37-9-64-41-64s-38 30-39 65c0 43 13 65 39 65" id="X"/>
            <path fill="#1D262B" d="M220-157c-53 9-28 100-34 157h-49v-107c1-27-5-49-29-50C55-147 81-57 75 0H25l-1-190h47c2 12-1 28 3 38 10-53 101-56 108 0 13-22 24-43 59-42 82 1 51 116 57 194h-49v-107c-1-25-5-48-29-50" id="Y"/>
            <path fill="#1D262B" d="M135-194c53 0 70 44 70 98 0 56-19 98-73 100-31 1-45-17-59-34 3 33 2 69 2 105H25l-1-265h48c2 10 0 23 3 31 11-24 29-35 60-35zM114-30c33 0 39-31 40-66 0-38-9-64-40-64-56 0-55 130 0 130" id="Z"/>
            <path fill="#1D262B" d="M110-194c64 0 96 36 96 99 0 64-35 99-97 99-61 0-95-36-95-99 0-62 34-99 96-99zm-1 164c35 0 45-28 45-65 0-40-10-65-43-65-34 0-45 26-45 65 0 36 10 65 43 65" id="aa"/>
            <path fill="#1D262B" d="M190-63c-7 42-38 67-86 67-59 0-84-38-90-98-12-110 154-137 174-36l-49 2c-2-19-15-32-35-32-30 0-35 28-38 64-6 74 65 87 74 30" id="ab"/>
            <path fill="#1D262B" d="M123 10C108 53 80 86 19 72V37c35 8 53-11 59-39L3-190h52l48 148c12-52 28-100 44-148h51" id="ac"/>
            <path fill="#1D262B" d="M147 0L96-86 75-71V0H25v-261h50v150l67-79h53l-66 74L201 0h-54" id="ad"/>
            <g id="d">
                <use transform="matrix(0.03998649864986499,0,0,0.03998649864986499,0,0)" xlink:href="#P"/>
                <use transform="matrix(0.03998649864986499,0,0,0.03998649864986499,7.997299729972998,0)" xlink:href="#Q"/>
                <use transform="matrix(0.03998649864986499,0,0,0.03998649864986499,16.75434293429343,0)" xlink:href="#R"/>
                <use transform="matrix(0.03998649864986499,0,0,0.03998649864986499,24.75164266426643,0)" xlink:href="#S"/>
                <use transform="matrix(0.03998649864986499,0,0,0.03998649864986499,33.50868586858686,0)" xlink:href="#R"/>
                <use transform="matrix(0.03998649864986499,0,0,0.03998649864986499,41.50598559855986,0)" xlink:href="#T"/>
                <use transform="matrix(0.03998649864986499,0,0,0.03998649864986499,47.10409540954096,0)" xlink:href="#U"/>
                <use transform="matrix(0.03998649864986499,0,0,0.03998649864986499,55.101395139513954,0)" xlink:href="#V"/>
                <use transform="matrix(0.03998649864986499,0,0,0.03998649864986499,59.859788478847896,0)" xlink:href="#R"/>
                <use transform="matrix(0.03998649864986499,0,0,0.03998649864986499,67.8570882088209,0)" xlink:href="#P"/>
                <use transform="matrix(0.03998649864986499,0,0,0.03998649864986499,75.85438793879389,0)" xlink:href="#W"/>
                <use transform="matrix(0.03998649864986499,0,0,0.03998649864986499,79.8530378037804,0)" xlink:href="#X"/>
                <use transform="matrix(0.03998649864986499,0,0,0.03998649864986499,88.61008100810082,0)" xlink:href="#R"/>
                <use transform="matrix(0.03998649864986499,0,0,0.03998649864986499,96.60738073807381,0)" xlink:href="#Y"/>
                <use transform="matrix(0.03998649864986499,0,0,0.03998649864986499,109.40306030603061,0)" xlink:href="#Z"/>
                <use transform="matrix(0.03998649864986499,0,0,0.03998649864986499,118.16010351035104,0)" xlink:href="#aa"/>
                <use transform="matrix(0.03998649864986499,0,0,0.03998649864986499,126.91714671467147,0)" xlink:href="#V"/>
                <use transform="matrix(0.03998649864986499,0,0,0.03998649864986499,131.6755400540054,0)" xlink:href="#R"/>
                <use transform="matrix(0.03998649864986499,0,0,0.03998649864986499,139.67283978397842,0)" xlink:href="#S"/>
                <use transform="matrix(0.03998649864986499,0,0,0.03998649864986499,148.42988298829886,0)" xlink:href="#ab"/>
                <use transform="matrix(0.03998649864986499,0,0,0.03998649864986499,156.42718271827187,0)" xlink:href="#ac"/>
                <use transform="matrix(0.03998649864986499,0,0,0.03998649864986499,164.42448244824487,0)" xlink:href="#P"/>
                <use transform="matrix(0.03998649864986499,0,0,0.03998649864986499,172.42178217821788,0)" xlink:href="#ad"/>
                <use transform="matrix(0.03998649864986499,0,0,0.03998649864986499,180.41908190819086,0)" xlink:href="#R"/>
                <use transform="matrix(0.03998649864986499,0,0,0.03998649864986499,188.4163816381639,0)" xlink:href="#ac"/>
            </g>
            <path fill="#1D262B" d="M85 4C-2 5 27-109 22-190h50c7 57-23 150 33 157 60-5 35-97 40-157h50l1 190h-47c-2-12 1-28-3-38-12 25-28 42-61 42" id="ae"/>
            <path fill="#1D262B" d="M135-194c52 0 70 43 70 98 0 56-19 99-73 100-30 1-46-15-58-35L72 0H24l1-261h50v104c11-23 29-37 60-37zM114-30c31 0 40-27 40-66 0-37-7-63-39-63s-41 28-41 65c0 36 8 64 40 64" id="af"/>
            <path fill="#1D262B" d="M25 0v-261h50V0H25" id="ag"/>
            <path fill="#1D262B" d="M137-138c1-29-70-34-71-4 15 46 118 7 119 86 1 83-164 76-172 9l43-7c4 19 20 25 44 25 33 8 57-30 24-41C81-84 22-81 20-136c-2-80 154-74 161-7" id="ah"/>
            <path fill="#1D262B" d="M114-157C55-157 80-60 75 0H25v-261h50l-1 109c12-26 28-41 61-42 86-1 58 113 63 194h-50c-7-57 23-157-34-157" id="ai"/>
            <path fill="#1D262B" d="M128 0H69L1-190h53L99-40l48-150h52" id="aj"/>
            <g id="e">
                <use transform="matrix(0.03998649864986499,0,0,0.03998649864986499,0,0)" xlink:href="#Z"/>
                <use transform="matrix(0.03998649864986499,0,0,0.03998649864986499,8.757043204320432,0)" xlink:href="#ae"/>
                <use transform="matrix(0.03998649864986499,0,0,0.03998649864986499,17.514086408640864,0)" xlink:href="#af"/>
                <use transform="matrix(0.03998649864986499,0,0,0.03998649864986499,26.271129612961293,0)" xlink:href="#ag"/>
                <use transform="matrix(0.03998649864986499,0,0,0.03998649864986499,30.269779477947797,0)" xlink:href="#W"/>
                <use transform="matrix(0.03998649864986499,0,0,0.03998649864986499,34.2684293429343,0)" xlink:href="#ah"/>
                <use transform="matrix(0.03998649864986499,0,0,0.03998649864986499,42.2657290729073,0)" xlink:href="#ai"/>
                <use transform="matrix(0.03998649864986499,0,0,0.03998649864986499,51.02277227722773,0)" xlink:href="#P"/>
                <use transform="matrix(0.03998649864986499,0,0,0.03998649864986499,59.02007200720074,0)" xlink:href="#R"/>
                <use transform="matrix(0.03998649864986499,0,0,0.03998649864986499,67.01737173717373,0)" xlink:href="#aj"/>
                <use transform="matrix(0.03998649864986499,0,0,0.03998649864986499,75.01467146714673,0)" xlink:href="#R"/>
                <use transform="matrix(0.03998649864986499,0,0,0.03998649864986499,83.01197119711972,0)" xlink:href="#S"/>
                <use transform="matrix(0.03998649864986499,0,0,0.03998649864986499,91.76901440144016,0)" xlink:href="#V"/>
            </g>
            <path fill="#1D262B" d="M67-93c0 74 22 123 53 168H70C40 30 18-18 18-93s22-123 52-168h50c-32 44-53 94-53 168" id="ak"/>
            <path fill="#1D262B" d="M102-93c0 74-22 123-52 168H0C30 29 54-18 53-93c0-74-22-123-53-168h50c30 45 52 94 52 168" id="al"/>
            <g id="f">
                <use transform="matrix(0.03998649864986499,0,0,0.03998649864986499,0,0)" xlink:href="#Q"/>
                <use transform="matrix(0.03998649864986499,0,0,0.03998649864986499,8.757043204320432,0)" xlink:href="#R"/>
                <use transform="matrix(0.03998649864986499,0,0,0.03998649864986499,16.75434293429343,0)" xlink:href="#V"/>
                <use transform="matrix(0.03998649864986499,0,0,0.03998649864986499,21.512736273627365,0)" xlink:href="#P"/>
                <use transform="matrix(0.03998649864986499,0,0,0.03998649864986499,29.510036003600362,0)" xlink:href="#ah"/>
                <use transform="matrix(0.03998649864986499,0,0,0.03998649864986499,37.50733573357336,0)" xlink:href="#V"/>
                <use transform="matrix(0.03998649864986499,0,0,0.03998649864986499,42.2657290729073,0)" xlink:href="#U"/>
                <use transform="matrix(0.03998649864986499,0,0,0.03998649864986499,50.2630288028803,0)" xlink:href="#V"/>
                <use transform="matrix(0.03998649864986499,0,0,0.03998649864986499,55.021422142214234,0)" xlink:href="#R"/>
                <use transform="matrix(0.03998649864986499,0,0,0.03998649864986499,63.018721872187236,0)" xlink:href="#ak"/>
                <use transform="matrix(0.03998649864986499,0,0,0.03998649864986499,67.77711521152116,0)" xlink:href="#W"/>
                <use transform="matrix(0.03998649864986499,0,0,0.03998649864986499,71.77576507650767,0)" xlink:href="#V"/>
                <use transform="matrix(0.03998649864986499,0,0,0.03998649864986499,76.5341584158416,0)" xlink:href="#R"/>
                <use transform="matrix(0.03998649864986499,0,0,0.03998649864986499,84.5314581458146,0)" xlink:href="#Y"/>
                <use transform="matrix(0.03998649864986499,0,0,0.03998649864986499,97.32713771377139,0)" xlink:href="#Z"/>
                <use transform="matrix(0.03998649864986499,0,0,0.03998649864986499,106.08418091809182,0)" xlink:href="#aa"/>
                <use transform="matrix(0.03998649864986499,0,0,0.03998649864986499,114.84122412241226,0)" xlink:href="#V"/>
                <use transform="matrix(0.03998649864986499,0,0,0.03998649864986499,119.59961746174619,0)" xlink:href="#R"/>
                <use transform="matrix(0.03998649864986499,0,0,0.03998649864986499,127.59691719171919,0)" xlink:href="#S"/>
                <use transform="matrix(0.03998649864986499,0,0,0.03998649864986499,136.3539603960396,0)" xlink:href="#ab"/>
                <use transform="matrix(0.03998649864986499,0,0,0.03998649864986499,144.35126012601262,0)" xlink:href="#ac"/>
                <use transform="matrix(0.03998649864986499,0,0,0.03998649864986499,152.34855985598563,0)" xlink:href="#P"/>
                <use transform="matrix(0.03998649864986499,0,0,0.03998649864986499,160.34585958595864,0)" xlink:href="#ad"/>
                <use transform="matrix(0.03998649864986499,0,0,0.03998649864986499,168.34315931593164,0)" xlink:href="#R"/>
                <use transform="matrix(0.03998649864986499,0,0,0.03998649864986499,176.34045904590465,0)" xlink:href="#ac"/>
                <use transform="matrix(0.03998649864986499,0,0,0.03998649864986499,184.33775877587763,0)" xlink:href="#al"/>
            </g>
            <path fill="#1D262B" d="M205 0l-28-72H64L36 0H1l101-248h38L239 0h-34zm-38-99l-47-123c-12 45-31 82-46 123h93" id="am"/>
            <path fill="#1D262B" d="M24 0v-261h32V0H24" id="an"/>
            <path fill="#1D262B" d="M141-36C126-15 110 5 73 4 37 3 15-17 15-53c-1-64 63-63 125-63 3-35-9-54-41-54-24 1-41 7-42 31l-33-3c5-37 33-52 76-52 45 0 72 20 72 64v82c-1 20 7 32 28 27v20c-31 9-61-2-59-35zM48-53c0 20 12 33 32 33 41-3 63-29 60-74-43 2-92-5-92 41" id="ao"/>
            <path fill="#1D262B" d="M108 0H70L1-190h34L89-25l56-165h34" id="ap"/>
            <g id="g">
                <use transform="matrix(0.03998649864986499,0,0,0.03998649864986499,0,0)" xlink:href="#am"/>
                <use transform="matrix(0.03998649864986499,0,0,0.03998649864986499,9.596759675967597,0)" xlink:href="#an"/>
                <use transform="matrix(0.03998649864986499,0,0,0.03998649864986499,12.755693069306929,0)" xlink:href="#O"/>
                <use transform="matrix(0.03998649864986499,0,0,0.03998649864986499,16.75434293429343,0)" xlink:href="#I"/>
                <use transform="matrix(0.03998649864986499,0,0,0.03998649864986499,24.75164266426643,0)" xlink:href="#D"/>
                <use transform="matrix(0.03998649864986499,0,0,0.03998649864986499,29.510036003600362,0)" xlink:href="#K"/>
                <use transform="matrix(0.03998649864986499,0,0,0.03998649864986499,37.50733573357336,0)" xlink:href="#ao"/>
                <use transform="matrix(0.03998649864986499,0,0,0.03998649864986499,45.50463546354637,0)" xlink:href="#O"/>
                <use transform="matrix(0.03998649864986499,0,0,0.03998649864986499,49.50328532853286,0)" xlink:href="#N"/>
                <use transform="matrix(0.03998649864986499,0,0,0.03998649864986499,52.66221872187219,0)" xlink:href="#ap"/>
                <use transform="matrix(0.03998649864986499,0,0,0.03998649864986499,59.85978847884789,0)" xlink:href="#I"/>
            </g>
            <path fill="#1D262B" d="M26 75v-336h71v23H56V52h41v23H26" id="aq"/>
            <path fill="#1D262B" d="M143 0L79-87 56-68V0H24v-261h32v163l83-92h37l-77 82L181 0h-38" id="ar"/>
            <path fill="#1D262B" d="M179-190L93 31C79 59 56 82 12 73V49c39 6 53-20 64-50L1-190h34L92-34l54-156h33" id="as"/>
            <g id="h">
                <use transform="matrix(0.03998649864986499,0,0,0.03998649864986499,0,0)" xlink:href="#aq"/>
                <use transform="matrix(0.03998649864986499,0,0,0.03998649864986499,3.998649864986499,0)" xlink:href="#ar"/>
                <use transform="matrix(0.03998649864986499,0,0,0.03998649864986499,11.196219621962197,0)" xlink:href="#I"/>
                <use transform="matrix(0.03998649864986499,0,0,0.03998649864986499,19.193519351935198,0)" xlink:href="#as"/>
            </g>
            <path fill="#1D262B" d="M141 0L90-78 38 0H4l68-98-65-92h35l48 74 47-74h35l-64 92 68 98h-35" id="at"/>
            <path fill="#1D262B" d="M3 75V52h41v-290H3v-23h71V75H3" id="au"/>
            <g id="i">
                <use transform="matrix(0.03998649864986499,0,0,0.03998649864986499,0,0)" xlink:href="#I"/>
                <use transform="matrix(0.03998649864986499,0,0,0.03998649864986499,7.997299729972998,0)" xlink:href="#at"/>
                <use transform="matrix(0.03998649864986499,0,0,0.03998649864986499,15.194869486948697,0)" xlink:href="#N"/>
                <use transform="matrix(0.03998649864986499,0,0,0.03998649864986499,18.353802880288033,0)" xlink:href="#L"/>
                <use transform="matrix(0.03998649864986499,0,0,0.03998649864986499,25.551372637263732,0)" xlink:href="#O"/>
                <use transform="matrix(0.03998649864986499,0,0,0.03998649864986499,29.550022502250233,0)" xlink:href="#L"/>
                <use transform="matrix(0.03998649864986499,0,0,0.03998649864986499,36.74759225922593,0)" xlink:href="#au"/>
            </g>
            <g id="j">
                <use transform="matrix(0.03998649864986499,0,0,0.03998649864986499,0,0)" xlink:href="#F"/>
                <use transform="matrix(0.03998649864986499,0,0,0.03998649864986499,7.997299729972998,0)" xlink:href="#E"/>
                <use transform="matrix(0.03998649864986499,0,0,0.03998649864986499,15.994599459945997,0)" xlink:href="#I"/>
                <use transform="matrix(0.03998649864986499,0,0,0.03998649864986499,23.991899189918993,0)" xlink:href="#L"/>
            </g>
            <g id="k">
                <use transform="matrix(0.03998649864986499,0,0,0.03998649864986499,0,0)" xlink:href="#K"/>
                <use transform="matrix(0.03998649864986499,0,0,0.03998649864986499,7.997299729972998,0)" xlink:href="#E"/>
                <use transform="matrix(0.03998649864986499,0,0,0.03998649864986499,15.994599459945997,0)" xlink:href="#O"/>
            </g>
            <g id="l">
                <use transform="matrix(0.03998649864986499,0,0,0.03998649864986499,0,0)" xlink:href="#I"/>
                <use transform="matrix(0.03998649864986499,0,0,0.03998649864986499,7.997299729972998,0)" xlink:href="#at"/>
                <use transform="matrix(0.03998649864986499,0,0,0.03998649864986499,15.194869486948697,0)" xlink:href="#N"/>
                <use transform="matrix(0.03998649864986499,0,0,0.03998649864986499,18.353802880288033,0)" xlink:href="#L"/>
                <use transform="matrix(0.03998649864986499,0,0,0.03998649864986499,25.551372637263732,0)" xlink:href="#O"/>
                <use transform="matrix(0.03998649864986499,0,0,0.03998649864986499,29.550022502250233,0)" xlink:href="#au"/>
            </g>
            <path fill="#1D262B" d="M24 0v-248h195v40H76v63h132v40H76v65h150V0H24" id="av"/>
            <g id="m">
                <use transform="matrix(0.03998649864986499,0,0,0.03998649864986499,0,0)" xlink:href="#av"/>
                <use transform="matrix(0.03998649864986499,0,0,0.03998649864986499,9.596759675967597,0)" xlink:href="#aj"/>
                <use transform="matrix(0.03998649864986499,0,0,0.03998649864986499,17.594059405940595,0)" xlink:href="#R"/>
                <use transform="matrix(0.03998649864986499,0,0,0.03998649864986499,25.591359135913592,0)" xlink:href="#S"/>
                <use transform="matrix(0.03998649864986499,0,0,0.03998649864986499,34.348402340234024,0)" xlink:href="#V"/>
            </g>
            <g id="n">
                <use transform="matrix(0.03998649864986499,0,0,0.03998649864986499,0,0)" xlink:href="#U"/>
                <use transform="matrix(0.03998649864986499,0,0,0.03998649864986499,7.997299729972998,0)" xlink:href="#ag"/>
                <use transform="matrix(0.03998649864986499,0,0,0.03998649864986499,11.995949594959496,0)" xlink:href="#T"/>
                <use transform="matrix(0.03998649864986499,0,0,0.03998649864986499,17.594059405940598,0)" xlink:href="#R"/>
                <use transform="matrix(0.03998649864986499,0,0,0.03998649864986499,25.591359135913592,0)" xlink:href="#U"/>
                <use transform="matrix(0.03998649864986499,0,0,0.03998649864986499,33.58865886588659,0)" xlink:href="#X"/>
                <use transform="matrix(0.03998649864986499,0,0,0.03998649864986499,42.345702070207025,0)" xlink:href="#ac"/>
            </g>
            <path fill="#1D262B" d="M24 0v-54h51V0H24" id="aw"/>
            <g id="o">
                <use transform="matrix(0.03998649864986499,0,0,0.03998649864986499,0,0)" xlink:href="#Z"/>
                <use transform="matrix(0.03998649864986499,0,0,0.03998649864986499,8.757043204320432,0)" xlink:href="#T"/>
                <use transform="matrix(0.03998649864986499,0,0,0.03998649864986499,14.355153015301529,0)" xlink:href="#aa"/>
                <use transform="matrix(0.03998649864986499,0,0,0.03998649864986499,23.112196219621964,0)" xlink:href="#ab"/>
                <use transform="matrix(0.03998649864986499,0,0,0.03998649864986499,31.10949594959496,0)" xlink:href="#R"/>
                <use transform="matrix(0.03998649864986499,0,0,0.03998649864986499,39.10679567956796,0)" xlink:href="#ah"/>
                <use transform="matrix(0.03998649864986499,0,0,0.03998649864986499,47.10409540954096,0)" xlink:href="#ah"/>
                <use transform="matrix(0.03998649864986499,0,0,0.03998649864986499,55.101395139513954,0)" xlink:href="#R"/>
                <use transform="matrix(0.03998649864986499,0,0,0.03998649864986499,63.09869486948696,0)" xlink:href="#X"/>
                <use transform="matrix(0.03998649864986499,0,0,0.03998649864986499,71.8557380738074,0)" xlink:href="#aw"/>
            </g>
            <path fill="#1D262B" d="M24-248c120-7 223 5 221 122C244-46 201 0 124 0H24v-248zM76-40c74 7 117-18 117-86 0-67-45-88-117-82v168" id="ax"/>
            <g id="p">
                <use transform="matrix(0.03998649864986499,0,0,0.03998649864986499,0,0)" xlink:href="#ax"/>
                <use transform="matrix(0.03998649864986499,0,0,0.03998649864986499,10.356503150315033,0)" xlink:href="#aa"/>
            </g>
            <g id="q">
                <use transform="matrix(0.03998649864986499,0,0,0.03998649864986499,0,0)" xlink:href="#S"/>
                <use transform="matrix(0.03998649864986499,0,0,0.03998649864986499,8.757043204320432,0)" xlink:href="#aa"/>
                <use transform="matrix(0.03998649864986499,0,0,0.03998649864986499,17.514086408640864,0)" xlink:href="#V"/>
                <use transform="matrix(0.03998649864986499,0,0,0.03998649864986499,22.2724797479748,0)" xlink:href="#ai"/>
                <use transform="matrix(0.03998649864986499,0,0,0.03998649864986499,31.02952295229523,0)" xlink:href="#W"/>
                <use transform="matrix(0.03998649864986499,0,0,0.03998649864986499,35.02817281728173,0)" xlink:href="#S"/>
                <use transform="matrix(0.03998649864986499,0,0,0.03998649864986499,43.78521602160217,0)" xlink:href="#Q"/>
                <use transform="matrix(0.03998649864986499,0,0,0.03998649864986499,52.542259225922585,0)" xlink:href="#aw"/>
            </g>
            <g id="r">
                <use transform="matrix(0.03998649864986499,0,0,0.03998649864986499,0,0)" xlink:href="#ah"/>
                <use transform="matrix(0.03998649864986499,0,0,0.03998649864986499,7.997299729972998,0)" xlink:href="#R"/>
                <use transform="matrix(0.03998649864986499,0,0,0.03998649864986499,15.994599459945997,0)" xlink:href="#V"/>
            </g>
            <g id="s">
                <use transform="matrix(0.03998649864986499,0,0,0.03998649864986499,0,0)" xlink:href="#ah"/>
                <use transform="matrix(0.03998649864986499,0,0,0.03998649864986499,7.997299729972998,0)" xlink:href="#V"/>
                <use transform="matrix(0.03998649864986499,0,0,0.03998649864986499,12.755693069306933,0)" xlink:href="#U"/>
                <use transform="matrix(0.03998649864986499,0,0,0.03998649864986499,20.75299279927993,0)" xlink:href="#V"/>
                <use transform="matrix(0.03998649864986499,0,0,0.03998649864986499,25.511386138613865,0)" xlink:href="#R"/>
            </g>
            <g id="t">
                <use transform="matrix(0.03998649864986499,0,0,0.03998649864986499,0,0)" xlink:href="#V"/>
                <use transform="matrix(0.03998649864986499,0,0,0.03998649864986499,4.758393339333934,0)" xlink:href="#aa"/>
            </g>
            <path fill="#1D262B" d="M24 0v-248h52V0H24" id="ay"/>
            <path fill="#1D262B" d="M175 0L67-191c6 58 2 128 3 191H24v-248h59L193-55c-6-58-2-129-3-193h46V0h-61" id="az"/>
            <path fill="#1D262B" d="M24-248c93 1 206-16 204 79-1 75-69 88-152 82V0H24v-248zm52 121c47 0 100 7 100-41 0-47-54-39-100-39v80" id="aA"/>
            <path fill="#1D262B" d="M240-174c0 40-23 61-54 70L253 0h-59l-57-94H76V0H24v-248c93 4 217-23 216 74zM76-134c48-2 112 12 112-38 0-48-66-32-112-35v73" id="aB"/>
            <path fill="#1D262B" d="M140-251c80 0 125 45 125 126S219 4 139 4C58 4 15-44 15-125s44-126 125-126zm-1 214c52 0 73-35 73-88 0-50-21-86-72-86-52 0-73 35-73 86s22 88 72 88" id="aC"/>
            <path fill="#1D262B" d="M67-125c0 54 23 88 75 88 28 0 53-7 68-21v-34h-60v-39h108v91C232-14 192 4 140 4 58 4 20-42 15-125 8-236 126-280 215-234c19 10 29 26 37 47l-47 15c-11-23-29-39-63-39-53 1-75 33-75 86" id="aD"/>
            <path fill="#1D262B" d="M169-182c-1-43-94-46-97-3 18 66 151 10 154 114 3 95-165 93-204 36-6-8-10-19-12-30l50-8c3 46 112 56 116 5-17-69-150-10-154-114-4-87 153-88 188-35 5 8 8 18 10 28" id="aE"/>
            <g id="u">
                <use transform="matrix(0.03998649864986499,0,0,0.03998649864986499,0,0)" xlink:href="#ay"/>
                <use transform="matrix(0.03998649864986499,0,0,0.03998649864986499,3.998649864986499,0)" xlink:href="#az"/>
                <use transform="matrix(0.03998649864986499,0,0,0.03998649864986499,14.355153015301532,0)" xlink:href="#aA"/>
                <use transform="matrix(0.03998649864986499,0,0,0.03998649864986499,23.95191269126913,0)" xlink:href="#aB"/>
                <use transform="matrix(0.03998649864986499,0,0,0.03998649864986499,34.308415841584164,0)" xlink:href="#aC"/>
                <use transform="matrix(0.03998649864986499,0,0,0.03998649864986499,45.50463546354637,0)" xlink:href="#aD"/>
                <use transform="matrix(0.03998649864986499,0,0,0.03998649864986499,56.700855085508564,0)" xlink:href="#aB"/>
                <use transform="matrix(0.03998649864986499,0,0,0.03998649864986499,67.0573582358236,0)" xlink:href="#av"/>
                <use transform="matrix(0.03998649864986499,0,0,0.03998649864986499,76.65411791179119,0)" xlink:href="#aE"/>
                <use transform="matrix(0.03998649864986499,0,0,0.03998649864986499,86.25087758775881,0)" xlink:href="#aE"/>
            </g>
            <g id="v">
                <use transform="matrix(0.03998649864986499,0,0,0.03998649864986499,0,0)" xlink:href="#T"/>
                <use transform="matrix(0.03998649864986499,0,0,0.03998649864986499,5.598109810981098,0)" xlink:href="#ae"/>
                <use transform="matrix(0.03998649864986499,0,0,0.03998649864986499,14.355153015301529,0)" xlink:href="#S"/>
            </g>
            <g id="w">
                <use transform="matrix(0.03998649864986499,0,0,0.03998649864986499,0,0)" xlink:href="#U"/>
                <use transform="matrix(0.03998649864986499,0,0,0.03998649864986499,7.997299729972998,0)" xlink:href="#Z"/>
                <use transform="matrix(0.03998649864986499,0,0,0.03998649864986499,16.75434293429343,0)" xlink:href="#Z"/>
                <use transform="matrix(0.03998649864986499,0,0,0.03998649864986499,25.511386138613858,0)" xlink:href="#ag"/>
                <use transform="matrix(0.03998649864986499,0,0,0.03998649864986499,29.510036003600362,0)" xlink:href="#W"/>
                <use transform="matrix(0.03998649864986499,0,0,0.03998649864986499,33.50868586858686,0)" xlink:href="#ab"/>
                <use transform="matrix(0.03998649864986499,0,0,0.03998649864986499,41.50598559855986,0)" xlink:href="#U"/>
                <use transform="matrix(0.03998649864986499,0,0,0.03998649864986499,49.50328532853286,0)" xlink:href="#V"/>
                <use transform="matrix(0.03998649864986499,0,0,0.03998649864986499,54.26167866786679,0)" xlink:href="#W"/>
                <use transform="matrix(0.03998649864986499,0,0,0.03998649864986499,58.26032853285329,0)" xlink:href="#aa"/>
                <use transform="matrix(0.03998649864986499,0,0,0.03998649864986499,67.01737173717373,0)" xlink:href="#S"/>
            </g>
            <g id="x">
                <use transform="matrix(0.03998649864986499,0,0,0.03998649864986499,0,0)" xlink:href="#ab"/>
                <use transform="matrix(0.03998649864986499,0,0,0.03998649864986499,7.997299729972998,0)" xlink:href="#aa"/>
                <use transform="matrix(0.03998649864986499,0,0,0.03998649864986499,16.75434293429343,0)" xlink:href="#X"/>
                <use transform="matrix(0.03998649864986499,0,0,0.03998649864986499,25.511386138613858,0)" xlink:href="#R"/>
            </g>
            <path fill="#1D262B" d="M67-125c0 53 21 87 73 88 37 1 54-22 65-47l45 17C233-25 199 4 140 4 58 4 20-42 15-125 8-235 124-281 211-232c18 10 29 29 36 50l-46 12c-8-25-30-41-62-41-52 0-71 34-72 86" id="aF"/>
            <path fill="#1D262B" d="M230 0l2-204L168 0h-37L68-204 70 0H24v-248h70l56 185 57-185h69V0h-46" id="aG"/>
            <path fill="#1D262B" d="M24 0v-248h52v208h133V0H24" id="aH"/>
            <path fill="#1D262B" d="M136-208V0H84v-208H4v-40h212v40h-80" id="aI"/>
            <g id="y">
                <use transform="matrix(0.03998649864986499,0,0,0.03998649864986499,0,0)" xlink:href="#aF"/>
                <use transform="matrix(0.03998649864986499,0,0,0.03998649864986499,10.356503150315033,0)" xlink:href="#aC"/>
                <use transform="matrix(0.03998649864986499,0,0,0.03998649864986499,21.552722772277228,0)" xlink:href="#aG"/>
                <use transform="matrix(0.03998649864986499,0,0,0.03998649864986499,33.50868586858686,0)" xlink:href="#aA"/>
                <use transform="matrix(0.03998649864986499,0,0,0.03998649864986499,43.105445544554456,0)" xlink:href="#aH"/>
                <use transform="matrix(0.03998649864986499,0,0,0.03998649864986499,51.862488748874895,0)" xlink:href="#av"/>
                <use transform="matrix(0.03998649864986499,0,0,0.03998649864986499,61.45924842484248,0)" xlink:href="#aI"/>
                <use transform="matrix(0.03998649864986499,0,0,0.03998649864986499,70.21629162916292,0)" xlink:href="#av"/>
            </g>
            <g id="z">
                <use transform="matrix(0.03998649864986499,0,0,0.03998649864986499,0,0)" xlink:href="#U"/>
                <use transform="matrix(0.03998649864986499,0,0,0.03998649864986499,7.997299729972998,0)" xlink:href="#S"/>
                <use transform="matrix(0.03998649864986499,0,0,0.03998649864986499,16.75434293429343,0)" xlink:href="#X"/>
            </g>
            <g id="A">
                <use transform="matrix(0.03998649864986499,0,0,0.03998649864986499,0,0)" xlink:href="#ah"/>
                <use transform="matrix(0.03998649864986499,0,0,0.03998649864986499,7.997299729972998,0)" xlink:href="#U"/>
                <use transform="matrix(0.03998649864986499,0,0,0.03998649864986499,15.994599459945997,0)" xlink:href="#aj"/>
                <use transform="matrix(0.03998649864986499,0,0,0.03998649864986499,23.991899189918993,0)" xlink:href="#R"/>
            </g>
            <g id="B">
                <use transform="matrix(0.03998649864986499,0,0,0.03998649864986499,0,0)" xlink:href="#T"/>
                <use transform="matrix(0.03998649864986499,0,0,0.03998649864986499,5.598109810981098,0)" xlink:href="#R"/>
                <use transform="matrix(0.03998649864986499,0,0,0.03998649864986499,13.595409540954098,0)" xlink:href="#ah"/>
                <use transform="matrix(0.03998649864986499,0,0,0.03998649864986499,21.592709270927095,0)" xlink:href="#ae"/>
                <use transform="matrix(0.03998649864986499,0,0,0.03998649864986499,30.349752475247527,0)" xlink:href="#ag"/>
                <use transform="matrix(0.03998649864986499,0,0,0.03998649864986499,34.348402340234024,0)" xlink:href="#V"/>
                <use transform="matrix(0.03998649864986499,0,0,0.03998649864986499,39.10679567956796,0)" xlink:href="#ah"/>
            </g>
        </defs>
    </g>
</svg>