<svg xmlns="http://www.w3.org/2000/svg"
    xmlns:xlink="http://www.w3.org/1999/xlink"
    xmlns:lucid="lucid" width="2836.91" height="2157.09">
    <g transform="translate(-3530.0790350641864 2332.069264219074)" lucid:page-tab-id="0_0">
        <path d="M3532.08-2246.74a12 12 0 0 1 12-12h2808.9a12 12 0 0 1 12 12v2057.76a12 12 0 0 1-12 12H3544.1a12 12 0 0 1-12-12z" stroke="#979ea8" stroke-width="4" fill="#fff"/>
        <path d="M3532.08-2320.07a12 12 0 0 1 12-12h312.4a12 12 0 0 1 12 12v37.33a12 12 0 0 1-12 12h-312.4a12 12 0 0 1-12-12z" fill="#979ea8"/>
        <use xlink:href="#a" transform="matrix(1,0,0,1,3544.0790350680054,-2316.469264219074) translate(0 25.22222222222222)"/>
        <use xlink:href="#b" transform="matrix(1,0,0,1,3544.0790350680054,-2316.469264219074) translate(212.33333333333337 25.22222222222222)"/>
        <path d="M3631.15-2029.74a6 6 0 0 1 6-6h160.98a6 6 0 0 1 6 6v78a6 6 0 0 1-6 6h-160.98a6 6 0 0 1-6-6z" fill="none"/>
        <use xlink:href="#c" transform="matrix(1,0,0,1,3636.153109142078,-2030.7359308857403) translate(0 53.833333333333336)"/>
        <use xlink:href="#d" transform="matrix(1,0,0,1,3636.153109142078,-2030.7359308857403) translate(125.92592592592594 53.833333333333336)"/>
        <path d="M3631.15-1507.74a6 6 0 0 1 6-6h160.98a6 6 0 0 1 6 6v78a6 6 0 0 1-6 6h-160.98a6 6 0 0 1-6-6z" fill="none"/>
        <use xlink:href="#e" transform="matrix(1,0,0,1,3636.153109142078,-1508.7359308857403) translate(0 53.833333333333336)"/>
        <use xlink:href="#d" transform="matrix(1,0,0,1,3636.153109142078,-1508.7359308857403) translate(125.92592592592594 53.833333333333336)"/>
        <path d="M3572.08-820.38a6 6 0 0 1 6-6h220.05a6 6 0 0 1 6 6v78a6 6 0 0 1-6 6h-220.05a6 6 0 0 1-6-6z" fill="none"/>
        <use xlink:href="#f" transform="matrix(1,0,0,1,3577.0790350680054,-821.3805162661437) translate(0 53.833333333333336)"/>
        <path d="M4066.8-1919.14c-68.94 0-124.8-20.4-124.8-45.6 0-20.14 33.78-37.14 86.22-43.36-3.03-59.24 204.97-70.64 288.17-47.84 41.6-34.2 249.6-22.8 249.6 11.4 124.8-11.4 249.6 34.2 166.4 91.2 83.2 45.6 0 102.6-166.4 79.8-41.6 29.64-208 29.64-249.6 0-83.2 22.8-249.6 11.4-249.6-45.6z" stroke="#3a414a" stroke-width="3" fill="#ffdda6"/>
        <use xlink:href="#g" transform="matrix(1,0,0,1,3983.586323982328,-2067.3359308857403) translate(141.14499999999998 140.98250000000002)"/>
        <use xlink:href="#h" transform="matrix(1,0,0,1,3983.586323982328,-2067.3359308857403) translate(328.185 140.98250000000002)"/>
        <path d="M4271.64-1414.52c-166.6 0-301.65-25.25-301.65-56.4 0-24.92 81.67-45.94 208.42-53.64-7.33-73.26 495.42-87.36 696.52-59.16 100.55-42.3 603.3-28.2 603.3 14.1 301.65-14.1 603.3 42.3 402.2 112.8 201.1 56.4 0 126.9-402.2 98.7-100.55 36.66-502.75 36.66-603.3 0-201.1 28.2-603.3 14.1-603.3-56.4z" stroke="#3a414a" stroke-width="3" fill="#dfe3e8"/>
        <use xlink:href="#i" transform="matrix(1,0,0,1,4070.536323982328,-1597.8215994879897) translate(823.345 167.35750000000002)"/>
        <path d="M5586.8-940.14c-68.94 0-124.8-20.4-124.8-45.6 0-20.14 33.78-37.14 86.22-43.36-3.03-59.24 204.97-70.64 288.17-47.84 41.6-34.2 249.6-22.8 249.6 11.4 124.8-11.4 249.6 34.2 166.4 91.2 83.2 45.6 0 102.6-166.4 79.8-41.6 29.64-208 29.64-249.6 0-83.2 22.8-249.6 11.4-249.6-45.6z" stroke="#3a414a" stroke-width="3" fill="#dfe3e8"/>
        <use xlink:href="#j" transform="matrix(1,0,0,1,5503.586323982328,-1088.3359308857403) translate(258.785 140.98250000000002)"/>
        <path d="M3952.9-562.85a6 6 0 0 1 6-6h382.65a6 6 0 0 1 6 6v78a6 6 0 0 1-6 6H3958.9a6 6 0 0 1-6-6z" fill="none"/>
        <use xlink:href="#k" transform="matrix(1,0,0,1,3957.9122499082587,-563.8459308857399) translate(0 53.833333333333336)"/>
        <use xlink:href="#l" transform="matrix(1,0,0,1,3957.9122499082587,-563.8459308857399) translate(240.18518518518522 53.833333333333336)"/>
        <path d="M5853.83-568.9a6 6 0 0 1 6-6h353.2a6 6 0 0 1 6 6v78a6 6 0 0 1-6 6h-353.2a6 6 0 0 1-6-6z" fill="none"/>
        <use xlink:href="#m" transform="matrix(1,0,0,1,5858.826436959763,-569.9138539929326) translate(0.8148148148147811 53.833333333333336)"/>
        <use xlink:href="#l" transform="matrix(1,0,0,1,5858.826436959763,-569.9138539929326) translate(211.55555555555554 53.833333333333336)"/>
        <path d="M3857.5-2210.34v86.6l.18 30.3.4 25.97.6 21.65.78 17.3.98 15.56 1.18 13.78 1.38 12 1.57 10.24.8 10.82v11.4l-.8 12.02-1.57 12.6-1.18 12.4-.8 12.2-.38 12v11.8l-.2 10.43-.4 9.05-.58 7.68-.8 6.3-.58 8.26-.4 10.24-.2 12.2v14.16l-.2 11.42-.38 8.66-.6 5.9-.78 3.15-.6 8.46-.38 13.8-.2 19.08v24.4l-.2 19.1-.4 13.76-.58 8.46-.8 3.15-.78 3.54-.78 3.93-.8 4.33-.78 4.72-.78 5.12-.8 5.5-.78 5.9-.8 6.3-.77 6.5-.8 6.7-.8 6.88-.77 7.1-.6 7.27-.4 7.48-.18 7.67v7.87l-.2 7.1-.4 6.3-.6 5.5-.77 4.72-.6 7.66-.4 10.63-.18 13.57v16.53l.2 14.17.4 11.8.58 9.45.78 7.1.6 13.76.4 20.47.18 27.15v33.85l.2 25.98.4 18.1.6 10.24.77 2.36.6 4.33.4 6.3.2 8.26v10.23l.2 9.25.38 8.27.6 7.28.78 6.3.6 6.5.38 6.68.2 6.9v7.07l.2 5.9.4 4.73.58 3.54.8 2.37.58 2.75.4 3.14.2 3.54v3.94l.2 3.54.38 3.15.6 2.76.78 2.36.6 5.12.38 7.87.2 10.64v13.38l.2 11.4.4 9.46.58 7.48.8 5.5.97 6.5 1.17 7.48 1.38 8.46 1.57 9.45 1.18 7.87.8 6.3.38 4.72v3.15l.2 2.94.4 2.76.6 2.56.77 2.36.6 3.34.4 4.33.18 5.3v6.3l.2 4.92.4 3.54.58 2.17.8.8.6 2.15.4 3.54.18 4.92v6.3l.4 5.7.78 5.12 1.18 4.53 1.58 3.92 1.18 3.94.8 3.94.38 3.93v3.94l.2 3.54.4 3.16.58 2.76.8 2.36.58 3.74.4 5.1.2 6.5v7.88l.18 6.3.4 4.72.6 3.15.78 1.57.6 2.36.38 3.15.2 3.94v4.7l.2 3.75.4 2.75.58 1.78.78.78.6 1.38.4 1.97.2 2.57v3.14l.18 2.97.4 2.75.6 2.56.77 2.36.58 2.76.4 3.15.2 3.54v3.92l.2 3.15.4 2.36.58 1.58.78.8.6 1.37.4 1.97.18 2.56v3.15l.2 2.75.4 2.36.58 1.97.8 1.58.58 3.15.4 4.73.2 6.3v7.87l.2 6.3.38 4.72.6 3.14.78 1.6.6 2.15.38 2.76.2 3.35v3.94l.2 3.34.4 2.75.58 2.16.8 1.57.58 2.95.4 4.33.2 5.72v17.7h13.76l9.45 1 13.37 1.96 17.32 2.95 21.24 3.94 20.27 3.15 19.3 2.36 18.3 1.57 17.32.8 15.54.58 13.78.4 12 .2h10.24l9.25.58 8.26 1.2 7.27 1.76 6.3 2.37 8.07 1.77 9.84 1.18 11.6.6h13.4l11.4-.2 9.45-.4 7.48-.6 5.52-.78 5.12-.8 4.72-.77 4.33-.8 3.92-.78 4.14-.6 4.32-.38 4.53-.2h4.73l4.73-.2 4.72-.4 4.72-.58 4.73-.8 18.1-.6 31.5-.38 44.86-.2h58.24l45.45-.2 32.66-.4 19.88-.58 7.08-.8 8.07-.58 9.04-.4 10.04-.2H4562l10.63-.38 10.23-.8 9.84-1.17 9.45-1.56 8.46-1.18 7.5-.8 6.48-.38h5.5l6.1.4 6.7.78 7.28 1.18 7.87 1.57 12 1.2 16.15.78 20.26.4h24.4l21.26-.2 18.1-.4 14.96-.6 11.8-.78 11.62-.58 11.4-.4 11.23-.2h11.03l8.46-.2 5.9-.4 3.34-.58.8-.78 2.15-.8 3.54-.78 4.92-.8 6.3-.77 7.08-.98 7.87-1.18 8.67-1.37 9.44-1.58 10.84-1.2 12.2-.78 13.58-.4h14.95l13.58-.58 12.2-1.18 10.83-1.77 9.44-2.37 9.06-1.97 8.65-1.58 8.27-1.18 7.87-.78 7.28-.6 6.7-.4 6.1-.2h5.5l5.9.2 6.3.4 6.7.6 7.08.78 7.48.6 7.88.4 8.27.18h8.65l7.28-.2 5.9-.4 4.53-.58 3.16-.78 3.94-.4h4.72l5.5.4 6.3.78 6.7 1 7.08 1.17 7.48 1.38 7.88 1.57 8.06 1.38 8.27 1.18 8.45.98 8.66.8 7.5.78 6.3.78 5.1.8 3.94.78 9.25.6 14.55.38 19.88.2h25.18l20.28-.2 15.35-.4 10.43-.58 5.5-.8 6.5-.58 7.5-.4 8.45-.2h9.45l7.88.2 6.3.4 4.72.6 3.14.78 7.27.6 11.42.38 15.54.2h19.68l16.52-.2 13.4-.4 10.22-.58 7.1-.8 6.28-.58 5.5-.4 4.73-.2h3.94l4.73-.2 5.5-.38 6.3-.6 7.1-.78 5.7-.6 4.33-.38 2.95-.2h1.6l1.76-.2 1.97-.4 2.16-.58 2.35-.8 2.76-.58 3.16-.4 3.54-.2h3.93l3.55-.18 3.15-.4 2.75-.6 2.36-.78 5.32-.6 8.26-.38 11.22-.2h14.17l11.42-.2 8.66-.4 5.9-.58 3.15-.78 6.9-.6 10.62-.4 14.36-.2h18.12l16.13-.18 14.17-.4 12.2-.6 10.24-.77 11.4-.6 12.6-.4 13.78-.18h14.96l12.6.18 10.23.4 7.87.6 5.5.77 4.93.6 4.33.4 3.74.18h3.14l4.33.2 5.5.4 6.7.6 7.88.77 7.87.6 7.87.4 7.86.18h7.87l7.87-.4 7.88-.78 7.87-1.18 7.87-1.57 7.28-1.18 6.7-.8 6.1-.38h5.5l4.73-.2 3.93-.4 3.15-.6 2.37-.78 4.13-.6 5.9-.38 7.68-.2h9.45l7.48-.2 5.52-.4 3.54-.58 1.57-.8 1.97-.58 2.36-.4 2.76-.2h3.15l3.34-.2 3.55-.38 3.74-.6 3.93-.78 4.13-.6 4.33-.38 4.52-.2h4.72l4.13-.2 3.54-.4 2.97-.58 2.36-.8 3.74-.58 5.1-.4 6.5-.2h7.88l6.7-.18 5.5-.4 4.33-.6 3.15-.78 6.3-.6 9.44-.38 12.6-.2h15.74l12.4-.2 9.06-.4 5.7-.58 2.37-.78 2.95-.6 3.54-.4 4.14-.2h4.72l3.93-.18 3.16-.4 2.36-.6 1.58-.77 1.77-.8 1.97-.78 2.16-.78 2.36-.8 2.56-.58 2.76-.4 2.95-.2h3.15l2.56-.2 1.96-.4 1.38-.58.8-.8 1.96-.58 3.14-.4 4.34-.2h13.77" stroke="#000" stroke-width="16.79" stroke-linecap="round" stroke-linejoin="round" fill="none"/>
        <path d="M5882.94-1156.64a6 6 0 0 1 6-6h391.48a6 6 0 0 1 6 6v35.34a6 6 0 0 1-6 6h-391.48a6 6 0 0 1-6-6z" fill="none"/>
        <use xlink:href="#n" transform="matrix(1,0,0,1,5887.942688742979,-1157.6396400160806) translate(0 25.22222222222222)"/>
        <use xlink:href="#o" transform="matrix(1,0,0,1,5887.942688742979,-1157.6396400160806) translate(94.8888888888889 25.22222222222222)"/>
        <use xlink:href="#p" transform="matrix(1,0,0,1,5887.942688742979,-1157.6396400160806) translate(181.22222222222223 25.22222222222222)"/>
        <use xlink:href="#q" transform="matrix(1,0,0,1,5887.942688742979,-1157.6396400160806) translate(267.55555555555554 25.22222222222222)"/>
        <use xlink:href="#r" transform="matrix(1,0,0,1,5887.942688742979,-1157.6396400160806) translate(302.12345679012344 25.22222222222222)"/>
        <path d="M5399.5-1689.56a6 6 0 0 1 6-6h459.3a6 6 0 0 1 6 6v81.35a6 6 0 0 1-6 6h-459.3a6 6 0 0 1-6-6z" fill="none"/>
        <use xlink:href="#s" transform="matrix(1,0,0,1,5404.504778147848,-1690.5561029665555) translate(3.15432098765433 29.55555555555555)"/>
        <use xlink:href="#t" transform="matrix(1,0,0,1,5404.504778147848,-1690.5561029665555) translate(125.69753086419755 29.55555555555555)"/>
        <use xlink:href="#u" transform="matrix(1,0,0,1,5404.504778147848,-1690.5561029665555) translate(151.62345679012347 29.55555555555555)"/>
        <use xlink:href="#v" transform="matrix(1,0,0,1,5404.504778147848,-1690.5561029665555) translate(234.5 29.55555555555555)"/>
        <use xlink:href="#w" transform="matrix(1,0,0,1,5404.504778147848,-1690.5561029665555) translate(346.6728395061728 29.55555555555555)"/>
        <use xlink:href="#x" transform="matrix(1,0,0,1,5404.504778147848,-1690.5561029665555) translate(382.8827160493827 29.55555555555555)"/>
        <use xlink:href="#y" transform="matrix(1,0,0,1,5404.504778147848,-1690.5561029665555) translate(126.5185185185185 66.88888888888889)"/>
        <use xlink:href="#z" transform="matrix(1,0,0,1,5404.504778147848,-1690.5561029665555) translate(204.20987654320987 66.88888888888889)"/>
        <use xlink:href="#A" transform="matrix(1,0,0,1,5404.504778147848,-1690.5561029665555) translate(238.77777777777777 66.88888888888889)"/>
        <use xlink:href="#B" transform="matrix(1,0,0,1,5404.504778147848,-1690.5561029665555) translate(281.98765432098764 66.88888888888889)"/>
        <path d="M4758.95-2143.73a6 6 0 0 1 6-6h459.3a6 6 0 0 1 6 6v147.34a6 6 0 0 1-6 6h-459.3a6 6 0 0 1-6-6z" fill="none"/>
        <g>
            <use xlink:href="#C" transform="matrix(1,0,0,1,4763.948512767387,-2144.734288206976) translate(6.740740740740733 25.222222222222207)"/>
            <use xlink:href="#D" transform="matrix(1,0,0,1,4763.948512767387,-2144.734288206976) translate(122.19753086419753 25.222222222222207)"/>
            <use xlink:href="#E" transform="matrix(1,0,0,1,4763.948512767387,-2144.734288206976) translate(224.08641975308643 25.222222222222207)"/>
            <use xlink:href="#F" transform="matrix(1,0,0,1,4763.948512767387,-2144.734288206976) translate(358.64197530864203 25.222222222222207)"/>
            <use xlink:href="#G" transform="matrix(1,0,0,1,4763.948512767387,-2144.734288206976) translate(4.061728395061721 62.55555555555555)"/>
            <use xlink:href="#t" transform="matrix(1,0,0,1,4763.948512767387,-2144.734288206976) translate(67.8395061728395 62.55555555555555)"/>
            <use xlink:href="#H" transform="matrix(1,0,0,1,4763.948512767387,-2144.734288206976) translate(93.76543209876544 62.55555555555555)"/>
            <use xlink:href="#z" transform="matrix(1,0,0,1,4763.948512767387,-2144.734288206976) translate(135.1604938271605 62.55555555555555)"/>
            <use xlink:href="#I" transform="matrix(1,0,0,1,4763.948512767387,-2144.734288206976) translate(169.7283950617284 62.55555555555555)"/>
            <use xlink:href="#J" transform="matrix(1,0,0,1,4763.948512767387,-2144.734288206976) translate(266.4320987654321 62.55555555555555)"/>
            <use xlink:href="#K" transform="matrix(1,0,0,1,4763.948512767387,-2144.734288206976) translate(359.5925925925926 62.55555555555555)"/>
            <use xlink:href="#L" transform="matrix(1,0,0,1,4763.948512767387,-2144.734288206976) translate(432.01234567901236 62.55555555555555)"/>
            <use xlink:href="#M" transform="matrix(1,0,0,1,4763.948512767387,-2144.734288206976) translate(61.0123456790123 99.88888888888889)"/>
            <use xlink:href="#N" transform="matrix(1,0,0,1,4763.948512767387,-2144.734288206976) translate(159.358024691358 99.88888888888889)"/>
            <use xlink:href="#O" transform="matrix(1,0,0,1,4763.948512767387,-2144.734288206976) translate(266.34567901234567 99.88888888888889)"/>
            <use xlink:href="#P" transform="matrix(1,0,0,1,4763.948512767387,-2144.734288206976) translate(350.95061728395063 99.88888888888889)"/>
            <use xlink:href="#Q" transform="matrix(1,0,0,1,4763.948512767387,-2144.734288206976) translate(72.29012345679013 137.22222222222223)"/>
            <use xlink:href="#R" transform="matrix(1,0,0,1,4763.948512767387,-2144.734288206976) translate(291.3641975308642 137.22222222222223)"/>
        </g>
        <path d="M3973.9-370.16a6 6 0 0 1 6-6h700.2a6 6 0 0 1 6 6v128.23a6 6 0 0 1-6 6h-700.2a6 6 0 0 1-6-6z" fill="none"/>
        <g>
            <use xlink:href="#S" transform="matrix(1,0,0,1,3978.9122499082587,-371.1644077333062) translate(0 96.23333333333333)"/>
            <use xlink:href="#T" transform="matrix(1,0,0,1,3978.9122499082587,-371.1644077333062) translate(282.6 96.23333333333333)"/>
        </g>
        <path d="M5678.26-425.98a6 6 0 0 1 6-6h542.22a6 6 0 0 1 6 6v163.83a6 6 0 0 1-6 6h-542.22a6 6 0 0 1-6-6z" fill="none"/>
        <g>
            <use xlink:href="#U" transform="matrix(1,0,0,1,5683.256969314211,-426.9769933752097) translate(56.400000000000034 113.73333333333333)"/>
        </g>
        <path d="M4987.28-696.1a6 6 0 0 1 6-6h263.93a6 6 0 0 1 6 6v112.88a6 6 0 0 1-6 6H4993.3a6 6 0 0 1-6-6z" fill="none"/>
        <g>
            <use xlink:href="#V" transform="matrix(1,0,0,1,4992.275568606477,-697.1146828406492) translate(0 94.38)"/>
        </g>
        <path d="M3579.12-571.23a6 6 0 0 1 6-6h243.7a6 6 0 0 1 6 6v78.02a6 6 0 0 1-6 6h-243.7a6 6 0 0 1-6-6z" fill="none"/>
        <g>
            <use xlink:href="#W" transform="matrix(1,0,0,1,3584.1185730991087,-572.224682840649) translate(72.11111111111109 53.833333333333336)"/>
        </g>
        <path d="M3588.08-364.7a6 6 0 0 1 6-6h225.77a6 6 0 0 1 6 6v136.26a6 6 0 0 1-6 6h-225.77a6 6 0 0 1-6-6z" fill="none"/>
        <g>
            <use xlink:href="#X" transform="matrix(1,0,0,1,3593.079035068005,-365.70343479555777) translate(67 100.23333333333333)"/>
        </g>
        <defs>
            <path d="M30 0v-248h187v28H63v79h144v27H63v87h162V0H30" id="Y"/>
            <path d="M108 0H70L1-190h34L89-25l56-165h34" id="Z"/>
            <path d="M100-194c63 0 86 42 84 106H49c0 40 14 67 53 68 26 1 43-12 49-29l28 8c-11 28-37 45-77 45C44 4 14-33 15-96c1-61 26-98 85-98zm52 81c6-60-76-77-97-28-3 7-6 17-6 28h103" id="aa"/>
            <path d="M117-194c89-4 53 116 60 194h-32v-121c0-31-8-49-39-48C34-167 62-67 57 0H25l-1-190h30c1 10-1 24 2 32 11-22 29-35 61-36" id="ab"/>
            <path d="M59-47c-2 24 18 29 38 22v24C64 9 27 4 27-40v-127H5v-23h24l9-43h21v43h35v23H59v120" id="ac"/>
            <path d="M185-189c-5-48-123-54-124 2 14 75 158 14 163 119 3 78-121 87-175 55-17-10-28-26-33-46l33-7c5 56 141 63 141-1 0-78-155-14-162-118-5-82 145-84 179-34 5 7 8 16 11 25" id="ad"/>
            <path d="M100-194c62-1 85 37 85 99 1 63-27 99-86 99S16-35 15-95c0-66 28-99 85-99zM99-20c44 1 53-31 53-75 0-43-8-75-51-75s-53 32-53 75 10 74 51 75" id="ae"/>
            <path d="M114-163C36-179 61-72 57 0H25l-1-190h30c1 12-1 29 2 39 6-27 23-49 58-41v29" id="af"/>
            <path d="M210-169c-67 3-38 105-44 169h-31v-121c0-29-5-50-35-48C34-165 62-65 56 0H25l-1-190h30c1 10-1 24 2 32 10-44 99-50 107 0 11-21 27-35 58-36 85-2 47 119 55 194h-31v-121c0-29-5-49-35-48" id="ag"/>
            <path d="M24-231v-30h32v30H24zM24 0v-190h32V0H24" id="ah"/>
            <path d="M177-190C167-65 218 103 67 71c-23-6-38-20-44-43l32-5c15 47 100 32 89-28v-30C133-14 115 1 83 1 29 1 15-40 15-95c0-56 16-97 71-98 29-1 48 16 59 35 1-10 0-23 2-32h30zM94-22c36 0 50-32 50-73 0-42-14-75-50-75-39 0-46 34-46 75s6 73 46 73" id="ai"/>
            <g id="a">
                <use transform="matrix(0.08641975308641976,0,0,0.08641975308641976,0,0)" xlink:href="#Y"/>
                <use transform="matrix(0.08641975308641976,0,0,0.08641975308641976,20.740740740740744,0)" xlink:href="#Z"/>
                <use transform="matrix(0.08641975308641976,0,0,0.08641975308641976,36.296296296296305,0)" xlink:href="#aa"/>
                <use transform="matrix(0.08641975308641976,0,0,0.08641975308641976,53.580246913580254,0)" xlink:href="#ab"/>
                <use transform="matrix(0.08641975308641976,0,0,0.08641975308641976,70.8641975308642,0)" xlink:href="#ac"/>
                <use transform="matrix(0.08641975308641976,0,0,0.08641975308641976,79.50617283950618,0)" xlink:href="#ad"/>
                <use transform="matrix(0.08641975308641976,0,0,0.08641975308641976,100.24691358024693,0)" xlink:href="#ac"/>
                <use transform="matrix(0.08641975308641976,0,0,0.08641975308641976,108.8888888888889,0)" xlink:href="#ae"/>
                <use transform="matrix(0.08641975308641976,0,0,0.08641975308641976,126.17283950617285,0)" xlink:href="#af"/>
                <use transform="matrix(0.08641975308641976,0,0,0.08641975308641976,136.4567901234568,0)" xlink:href="#ag"/>
                <use transform="matrix(0.08641975308641976,0,0,0.08641975308641976,162.29629629629633,0)" xlink:href="#ah"/>
                <use transform="matrix(0.08641975308641976,0,0,0.08641975308641976,169.1234567901235,0)" xlink:href="#ab"/>
                <use transform="matrix(0.08641975308641976,0,0,0.08641975308641976,186.40740740740748,0)" xlink:href="#ai"/>
            </g>
            <path d="M85-194c31 0 48 13 60 33l-1-100h32l1 261h-30c-2-10 0-23-3-31C134-8 116 4 85 4 32 4 16-35 15-94c0-66 23-100 70-100zm9 24c-40 0-46 34-46 75 0 40 6 74 45 74 42 0 51-32 51-76 0-42-9-74-50-73" id="aj"/>
            <path d="M24 0v-261h32V0H24" id="ak"/>
            <path d="M135-143c-3-34-86-38-87 0 15 53 115 12 119 90S17 21 10-45l28-5c4 36 97 45 98 0-10-56-113-15-118-90-4-57 82-63 122-42 12 7 21 19 24 35" id="al"/>
            <g id="b">
                <use transform="matrix(0.08641975308641976,0,0,0.08641975308641976,0,0)" xlink:href="#ag"/>
                <use transform="matrix(0.08641975308641976,0,0,0.08641975308641976,25.83950617283951,0)" xlink:href="#ae"/>
                <use transform="matrix(0.08641975308641976,0,0,0.08641975308641976,43.12345679012346,0)" xlink:href="#aj"/>
                <use transform="matrix(0.08641975308641976,0,0,0.08641975308641976,60.407407407407426,0)" xlink:href="#aa"/>
                <use transform="matrix(0.08641975308641976,0,0,0.08641975308641976,77.69135802469137,0)" xlink:href="#ak"/>
                <use transform="matrix(0.08641975308641976,0,0,0.08641975308641976,84.51851851851853,0)" xlink:href="#al"/>
            </g>
            <path d="M126-127c33 6 58 20 58 59 0 88-139 92-164 29-3-8-5-16-6-25l32-3c6 27 21 44 54 44 32 0 52-15 52-46 0-38-36-46-79-43v-28c39 1 72-4 72-42 0-27-17-43-46-43-28 0-47 15-49 41l-32-3c6-42 35-63 81-64 48-1 79 21 79 65 0 36-21 52-52 59" id="am"/>
            <path d="M101-251c68 0 85 55 85 127S166 4 100 4C33 4 14-52 14-124c0-73 17-127 87-127zm-1 229c47 0 54-49 54-102s-4-102-53-102c-51 0-55 48-55 102 0 53 5 102 54 102" id="an"/>
            <path d="M143 0L79-87 56-68V0H24v-261h32v163l83-92h37l-77 82L181 0h-38" id="ao"/>
            <g id="c">
                <use transform="matrix(0.1851851851851852,0,0,0.1851851851851852,0,0)" xlink:href="#am"/>
                <use transform="matrix(0.1851851851851852,0,0,0.1851851851851852,37.03703703703704,0)" xlink:href="#an"/>
                <use transform="matrix(0.1851851851851852,0,0,0.1851851851851852,74.07407407407408,0)" xlink:href="#ao"/>
            </g>
            <path d="M101-234c-31-9-42 10-38 44h38v23H63V0H32v-167H5v-23h27c-7-52 17-82 69-68v24" id="ap"/>
            <g id="d">
                <use transform="matrix(0.1851851851851852,0,0,0.1851851851851852,0,0)" xlink:href="#ap"/>
                <use transform="matrix(0.1851851851851852,0,0,0.1851851851851852,18.51851851851852,0)" xlink:href="#ac"/>
            </g>
            <path d="M27 0v-27h64v-190l-56 39v-29l58-41h29v221h61V0H27" id="aq"/>
            <g id="e">
                <use transform="matrix(0.1851851851851852,0,0,0.1851851851851852,0,0)" xlink:href="#aq"/>
                <use transform="matrix(0.1851851851851852,0,0,0.1851851851851852,37.03703703703704,0)" xlink:href="#an"/>
                <use transform="matrix(0.1851851851851852,0,0,0.1851851851851852,74.07407407407408,0)" xlink:href="#ao"/>
            </g>
            <path d="M143 4C61 4 22-44 18-125c-5-107 100-154 193-111 17 8 29 25 37 43l-32 9c-13-25-37-40-76-40-61 0-88 39-88 99 0 61 29 100 91 101 35 0 62-11 79-27v-45h-74v-28h105v86C228-13 192 4 143 4" id="ar"/>
            <path d="M84 4C-5 8 30-112 23-190h32v120c0 31 7 50 39 49 72-2 45-101 50-169h31l1 190h-30c-1-10 1-25-2-33-11 22-28 36-60 37" id="as"/>
            <g id="f">
                <use transform="matrix(0.1851851851851852,0,0,0.1851851851851852,0,0)" xlink:href="#ar"/>
                <use transform="matrix(0.1851851851851852,0,0,0.1851851851851852,51.851851851851855,0)" xlink:href="#af"/>
                <use transform="matrix(0.1851851851851852,0,0,0.1851851851851852,73.88888888888889,0)" xlink:href="#ae"/>
                <use transform="matrix(0.1851851851851852,0,0,0.1851851851851852,110.92592592592591,0)" xlink:href="#as"/>
                <use transform="matrix(0.1851851851851852,0,0,0.1851851851851852,147.96296296296296,0)" xlink:href="#ab"/>
                <use transform="matrix(0.1851851851851852,0,0,0.1851851851851852,185,0)" xlink:href="#aj"/>
            </g>
            <path fill="#3a414a" d="M58-120c0 66 127 98 195 96 131-3 240-41 324-94 105-67 138-161 78-271-25-45-59-78-90-108 15-16 29-31 39-48 16-58 22-147-13-187-60-68-156-89-270-89-121 0-219 3-230 109-2 17 7 29 12 41-8 149-1 314 1 467 0 16-5 27-15 33-21 13-31 30-31 51zm202-60c-10-53-9-118-10-178 63-23 141-33 195-65-7-7 96 83 88 114-25 93-160 123-273 129zm3-494c24-10 55-12 83-12 84 0 126 16 126 47 0 24-82 99-136 108-28 5-50 14-82 14-4-50-7-126 9-157" id="at"/>
            <path fill="#3a414a" d="M42-70c0 87 115 70 183 54l-1 1c168-29 298-46 412-66 37-61 31-107-28-144-59 12-120 13-178 22 6-108 31-217 31-327 0-55 4-92 13-111 33-5 63-9 97-17 108 2 116-84 54-143-115-14-235 13-335 17-9 1-17 2-25 5l1-1c-26 5-56 8-80 15l1-1c-64 12-112 20-118 81-8 89 119 84 199 63-6 0 1-1 3-1 14-2 24 0 41-3 2 126-16 240-31 354-4 28-1 78-21 91-30 19-88 18-126 30l1-1c-53 5-93 24-93 82" id="au"/>
            <path fill="#3a414a" d="M538-816c-103 0-163 58-224 101-94 66-163 160-217 269-55 110-57 202-8 302C140-41 287 1 427-52l-2 2c132-36 235-121 302-220 27-40 35-100 41-164 16-162-159-112-258-80-68 22-179 71-172 126 6 46 45 97 100 74 12-5 31-10 52-19l-1 1c26-11 53-18 79-30l-1 1c13-4 22-7 31-11-3 7-21 31-48 59-78 83-170 124-276 124-46 0-75-59-75-102 0-109 89-199 162-266 72-66 122-100 155-100 31 0 47 42 75 42 31 0 46-25 46-74 0-75-36-127-99-127" id="av"/>
            <g id="g">
                <use transform="matrix(0.08,0,0,0.08,0,0)" xlink:href="#at"/>
                <use transform="matrix(0.08,0,0,0.08,51.52,0)" xlink:href="#au"/>
                <use transform="matrix(0.08,0,0,0.08,102.48,0)" xlink:href="#av"/>
            </g>
            <path fill="#3a414a" d="M87-602c4 38-4 75-5 110-3 126-9 252-9 379 0 59 26 89 77 89 58 0 63-72 63-132 0-35 7-82 12-117 65-30 152-55 206-93 88-62 186-166 161-313-4-21-15-39-29-55l2 2c-23-34-68-58-137-73l1 1c-46-11-95-14-151-15-81-1-238 33-230 104 5 47 47 56 39 113zm257-56c102-1 127 34 86 93-43 62-125 108-204 136-5-100 2-207 8-214 10-10 47-15 110-15zm-110 16l-1 1c0-1 0-1 1-1" id="aw"/>
            <path fill="#3a414a" d="M603-651c0-97-31-172-120-170-102 1-164 75-214 132-81 91-127 171-181 277-30 59-52 189-20 259C104-74 204-5 336-32c36-8 99-21 126-45 137-73 206-137 206-191 0-71-82-87-131-48-77 62-149 135-266 145-97 8-92-125-54-190 41-69 89-162 136-217 46-53 83-81 115-81 30 22 11 105 74 105 41 0 61-32 61-97" id="ax"/>
            <path fill="#3a414a" d="M450-642c81-9 156-10 231-4 26-13 36-35 36-67 0-81-74-112-168-99-140 19-319-7-450 25-32 17-54 46-55 91v-3c-8 40 21 48 42 67 65 10 127-7 202-2-4 181-23 372-21 564 20 34 93 71 130 26 41-30 19-113 21-180 3-100 12-190 18-284l-1 1c5-43-7-105 15-135" id="ay"/>
            <path fill="#3a414a" d="M615-24c62 1 58-78 47-128 24-171 55-356 55-541 0-64-23-96-70-96-71-1-99 44-94 123-15 114-18 275-42 381-6 28-34 35-58 44-76 27-135 58-212 58-42 0-27-72-25-115 4-84 25-172 38-251l-1 1c12-62 61-162-1-204l2 1c-43-49-114-25-124 36-27 163-69 328-78 509-3 62 15 122 50 146 37 26 87 40 150 40 41 0 198-44 262-67 14 13 28 28 43 46 26 11 45 17 58 17" id="az"/>
            <path fill="#3a414a" d="M173-13c102-20 79-163 100-261 0-7 2-19 3-27-8-47 57-27 68-2 40 53 67 131 101 192l-1-1c19 54 59 97 104 92 43-5 70-16 73-58 13-23 7-37-3-71-6-23-15-54-34-88-35-66-68-105-104-161 56-50 105-104 147-170 6-29 17-55 20-85 6-72-103-151-170-159l2 1c-139-21-303 2-392 48-38 20-46 85-18 123 36 48 34 126 35 220 2 188-7 191-22 334-6 57 41 80 92 72zm83-631c46-6 199-69 222 5-8 54-52 92-132 119-94 31-95 61-95-72 0-28 2-45 5-52zm67 321l-3-1c1 1 2 1 3 1" id="aA"/>
            <path fill="#3a414a" d="M562-231c-119 0-201 32-308 40-14 1-42-3-40-14 7-43 5-108 16-155 15-24 58-17 92-28 55-18 122-10 191-10 29 0 63-18 62-50l-1 1c9-54-30-90-85-89l2 1c-79-20-172-1-247 10 3-27 1-57 6-86 80-35 193-36 303-41 17-1 37-7 58-16 38-58-8-126-51-147l1 1c-50-22-116-3-173 4-55 6-120 24-173 38l1-1c-58 17-141 13-134 97 6 67 3 142 3 213 0 107-34 195-34 299 0 91 55 147 155 140 120-8 214-45 346-45 28 0 55-3 82-5h-6c53-8 92-74 55-130-9-16-23-28-41-35-26 5-52 8-80 8zM242-525v-1 1" id="aB"/>
            <g id="h">
                <use transform="matrix(0.08,0,0,0.08,0,0)" xlink:href="#aw"/>
                <use transform="matrix(0.08,0,0,0.08,45.28,0)" xlink:href="#au"/>
                <use transform="matrix(0.08,0,0,0.08,96.24000000000001,0)" xlink:href="#ax"/>
                <use transform="matrix(0.08,0,0,0.08,147.04000000000002,0)" xlink:href="#ay"/>
                <use transform="matrix(0.08,0,0,0.08,204.56000000000003,0)" xlink:href="#az"/>
                <use transform="matrix(0.08,0,0,0.08,260.8,0)" xlink:href="#aA"/>
                <use transform="matrix(0.08,0,0,0.08,310.32,0)" xlink:href="#aB"/>
            </g>
            <path fill="#3a414a" d="M87-602c4 38-4 75-5 110-3 126-9 252-9 379 0 59 26 89 77 89 58 0 63-72 63-132 0-35 7-82 12-117 65-30 152-55 206-93 88-62 186-166 161-313-4-21-15-39-29-55l2 2c-23-34-68-58-137-73l1 1c-46-11-95-14-151-15-81-1-238 33-230 104 5 47 47 56 39 113zm257-56c102-1 127 34 86 93-43 62-125 108-204 136-5-100 2-207 8-214 10-10 47-15 110-15zm-110 16l-1 1c0-1 0-1 1-1" id="aC"/>
            <path fill="#3a414a" d="M776-292c25-58 39-113 39-189 0-186-105-335-289-347-115-8-264 80-335 176-54 72-128 174-130 306-17 72 19 171 60 209C155-80 284-35 371-30c125 8 185-36 261-79 69-40 112-103 145-184zM507-656c91 0 151 106 151 197 0 107-87 221-167 253-29 11-88 21-133 13l1 1c-87-19-148-53-141-159 8-119 91-193 166-254 44-35 86-51 123-51" id="aD"/>
            <path fill="#3a414a" d="M57-191C48-107 192-27 280-27c97 0 254-99 310-169 39-50 65-83 62-166-5-159-71-204-245-204-43 0-128 16-175 9 33-54 156-102 224-125 50-17 39 63 85 49 7-1 26-9 26-8 27 1 48-28 46-55-5-57-86-138-163-130-107 11-177 44-249 89-64 40-151 103-160 192 11 108 88 147 219 147 67 0 156-12 208 7 20 7 30 17 30 30 0 34-38 77-114 130 1-1 0-1 1-1-43 46-146 46-193 1-15-15-43-32-65-30-41 4-67 29-70 70" id="aE"/>
            <g id="i">
                <use transform="matrix(0.08,0,0,0.08,0,0)" xlink:href="#aC"/>
                <use transform="matrix(0.08,0,0,0.08,45.28,0)" xlink:href="#aA"/>
                <use transform="matrix(0.08,0,0,0.08,94.80000000000003,0)" xlink:href="#aD"/>
                <use transform="matrix(0.08,0,0,0.08,159.04000000000002,0)" xlink:href="#ax"/>
                <use transform="matrix(0.08,0,0,0.08,209.84000000000003,0)" xlink:href="#aB"/>
                <use transform="matrix(0.08,0,0,0.08,263.20000000000005,0)" xlink:href="#aE"/>
                <use transform="matrix(0.08,0,0,0.08,313.76000000000005,0)" xlink:href="#aE"/>
            </g>
            <path fill="#3a414a" d="M80-334C68-194 2 14 192-26c62-30 136-63 191-92 174-92 259-210 259-347 0-142-33-193-97-253-69-64-182-82-292-104-16-3-35-3-56-3-90 0-82 55-82 133 0 95-9 196-26 279l1-1c-6 25-8 57-10 80zm133 125c17-153 24-313 53-452 153-5 243 55 220 201l-1-2c-24 127-149 211-272 253zm48-441v3-3zm-8 53c0-1 0-1 1-2" id="aF"/>
            <path fill="#3a414a" d="M216-409c9 8 16 19 19 30-1 9 8 9 10 13 37 63 77 111 116 172 37 57 163 169 227 172 23 0 40-11 52-32 33-170 13-434 6-619-3-83-39-143-107-149-45-4-69 31-66 79 10 146 31 283 13 439-51-61-104-153-152-217-31-42-51-96-76-155l1 1c-28-66-40-134-124-136-97-1-69 150-80 250-17 150 12 295 5 444-2 50 15 62 51 88 19 2 42 3 59 3 35 2 66-46 57-86l1 1c-10-94-14-194-12-298zm39 2c4 1 2 2 0 3v-3zm229 115c0-2 0-3 1-4-1 1-1 3-1 4" id="aG"/>
            <g id="j">
                <use transform="matrix(0.08,0,0,0.08,0,0)" xlink:href="#aF"/>
                <use transform="matrix(0.08,0,0,0.08,48.4,0)" xlink:href="#aB"/>
                <use transform="matrix(0.08,0,0,0.08,101.75999999999999,0)" xlink:href="#aE"/>
                <use transform="matrix(0.08,0,0,0.08,152.32,0)" xlink:href="#au"/>
                <use transform="matrix(0.08,0,0,0.08,203.28,0)" xlink:href="#av"/>
                <use transform="matrix(0.08,0,0,0.08,264.08,0)" xlink:href="#aG"/>
            </g>
            <path fill="#3a414a" d="M212-179c-10-28-35-45-73-45-59 0-87 40-87 99 0 60 29 101 89 101 43 0 62-24 78-52l27 14C228-24 195 4 139 4 59 4 22-46 18-125c-6-104 99-153 187-111 19 9 31 26 39 46" id="aH"/>
            <path fill="#3a414a" d="M84 4C-5 8 30-112 23-190h32v120c0 31 7 50 39 49 72-2 45-101 50-169h31l1 190h-30c-1-10 1-25-2-33-11 22-28 36-60 37" id="aI"/>
            <path fill="#3a414a" d="M114-163C36-179 61-72 57 0H25l-1-190h30c1 12-1 29 2 39 6-27 23-49 58-41v29" id="aJ"/>
            <path fill="#3a414a" d="M100-194c63 0 86 42 84 106H49c0 40 14 67 53 68 26 1 43-12 49-29l28 8c-11 28-37 45-77 45C44 4 14-33 15-96c1-61 26-98 85-98zm52 81c6-60-76-77-97-28-3 7-6 17-6 28h103" id="aK"/>
            <path fill="#3a414a" d="M117-194c89-4 53 116 60 194h-32v-121c0-31-8-49-39-48C34-167 62-67 57 0H25l-1-190h30c1 10-1 24 2 32 11-22 29-35 61-36" id="aL"/>
            <path fill="#3a414a" d="M59-47c-2 24 18 29 38 22v24C64 9 27 4 27-40v-127H5v-23h24l9-43h21v43h35v23H59v120" id="aM"/>
            <g id="k">
                <use transform="matrix(0.1851851851851852,0,0,0.1851851851851852,0,0)" xlink:href="#aH"/>
                <use transform="matrix(0.1851851851851852,0,0,0.1851851851851852,47.96296296296297,0)" xlink:href="#aI"/>
                <use transform="matrix(0.1851851851851852,0,0,0.1851851851851852,85,0)" xlink:href="#aJ"/>
                <use transform="matrix(0.1851851851851852,0,0,0.1851851851851852,107.03703703703705,0)" xlink:href="#aJ"/>
                <use transform="matrix(0.1851851851851852,0,0,0.1851851851851852,129.07407407407408,0)" xlink:href="#aK"/>
                <use transform="matrix(0.1851851851851852,0,0,0.1851851851851852,166.11111111111111,0)" xlink:href="#aL"/>
                <use transform="matrix(0.1851851851851852,0,0,0.1851851851851852,203.14814814814818,0)" xlink:href="#aM"/>
            </g>
            <path fill="#3a414a" d="M135-143c-3-34-86-38-87 0 15 53 115 12 119 90S17 21 10-45l28-5c4 36 97 45 98 0-10-56-113-15-118-90-4-57 82-63 122-42 12 7 21 19 24 35" id="aN"/>
            <path fill="#3a414a" d="M141-36C126-15 110 5 73 4 37 3 15-17 15-53c-1-64 63-63 125-63 3-35-9-54-41-54-24 1-41 7-42 31l-33-3c5-37 33-52 76-52 45 0 72 20 72 64v82c-1 20 7 32 28 27v20c-31 9-61-2-59-35zM48-53c0 20 12 33 32 33 41-3 63-29 60-74-43 2-92-5-92 41" id="aO"/>
            <g id="l">
                <use transform="matrix(0.1851851851851852,0,0,0.1851851851851852,0,0)" xlink:href="#aN"/>
                <use transform="matrix(0.1851851851851852,0,0,0.1851851851851852,33.333333333333336,0)" xlink:href="#aM"/>
                <use transform="matrix(0.1851851851851852,0,0,0.1851851851851852,51.851851851851855,0)" xlink:href="#aO"/>
                <use transform="matrix(0.1851851851851852,0,0,0.1851851851851852,88.88888888888889,0)" xlink:href="#aM"/>
                <use transform="matrix(0.1851851851851852,0,0,0.1851851851851852,107.40740740740739,0)" xlink:href="#aK"/>
            </g>
            <path fill="#3a414a" d="M63-220v92h138v28H63V0H30v-248h175v28H63" id="aP"/>
            <g id="m">
                <use transform="matrix(0.1851851851851852,0,0,0.1851851851851852,0,0)" xlink:href="#aP"/>
                <use transform="matrix(0.1851851851851852,0,0,0.1851851851851852,40.55555555555556,0)" xlink:href="#aI"/>
                <use transform="matrix(0.1851851851851852,0,0,0.1851851851851852,77.5925925925926,0)" xlink:href="#aM"/>
                <use transform="matrix(0.1851851851851852,0,0,0.1851851851851852,96.11111111111111,0)" xlink:href="#aI"/>
                <use transform="matrix(0.1851851851851852,0,0,0.1851851851851852,133.14814814814815,0)" xlink:href="#aJ"/>
                <use transform="matrix(0.1851851851851852,0,0,0.1851851851851852,155.1851851851852,0)" xlink:href="#aK"/>
            </g>
            <g id="n">
                <use transform="matrix(0.08641975308641976,0,0,0.08641975308641976,0,0)" xlink:href="#ad"/>
                <use transform="matrix(0.08641975308641976,0,0,0.08641975308641976,20.740740740740744,0)" xlink:href="#ah"/>
                <use transform="matrix(0.08641975308641976,0,0,0.08641975308641976,27.567901234567906,0)" xlink:href="#ab"/>
                <use transform="matrix(0.08641975308641976,0,0,0.08641975308641976,44.85185185185187,0)" xlink:href="#ai"/>
                <use transform="matrix(0.08641975308641976,0,0,0.08641975308641976,62.13580246913581,0)" xlink:href="#ak"/>
                <use transform="matrix(0.08641975308641976,0,0,0.08641975308641976,68.96296296296298,0)" xlink:href="#aa"/>
            </g>
            <path d="M141-36C126-15 110 5 73 4 37 3 15-17 15-53c-1-64 63-63 125-63 3-35-9-54-41-54-24 1-41 7-42 31l-33-3c5-37 33-52 76-52 45 0 72 20 72 64v82c-1 20 7 32 28 27v20c-31 9-61-2-59-35zM48-53c0 20 12 33 32 33 41-3 63-29 60-74-43 2-92-5-92 41" id="aQ"/>
            <path d="M68-38c1 34 0 65-14 84H32c9-13 17-26 17-46H33v-38h35" id="aR"/>
            <g id="o">
                <use transform="matrix(0.08641975308641976,0,0,0.08641975308641976,0,0)" xlink:href="#ac"/>
                <use transform="matrix(0.08641975308641976,0,0,0.08641975308641976,8.641975308641976,0)" xlink:href="#aa"/>
                <use transform="matrix(0.08641975308641976,0,0,0.08641975308641976,25.925925925925927,0)" xlink:href="#aQ"/>
                <use transform="matrix(0.08641975308641976,0,0,0.08641975308641976,43.20987654320989,0)" xlink:href="#ag"/>
                <use transform="matrix(0.08641975308641976,0,0,0.08641975308641976,69.0493827160494,0)" xlink:href="#aR"/>
            </g>
            <path d="M179-190L93 31C79 59 56 82 12 73V49c39 6 53-20 64-50L1-190h34L92-34l54-156h33" id="aS"/>
            <g id="p">
                <use transform="matrix(0.08641975308641976,0,0,0.08641975308641976,0,0)" xlink:href="#af"/>
                <use transform="matrix(0.08641975308641976,0,0,0.08641975308641976,10.283950617283951,0)" xlink:href="#aa"/>
                <use transform="matrix(0.08641975308641976,0,0,0.08641975308641976,27.567901234567906,0)" xlink:href="#aQ"/>
                <use transform="matrix(0.08641975308641976,0,0,0.08641975308641976,44.85185185185187,0)" xlink:href="#aj"/>
                <use transform="matrix(0.08641975308641976,0,0,0.08641975308641976,62.13580246913581,0)" xlink:href="#aS"/>
            </g>
            <g id="q">
                <use transform="matrix(0.08641975308641976,0,0,0.08641975308641976,0,0)" xlink:href="#ac"/>
                <use transform="matrix(0.08641975308641976,0,0,0.08641975308641976,8.641975308641976,0)" xlink:href="#ae"/>
            </g>
            <g id="r">
                <use transform="matrix(0.08641975308641976,0,0,0.08641975308641976,0,0)" xlink:href="#aj"/>
                <use transform="matrix(0.08641975308641976,0,0,0.08641975308641976,17.283950617283953,0)" xlink:href="#aa"/>
                <use transform="matrix(0.08641975308641976,0,0,0.08641975308641976,34.567901234567906,0)" xlink:href="#ak"/>
                <use transform="matrix(0.08641975308641976,0,0,0.08641975308641976,41.39506172839506,0)" xlink:href="#ah"/>
                <use transform="matrix(0.08641975308641976,0,0,0.08641975308641976,48.22222222222223,0)" xlink:href="#Z"/>
                <use transform="matrix(0.08641975308641976,0,0,0.08641975308641976,63.777777777777786,0)" xlink:href="#aa"/>
                <use transform="matrix(0.08641975308641976,0,0,0.08641975308641976,81.06172839506173,0)" xlink:href="#af"/>
            </g>
            <path d="M212-179c-10-28-35-45-73-45-59 0-87 40-87 99 0 60 29 101 89 101 43 0 62-24 78-52l27 14C228-24 195 4 139 4 59 4 22-46 18-125c-6-104 99-153 187-111 19 9 31 26 39 46" id="aT"/>
            <g id="s">
                <use transform="matrix(0.08641975308641976,0,0,0.08641975308641976,0,0)" xlink:href="#aT"/>
                <use transform="matrix(0.08641975308641976,0,0,0.08641975308641976,22.38271604938272,0)" xlink:href="#af"/>
                <use transform="matrix(0.08641975308641976,0,0,0.08641975308641976,32.66666666666667,0)" xlink:href="#ae"/>
                <use transform="matrix(0.08641975308641976,0,0,0.08641975308641976,49.95061728395062,0)" xlink:href="#al"/>
                <use transform="matrix(0.08641975308641976,0,0,0.08641975308641976,65.50617283950618,0)" xlink:href="#al"/>
                <use transform="matrix(0.08641975308641976,0,0,0.08641975308641976,81.06172839506173,0)" xlink:href="#aa"/>
                <use transform="matrix(0.08641975308641976,0,0,0.08641975308641976,98.34567901234568,0)" xlink:href="#al"/>
            </g>
            <use transform="matrix(0.08641975308641976,0,0,0.08641975308641976,0,0)" xlink:href="#aQ" id="t"/>
            <g id="u">
                <use transform="matrix(0.08641975308641976,0,0,0.08641975308641976,0,0)" xlink:href="#Z"/>
                <use transform="matrix(0.08641975308641976,0,0,0.08641975308641976,15.555555555555557,0)" xlink:href="#aQ"/>
                <use transform="matrix(0.08641975308641976,0,0,0.08641975308641976,32.839506172839506,0)" xlink:href="#ak"/>
                <use transform="matrix(0.08641975308641976,0,0,0.08641975308641976,39.66666666666667,0)" xlink:href="#as"/>
                <use transform="matrix(0.08641975308641976,0,0,0.08641975308641976,56.95061728395062,0)" xlink:href="#aa"/>
            </g>
            <g id="v">
                <use transform="matrix(0.08641975308641976,0,0,0.08641975308641976,0,0)" xlink:href="#al"/>
                <use transform="matrix(0.08641975308641976,0,0,0.08641975308641976,15.555555555555557,0)" xlink:href="#ac"/>
                <use transform="matrix(0.08641975308641976,0,0,0.08641975308641976,24.19753086419753,0)" xlink:href="#af"/>
                <use transform="matrix(0.08641975308641976,0,0,0.08641975308641976,34.48148148148148,0)" xlink:href="#aa"/>
                <use transform="matrix(0.08641975308641976,0,0,0.08641975308641976,51.76543209876543,0)" xlink:href="#aQ"/>
                <use transform="matrix(0.08641975308641976,0,0,0.08641975308641976,69.04938271604938,0)" xlink:href="#ag"/>
                <use transform="matrix(0.08641975308641976,0,0,0.08641975308641976,94.88888888888889,0)" xlink:href="#aR"/>
            </g>
            <g id="w">
                <use transform="matrix(0.08641975308641976,0,0,0.08641975308641976,0,0)" xlink:href="#ae"/>
                <use transform="matrix(0.08641975308641976,0,0,0.08641975308641976,17.283950617283953,0)" xlink:href="#af"/>
            </g>
            <g id="x">
                <use transform="matrix(0.08641975308641976,0,0,0.08641975308641976,0,0)" xlink:href="#ag"/>
                <use transform="matrix(0.08641975308641976,0,0,0.08641975308641976,25.83950617283951,0)" xlink:href="#aQ"/>
                <use transform="matrix(0.08641975308641976,0,0,0.08641975308641976,43.12345679012346,0)" xlink:href="#ab"/>
                <use transform="matrix(0.08641975308641976,0,0,0.08641975308641976,60.407407407407426,0)" xlink:href="#aS"/>
            </g>
            <path d="M115-194c55 1 70 41 70 98S169 2 115 4C84 4 66-9 55-30l1 105H24l-1-265h31l2 30c10-21 28-34 59-34zm-8 174c40 0 45-34 45-75s-6-73-45-74c-42 0-51 32-51 76 0 43 10 73 51 73" id="aU"/>
            <g id="y">
                <use transform="matrix(0.08641975308641976,0,0,0.08641975308641976,0,0)" xlink:href="#aU"/>
                <use transform="matrix(0.08641975308641976,0,0,0.08641975308641976,17.283950617283953,0)" xlink:href="#aQ"/>
                <use transform="matrix(0.08641975308641976,0,0,0.08641975308641976,34.567901234567906,0)" xlink:href="#af"/>
                <use transform="matrix(0.08641975308641976,0,0,0.08641975308641976,44.851851851851855,0)" xlink:href="#ac"/>
                <use transform="matrix(0.08641975308641976,0,0,0.08641975308641976,53.49382716049383,0)" xlink:href="#al"/>
            </g>
            <g id="z">
                <use transform="matrix(0.08641975308641976,0,0,0.08641975308641976,0,0)" xlink:href="#ae"/>
                <use transform="matrix(0.08641975308641976,0,0,0.08641975308641976,17.283950617283953,0)" xlink:href="#ap"/>
            </g>
            <g id="A">
                <use transform="matrix(0.08641975308641976,0,0,0.08641975308641976,0,0)" xlink:href="#aQ"/>
                <use transform="matrix(0.08641975308641976,0,0,0.08641975308641976,17.283950617283953,0)" xlink:href="#ab"/>
            </g>
            <path d="M33 0v-38h34V0H33" id="aV"/>
            <g id="B">
                <use transform="matrix(0.08641975308641976,0,0,0.08641975308641976,0,0)" xlink:href="#ae"/>
                <use transform="matrix(0.08641975308641976,0,0,0.08641975308641976,17.283950617283953,0)" xlink:href="#af"/>
                <use transform="matrix(0.08641975308641976,0,0,0.08641975308641976,27.567901234567906,0)" xlink:href="#ai"/>
                <use transform="matrix(0.08641975308641976,0,0,0.08641975308641976,44.85185185185187,0)" xlink:href="#aV"/>
            </g>
            <path d="M240 0l2-218c-23 76-54 145-80 218h-23L58-218 59 0H30v-248h44l77 211c21-75 51-140 76-211h43V0h-30" id="aW"/>
            <g id="C">
                <use transform="matrix(0.08641975308641976,0,0,0.08641975308641976,0,0)" xlink:href="#aW"/>
                <use transform="matrix(0.08641975308641976,0,0,0.08641975308641976,25.83950617283951,0)" xlink:href="#as"/>
                <use transform="matrix(0.08641975308641976,0,0,0.08641975308641976,43.12345679012346,0)" xlink:href="#ak"/>
                <use transform="matrix(0.08641975308641976,0,0,0.08641975308641976,49.95061728395062,0)" xlink:href="#ac"/>
                <use transform="matrix(0.08641975308641976,0,0,0.08641975308641976,58.592592592592595,0)" xlink:href="#ah"/>
                <use transform="matrix(0.08641975308641976,0,0,0.08641975308641976,65.41975308641976,0)" xlink:href="#aU"/>
                <use transform="matrix(0.08641975308641976,0,0,0.08641975308641976,82.70370370370371,0)" xlink:href="#ak"/>
                <use transform="matrix(0.08641975308641976,0,0,0.08641975308641976,89.53086419753087,0)" xlink:href="#aa"/>
            </g>
            <g id="D">
                <use transform="matrix(0.08641975308641976,0,0,0.08641975308641976,0,0)" xlink:href="#ac"/>
                <use transform="matrix(0.08641975308641976,0,0,0.08641975308641976,8.641975308641976,0)" xlink:href="#aa"/>
                <use transform="matrix(0.08641975308641976,0,0,0.08641975308641976,25.925925925925927,0)" xlink:href="#aQ"/>
                <use transform="matrix(0.08641975308641976,0,0,0.08641975308641976,43.20987654320989,0)" xlink:href="#ag"/>
                <use transform="matrix(0.08641975308641976,0,0,0.08641975308641976,69.0493827160494,0)" xlink:href="#al"/>
                <use transform="matrix(0.08641975308641976,0,0,0.08641975308641976,84.60493827160495,0)" xlink:href="#aR"/>
            </g>
            <g id="E">
                <use transform="matrix(0.08641975308641976,0,0,0.08641975308641976,0,0)" xlink:href="#ag"/>
                <use transform="matrix(0.08641975308641976,0,0,0.08641975308641976,25.83950617283951,0)" xlink:href="#ae"/>
                <use transform="matrix(0.08641975308641976,0,0,0.08641975308641976,43.12345679012346,0)" xlink:href="#aj"/>
                <use transform="matrix(0.08641975308641976,0,0,0.08641975308641976,60.407407407407426,0)" xlink:href="#aa"/>
                <use transform="matrix(0.08641975308641976,0,0,0.08641975308641976,77.69135802469137,0)" xlink:href="#ak"/>
                <use transform="matrix(0.08641975308641976,0,0,0.08641975308641976,84.51851851851853,0)" xlink:href="#ah"/>
                <use transform="matrix(0.08641975308641976,0,0,0.08641975308641976,91.34567901234568,0)" xlink:href="#ab"/>
                <use transform="matrix(0.08641975308641976,0,0,0.08641975308641976,108.62962962962965,0)" xlink:href="#ai"/>
            </g>
            <path d="M96-169c-40 0-48 33-48 73s9 75 48 75c24 0 41-14 43-38l32 2c-6 37-31 61-74 61-59 0-76-41-82-99-10-93 101-131 147-64 4 7 5 14 7 22l-32 3c-4-21-16-35-41-35" id="aX"/>
            <g id="F">
                <use transform="matrix(0.08641975308641976,0,0,0.08641975308641976,0,0)" xlink:href="#aX"/>
                <use transform="matrix(0.08641975308641976,0,0,0.08641975308641976,15.555555555555557,0)" xlink:href="#as"/>
                <use transform="matrix(0.08641975308641976,0,0,0.08641975308641976,32.839506172839506,0)" xlink:href="#af"/>
                <use transform="matrix(0.08641975308641976,0,0,0.08641975308641976,43.123456790123456,0)" xlink:href="#af"/>
                <use transform="matrix(0.08641975308641976,0,0,0.08641975308641976,53.407407407407405,0)" xlink:href="#aa"/>
                <use transform="matrix(0.08641975308641976,0,0,0.08641975308641976,70.69135802469135,0)" xlink:href="#ab"/>
                <use transform="matrix(0.08641975308641976,0,0,0.08641975308641976,87.9753086419753,0)" xlink:href="#ac"/>
            </g>
            <path d="M206 0h-36l-40-164L89 0H53L-1-190h32L70-26l43-164h34l41 164 42-164h31" id="aY"/>
            <path d="M106-169C34-169 62-67 57 0H25v-261h32l-1 103c12-21 28-36 61-36 89 0 53 116 60 194h-32v-121c2-32-8-49-39-48" id="aZ"/>
            <g id="G">
                <use transform="matrix(0.08641975308641976,0,0,0.08641975308641976,0,0)" xlink:href="#aY"/>
                <use transform="matrix(0.08641975308641976,0,0,0.08641975308641976,22.38271604938272,0)" xlink:href="#ah"/>
                <use transform="matrix(0.08641975308641976,0,0,0.08641975308641976,29.20987654320988,0)" xlink:href="#ac"/>
                <use transform="matrix(0.08641975308641976,0,0,0.08641975308641976,37.851851851851855,0)" xlink:href="#aZ"/>
            </g>
            <path d="M115-194c53 0 69 39 70 98 0 66-23 100-70 100C84 3 66-7 56-30L54 0H23l1-261h32v101c10-23 28-34 59-34zm-8 174c40 0 45-34 45-75 0-40-5-75-45-74-42 0-51 32-51 76 0 43 10 73 51 73" id="ba"/>
            <g id="H">
                <use transform="matrix(0.08641975308641976,0,0,0.08641975308641976,0,0)" xlink:href="#ba"/>
                <use transform="matrix(0.08641975308641976,0,0,0.08641975308641976,17.283950617283953,0)" xlink:href="#ah"/>
                <use transform="matrix(0.08641975308641976,0,0,0.08641975308641976,24.111111111111114,0)" xlink:href="#ac"/>
            </g>
            <g id="I">
                <use transform="matrix(0.08641975308641976,0,0,0.08641975308641976,0,0)" xlink:href="#ap"/>
                <use transform="matrix(0.08641975308641976,0,0,0.08641975308641976,8.641975308641976,0)" xlink:href="#as"/>
                <use transform="matrix(0.08641975308641976,0,0,0.08641975308641976,25.925925925925927,0)" xlink:href="#ac"/>
                <use transform="matrix(0.08641975308641976,0,0,0.08641975308641976,34.567901234567906,0)" xlink:href="#as"/>
                <use transform="matrix(0.08641975308641976,0,0,0.08641975308641976,51.851851851851855,0)" xlink:href="#af"/>
                <use transform="matrix(0.08641975308641976,0,0,0.08641975308641976,62.13580246913581,0)" xlink:href="#aa"/>
                <use transform="matrix(0.08641975308641976,0,0,0.08641975308641976,79.41975308641976,0)" xlink:href="#aV"/>
            </g>
            <path d="M30 0v-248h33v221h125V0H30" id="bb"/>
            <g id="J">
                <use transform="matrix(0.08641975308641976,0,0,0.08641975308641976,0,0)" xlink:href="#bb"/>
                <use transform="matrix(0.08641975308641976,0,0,0.08641975308641976,17.283950617283953,0)" xlink:href="#ae"/>
                <use transform="matrix(0.08641975308641976,0,0,0.08641975308641976,34.567901234567906,0)" xlink:href="#aY"/>
                <use transform="matrix(0.08641975308641976,0,0,0.08641975308641976,56.95061728395062,0)" xlink:href="#aa"/>
                <use transform="matrix(0.08641975308641976,0,0,0.08641975308641976,74.23456790123457,0)" xlink:href="#af"/>
            </g>
            <g id="K">
                <use transform="matrix(0.08641975308641976,0,0,0.08641975308641976,0,0)" xlink:href="#ak"/>
                <use transform="matrix(0.08641975308641976,0,0,0.08641975308641976,6.8271604938271615,0)" xlink:href="#aa"/>
                <use transform="matrix(0.08641975308641976,0,0,0.08641975308641976,24.111111111111114,0)" xlink:href="#Z"/>
                <use transform="matrix(0.08641975308641976,0,0,0.08641975308641976,39.66666666666667,0)" xlink:href="#aa"/>
                <use transform="matrix(0.08641975308641976,0,0,0.08641975308641976,56.95061728395062,0)" xlink:href="#ak"/>
            </g>
            <g id="L">
                <use transform="matrix(0.08641975308641976,0,0,0.08641975308641976,0,0)" xlink:href="#ae"/>
                <use transform="matrix(0.08641975308641976,0,0,0.08641975308641976,17.283950617283953,0)" xlink:href="#ap"/>
            </g>
            <g id="M">
                <use transform="matrix(0.08641975308641976,0,0,0.08641975308641976,0,0)" xlink:href="#aj"/>
                <use transform="matrix(0.08641975308641976,0,0,0.08641975308641976,17.283950617283953,0)" xlink:href="#aa"/>
                <use transform="matrix(0.08641975308641976,0,0,0.08641975308641976,34.567901234567906,0)" xlink:href="#ac"/>
                <use transform="matrix(0.08641975308641976,0,0,0.08641975308641976,43.20987654320988,0)" xlink:href="#aQ"/>
                <use transform="matrix(0.08641975308641976,0,0,0.08641975308641976,60.49382716049384,0)" xlink:href="#ah"/>
                <use transform="matrix(0.08641975308641976,0,0,0.08641975308641976,67.320987654321,0)" xlink:href="#ak"/>
                <use transform="matrix(0.08641975308641976,0,0,0.08641975308641976,74.14814814814817,0)" xlink:href="#al"/>
            </g>
            <g id="N">
                <use transform="matrix(0.08641975308641976,0,0,0.08641975308641976,0,0)" xlink:href="#aY"/>
                <use transform="matrix(0.08641975308641976,0,0,0.08641975308641976,22.38271604938272,0)" xlink:href="#ah"/>
                <use transform="matrix(0.08641975308641976,0,0,0.08641975308641976,29.20987654320988,0)" xlink:href="#ac"/>
                <use transform="matrix(0.08641975308641976,0,0,0.08641975308641976,37.851851851851855,0)" xlink:href="#aZ"/>
                <use transform="matrix(0.08641975308641976,0,0,0.08641975308641976,55.13580246913581,0)" xlink:href="#ae"/>
                <use transform="matrix(0.08641975308641976,0,0,0.08641975308641976,72.41975308641976,0)" xlink:href="#as"/>
                <use transform="matrix(0.08641975308641976,0,0,0.08641975308641976,89.70370370370371,0)" xlink:href="#ac"/>
            </g>
            <g id="O">
                <use transform="matrix(0.08641975308641976,0,0,0.08641975308641976,0,0)" xlink:href="#ai"/>
                <use transform="matrix(0.08641975308641976,0,0,0.08641975308641976,17.283950617283953,0)" xlink:href="#ae"/>
                <use transform="matrix(0.08641975308641976,0,0,0.08641975308641976,34.567901234567906,0)" xlink:href="#ah"/>
                <use transform="matrix(0.08641975308641976,0,0,0.08641975308641976,41.39506172839506,0)" xlink:href="#ab"/>
                <use transform="matrix(0.08641975308641976,0,0,0.08641975308641976,58.679012345679006,0)" xlink:href="#ai"/>
            </g>
            <g id="P">
                <use transform="matrix(0.08641975308641976,0,0,0.08641975308641976,0,0)" xlink:href="#ah"/>
                <use transform="matrix(0.08641975308641976,0,0,0.08641975308641976,6.8271604938271615,0)" xlink:href="#ab"/>
                <use transform="matrix(0.08641975308641976,0,0,0.08641975308641976,24.111111111111114,0)" xlink:href="#ac"/>
                <use transform="matrix(0.08641975308641976,0,0,0.08641975308641976,32.75308641975309,0)" xlink:href="#ae"/>
            </g>
            <g id="Q">
                <use transform="matrix(0.08641975308641976,0,0,0.08641975308641976,0,0)" xlink:href="#ah"/>
                <use transform="matrix(0.08641975308641976,0,0,0.08641975308641976,6.8271604938271615,0)" xlink:href="#ag"/>
                <use transform="matrix(0.08641975308641976,0,0,0.08641975308641976,32.66666666666667,0)" xlink:href="#aU"/>
                <use transform="matrix(0.08641975308641976,0,0,0.08641975308641976,49.95061728395062,0)" xlink:href="#ak"/>
                <use transform="matrix(0.08641975308641976,0,0,0.08641975308641976,56.777777777777786,0)" xlink:href="#aa"/>
                <use transform="matrix(0.08641975308641976,0,0,0.08641975308641976,74.06172839506173,0)" xlink:href="#ag"/>
                <use transform="matrix(0.08641975308641976,0,0,0.08641975308641976,99.90123456790124,0)" xlink:href="#aa"/>
                <use transform="matrix(0.08641975308641976,0,0,0.08641975308641976,117.18518518518519,0)" xlink:href="#ab"/>
                <use transform="matrix(0.08641975308641976,0,0,0.08641975308641976,134.46913580246914,0)" xlink:href="#ac"/>
                <use transform="matrix(0.08641975308641976,0,0,0.08641975308641976,143.11111111111111,0)" xlink:href="#aQ"/>
                <use transform="matrix(0.08641975308641976,0,0,0.08641975308641976,160.39506172839506,0)" xlink:href="#ac"/>
                <use transform="matrix(0.08641975308641976,0,0,0.08641975308641976,169.03703703703704,0)" xlink:href="#ah"/>
                <use transform="matrix(0.08641975308641976,0,0,0.08641975308641976,175.8641975308642,0)" xlink:href="#ae"/>
                <use transform="matrix(0.08641975308641976,0,0,0.08641975308641976,193.14814814814818,0)" xlink:href="#ab"/>
            </g>
            <g id="R">
                <use transform="matrix(0.08641975308641976,0,0,0.08641975308641976,0,0)" xlink:href="#aj"/>
                <use transform="matrix(0.08641975308641976,0,0,0.08641975308641976,17.283950617283953,0)" xlink:href="#aa"/>
                <use transform="matrix(0.08641975308641976,0,0,0.08641975308641976,34.567901234567906,0)" xlink:href="#ac"/>
                <use transform="matrix(0.08641975308641976,0,0,0.08641975308641976,43.20987654320988,0)" xlink:href="#aQ"/>
                <use transform="matrix(0.08641975308641976,0,0,0.08641975308641976,60.49382716049384,0)" xlink:href="#ah"/>
                <use transform="matrix(0.08641975308641976,0,0,0.08641975308641976,67.320987654321,0)" xlink:href="#ak"/>
                <use transform="matrix(0.08641975308641976,0,0,0.08641975308641976,74.14814814814817,0)" xlink:href="#al"/>
                <use transform="matrix(0.08641975308641976,0,0,0.08641975308641976,89.70370370370374,0)" xlink:href="#aV"/>
            </g>
            <path fill="#3a414a" d="M19-91c0-222 71-428 58-668-3-62 121-44 170-33 118 27 229 50 293 128 44 53 63 97 63 217 0 165-189 328-383 400-36 13-62 45-108 45-66 0-93-23-93-89zm185-582c-30 151-43 322-58 489 5 39 27 28 60 14 129-54 276-147 276-304 0-155-106-203-278-199" id="bc"/>
            <path fill="#3a414a" d="M44-443c79-191 208-366 448-366 141 0 239 118 267 253 46 222-61 413-213 490-83 42-221 78-338 30-55-23-106-43-129-82-26-14-80-140-57-202 2-41 8-89 22-123zm103 115c1 136 75 191 208 191 130 0 180-50 241-135 38-53 55-111 55-169 0-109-73-236-179-227-143 12-260 151-311 271-9 24-14 47-14 69" id="bd"/>
            <path fill="#3a414a" d="M629-645c28 177 9 401 28 582 3 29-18 50-47 50-97 0-67-194-71-306-1-24-4-66-3-92 1-39-15-57-30-33-49 79-88 161-139 243-9 15-21 23-34 23-33 0-70-69-89-115-10-23-57-152-73-152-28 0-27 119-31 162-9 93-16 174-27 265-2 3-35 21-48 20-71-3-50-117-43-176 24-211 38-410 84-595 39-67 121 2 138 59 22 73 63 167 84 249 7 23 13 34 20 34 17 0 54-75 107-225 17-48 42-155 115-96 31 25 52 57 59 103" id="be"/>
            <path fill="#3a414a" d="M103-24C79 10-2-14 8-59c42-186 129-353 193-524 23-62 63-135 99-197 39-38 106-10 109 47 27 100 51 209 81 307 8 25 72 24 72 63 0 44-26 46-37 75 12 83 46 156 55 243 7 63-106 47-114 11-13-58-36-170-57-231-3-4-7-8-9-14-69 4-134 40-198 52-53 21-53 108-81 160-4 16-8 29-18 43zm215-551c-16 18-92 195-73 208 46 2 100-12 123-31-5-30-32-162-38-171-2-3-6-5-12-6" id="bf"/>
            <path fill="#3a414a" d="M292-638c-67 2-113 14-176 21-81 9-112-68-58-103 132-46 304-52 470-66l65 5c50 52 43 111-50 111-45 0-75 15-112 18-18 16-19 83-24 152-7 108-21 214-33 322-5 46 36 20 67 20 54 0 81-10 139-16 43 25 50 62 23 110-151 29-311 50-490 79C58 24-8 22 3-44c14-83 161-45 224-90 22-16 24-69 29-107 17-126 33-258 36-397" id="bg"/>
            <path fill="#3a414a" d="M24-128c0-158-18-313-5-472 6-74-11-192 62-191 78 1 88 68 113 130 59 143 102 191 174 297 50 73 81 109 92 109 8 0 12-3 13-9 24-163 3-322-12-477-6-63 62-76 101-37 65 64 45 212 54 340 10 141 7 304-15 413-8 15-20 23-37 23-76 0-203-132-244-200-33-54-79-109-116-169l4 4c-9-20-41-55-54-51-14 102-5 244 6 344 3 30-15 69-41 68-9 0-28-1-56-3-44-28-39-45-39-119" id="bh"/>
            <g id="S">
                <use transform="matrix(0.06666666666666667,0,0,0.06666666666666667,0,0)" xlink:href="#bc"/>
                <use transform="matrix(0.06666666666666667,0,0,0.06666666666666667,40.266666666666666,0)" xlink:href="#bd"/>
                <use transform="matrix(0.06666666666666667,0,0,0.06666666666666667,93.8,0)" xlink:href="#be"/>
                <use transform="matrix(0.06666666666666667,0,0,0.06666666666666667,138.6,0)" xlink:href="#bf"/>
                <use transform="matrix(0.06666666666666667,0,0,0.06666666666666667,177.73333333333332,0)" xlink:href="#bg"/>
                <use transform="matrix(0.06666666666666667,0,0,0.06666666666666667,220.06666666666666,0)" xlink:href="#bh"/>
            </g>
            <path fill="#3a414a" d="M330-158c82-22 193-18 286-31 38 11 58 81 24 113-25 24-71 25-116 25-135 0-238 34-358 47C61 7 4-52 15-159c12-113 37-213 32-340-2-59 2-121-2-178-2-44 35-62 81-61 104-31 222-52 345-64 68-7 103 34 111 94 2 12-3 22-9 31-33 14-62 15-103 16-100 2-196 10-270 40h-8c-18 23-11 79-15 106-1 13 5 22 16 25 82-10 176-25 264-12 44 7 78 26 71 72-7 49-76 30-125 30-78 0-138 22-210 29-24 1-35 28-36 52-2 41-10 83-8 126-19 84 122 51 181 35" id="bi"/>
            <path fill="#3a414a" d="M635-31c28-53 7-115-31-143-7-19-67-63-88-82-39-36-80-78-117-115 1-16 41-65 118-148l-10 11c30-36 53-67 85-95 54-48 78-89 78-117s-20-70-52-70c-36 0-116 78-245 230-22 26-38 59-67 71-30 12-85-104-102-151-13-36-72-158-75-157-34-47-96-35-89 35 8 88 69 162 101 236 14 20 74 122 77 140-20 61-139 209-182 265-18 23-24 44-24 60C11-36 45 1 69 0c45-2 96-97 124-134 67-89 109-132 124-131 48 2 103 85 141 115 20 16 39 33 56 52 49 58 88 82 121 67" id="bj"/>
            <path fill="#3a414a" d="M23-677c-68-88 127-122 212-122 113 0 253 24 291 82 92 144-48 310-153 365-52 27-102 48-161 69-56 20-53 15-58 80-4 49-8 103-13 153-3 31-19 46-43 46-44 0-65-28-63-81 5-162 8-330 16-486 3-53-4-75-28-106zm415 73c0-44-44-66-132-66-78 0-124 8-135 26-10 16-14 89-14 218 0 44 22 39 57 25 83-34 224-115 224-203" id="bk"/>
            <path fill="#3a414a" d="M608-642l-20 77c-36 56-69 94-113 138-49 48-58 40-29 81 33 46 69 89 97 147 44 89 52 141 40 147-3 38-20 49-63 52-68 5-97-106-129-160-40-68-56-162-144-164-53-1-27 78-45 121-7 56-12 123-28 170C157-4 113 24 66-1 46-11 40-39 49-87c19-111 19-139 19-313 0-144 1-187-40-242-27-37-13-94 26-108 103-36 250-59 389-41 63 8 182 85 165 149zm-140 11c-10-39-42-58-96-57-53 12-154 21-179 43-5 9-8 31-8 65 0 151 19 135 127 94 94-36 148-79 156-145" id="bl"/>
            <path fill="#3a414a" d="M593-790c58 0 99 54 77 117-5 13-15 16-35 14-70-7-152-3-229 7-31 20-24 81-26 127-4 138-16 277-16 422 0 32 4 70-21 83-26 36-88 7-103-20 1-182 10-346 21-521 2-27 11-81-18-84-73-7-138 11-206 3-20-18-39-18-32-51-3-78 74-91 145-91 129 0 251 6 369-8 25-3 49 2 74 2" id="bm"/>
            <path fill="#3a414a" d="M371-533c189 0 256 55 239 237-9 91-67 138-157 205C374-33 301-7 236-7 155-7 13-82 18-160c3-44 62-73 96-38 43 44 152 73 218 29 77-51 166-125 156-169 2-44-67-63-119-62-47 1-108 1-155 3C87-393 13-429 1-531c11-87 101-150 165-187 90-52 160-96 290-87 34 2 118 78 115 115-3 35-23 38-55 45-15 4-26-4-33-24-37-64-116-1-164 12-41 11-154 77-154 113 0 15 14 22 41 22 45 0 127-11 165-11" id="bn"/>
            <g id="T">
                <use transform="matrix(0.06666666666666667,0,0,0.06666666666666667,0,0)" xlink:href="#bi"/>
                <use transform="matrix(0.06666666666666667,0,0,0.06666666666666667,44.4,0)" xlink:href="#bj"/>
                <use transform="matrix(0.06666666666666667,0,0,0.06666666666666667,89.46666666666667,0)" xlink:href="#bk"/>
                <use transform="matrix(0.06666666666666667,0,0,0.06666666666666667,127.06666666666666,0)" xlink:href="#bi"/>
                <use transform="matrix(0.06666666666666667,0,0,0.06666666666666667,171.46666666666667,0)" xlink:href="#bl"/>
                <use transform="matrix(0.06666666666666667,0,0,0.06666666666666667,212.66666666666669,0)" xlink:href="#bm"/>
                <use transform="matrix(0.06666666666666667,0,0,0.06666666666666667,260.6,0)" xlink:href="#bn"/>
            </g>
            <path fill="#3a414a" d="M330-158c82-22 193-18 286-31 38 11 58 81 24 113-25 24-71 25-116 25-135 0-238 34-358 47C61 7 4-52 15-159c12-113 37-213 32-340-2-59 2-121-2-178-2-44 35-62 81-61 104-31 222-52 345-64 68-7 103 34 111 94 2 12-3 22-9 31-33 14-62 15-103 16-100 2-196 10-270 40h-8c-18 23-11 79-15 106-1 13 5 22 16 25 82-10 176-25 264-12 44 7 78 26 71 72-7 49-76 30-125 30-78 0-138 22-210 29-24 1-35 28-36 52-2 41-10 83-8 126-19 84 122 51 181 35" id="bo"/>
            <path fill="#3a414a" d="M590-683c0-95-64-132-148-103-62 21-113 58-161 92-97 69-165 165-223 275C-45-222 51 11 277-12c154-16 257-81 343-160 63-58 100-126 109-243 12-155-158-93-246-67-61 18-178 69-168 115-2 30 28 68 54 64 69-10 133-52 201-67 9-2 20 9 20 17 0 11-18 38-57 79-85 91-188 136-306 136-55 0-99-68-99-127 0-30 16-69 37-123 25-64 237-288 318-281 25-8 66 40 79 44 19 0 28-19 28-58" id="bp"/>
            <g id="U">
                <use transform="matrix(0.06666666666666667,0,0,0.06666666666666667,0,0)" xlink:href="#bo"/>
                <use transform="matrix(0.06666666666666667,0,0,0.06666666666666667,44.4,0)" xlink:href="#bh"/>
                <use transform="matrix(0.06666666666666667,0,0,0.06666666666666667,87.13333333333333,0)" xlink:href="#bp"/>
                <use transform="matrix(0.06666666666666667,0,0,0.06666666666666667,137.8,0)" xlink:href="#bg"/>
                <use transform="matrix(0.06666666666666667,0,0,0.06666666666666667,180.13333333333333,0)" xlink:href="#bh"/>
                <use transform="matrix(0.06666666666666667,0,0,0.06666666666666667,222.86666666666667,0)" xlink:href="#bi"/>
                <use transform="matrix(0.06666666666666667,0,0,0.06666666666666667,267.26666666666665,0)" xlink:href="#bi"/>
                <use transform="matrix(0.06666666666666667,0,0,0.06666666666666667,311.66666666666663,0)" xlink:href="#bl"/>
                <use transform="matrix(0.06666666666666667,0,0,0.06666666666666667,352.8666666666666,0)" xlink:href="#bg"/>
                <use transform="matrix(0.06666666666666667,0,0,0.06666666666666667,395.19999999999993,0)" xlink:href="#bh"/>
                <use transform="matrix(0.06666666666666667,0,0,0.06666666666666667,437.9333333333333,0)" xlink:href="#bp"/>
            </g>
            <path d="M39-49c-7-93 9-204-6-289-18-30-12-41 1-77 37-27 19-97 25-162 2-23-27-37-49-40-11-18-14-56 0-71 17-39 273-99 376-109 72-7 163-32 165 45 1 65-62 51-115 66-63 18-176 24-229 55-41 23-20 107-25 176 83-2 166-25 259-33 74-6 91 70 44 97-80 23-228 35-304 57-18 6-27 18-27 35-9 45 6 274-42 299-35 2-92-5-73-49" id="bq"/>
            <path d="M44-443c79-191 208-366 448-366 141 0 239 118 267 253 46 222-61 413-213 490-83 42-221 78-338 30-55-23-106-43-129-82-26-14-80-140-57-202 2-41 8-89 22-123zm103 115c1 136 75 191 208 191 130 0 180-50 241-135 38-53 55-111 55-169 0-109-73-236-179-227-143 12-260 151-311 271-9 24-14 47-14 69" id="br"/>
            <path d="M521-275c40-33 108-24 108 34 0 49-75 103-210 183-80 47-247 72-323 10-66-54-95-101-82-218 12-106 41-136 91-224 55-96 145-209 240-278 32-23 68-33 107-33 86 2 108 61 107 158 0 55-15 82-44 82-55 1-25-116-79-110-132 15-229 223-291 334-48 86-31 226 81 218 122-9 217-92 295-156" id="bs"/>
            <path d="M106-737c41-53 131 12 108 86-42 139-71 285-71 455 0 88 72 66 143 48 49-12 128-35 183-63 38-19 36-69 44-119 17-114 31-247 31-354 0-57 26-85 79-85 37 0 55 27 55 81 0 190-34 397-59 573 4 31 20 93-13 105-8 10-30 7-65-8-16-20-33-38-51-54C397-48 305 0 205 0 79 0 5-43 13-176c13-196 50-391 93-561" id="bt"/>
            <path d="M371-533c189 0 256 55 239 237-9 91-67 138-157 205C374-33 301-7 236-7 155-7 13-82 18-160c3-44 62-73 96-38 43 44 152 73 218 29 77-51 166-125 156-169 2-44-67-63-119-62-47 1-108 1-155 3C87-393 13-429 1-531c11-87 101-150 165-187 90-52 160-96 290-87 34 2 118 78 115 115-3 35-23 38-55 45-15 4-26-4-33-24-37-64-116-1-164 12-41 11-154 77-154 113 0 15 14 22 41 22 45 0 127-11 165-11" id="bu"/>
            <g id="V">
                <use transform="matrix(0.08,0,0,0.08,0,0)" xlink:href="#bq"/>
                <use transform="matrix(0.08,0,0,0.08,44.24,0)" xlink:href="#br"/>
                <use transform="matrix(0.08,0,0,0.08,108.47999999999999,0)" xlink:href="#bs"/>
                <use transform="matrix(0.08,0,0,0.08,159.2,0)" xlink:href="#bt"/>
                <use transform="matrix(0.08,0,0,0.08,215.44,0)" xlink:href="#bu"/>
            </g>
            <path fill="#3a414a" d="M266 0h-40l-56-210L115 0H75L2-248h35L96-30l15-64 43-154h32l59 218 59-218h35" id="bv"/>
            <path fill="#3a414a" d="M106-169C34-169 62-67 57 0H25v-261h32l-1 103c12-21 28-36 61-36 89 0 53 116 60 194h-32v-121c2-32-8-49-39-48" id="bw"/>
            <path fill="#3a414a" d="M33-154v-36h34v36H33zM33 0v-36h34V0H33" id="bx"/>
            <g id="W">
                <use transform="matrix(0.1851851851851852,0,0,0.1851851851851852,0,0)" xlink:href="#bv"/>
                <use transform="matrix(0.1851851851851852,0,0,0.1851851851851852,62.777777777777786,0)" xlink:href="#bw"/>
                <use transform="matrix(0.1851851851851852,0,0,0.1851851851851852,99.81481481481482,0)" xlink:href="#aO"/>
                <use transform="matrix(0.1851851851851852,0,0,0.1851851851851852,136.85185185185185,0)" xlink:href="#aM"/>
                <use transform="matrix(0.1851851851851852,0,0,0.1851851851851852,155.37037037037038,0)" xlink:href="#bx"/>
            </g>
            <path fill="#3a414a" d="M722-498c18-70 6-160 6-241 0-38 16-57 49-57 55 0 82 64 82 193 1 204-63 347-126 491-54 125-124 110-196 9-30-42-54-91-82-146-27-53-43-79-49-79-8-17-88 136-114 182C269-106 193 9 170-1 96-15 86-47 66-129 33-267 17-480 18-657c0-70 18-105 54-105 39 0 66 36 68 87 4 137-4 277 12 406 12 100 67-12 84-47 47-96 102-197 139-285 18-41 78-38 96-4 52 97 51 251 110 344 50 78 71 31 104-70 17-53 22-108 37-167" id="by"/>
            <path fill="#3a414a" d="M107-780c100 15 51 176 51 272 0 29 23 25 56 24 33-11 175 4 171-42 9-67 4-153 14-224 12-14 39-57 70-50 51 0 74 34 69 103L490-47c-6 28-25 57-57 56-118-5-54-182-54-299 0-34 3-75-15-85-65 6-127 12-191 19-52 29-23 162-29 239C135-7 87 19 22-30 10-48 7-67 13-88c-16-100 8-215 8-322 0-127-9-364 86-370" id="bz"/>
            <path fill="#3a414a" d="M95-352c46 0 98-50 98-97 0-70-128-102-164-40-34 59-2 137 66 137zM93-47c47 0 96-50 96-96 0-41-53-72-92-72-54-1-84 29-84 81 0 50 30 87 80 87" id="bA"/>
            <g id="X">
                <use transform="matrix(0.06666666666666667,0,0,0.06666666666666667,0,0)" xlink:href="#by"/>
                <use transform="matrix(0.06666666666666667,0,0,0.06666666666666667,57.86666666666667,0)" xlink:href="#bz"/>
                <use transform="matrix(0.06666666666666667,0,0,0.06666666666666667,93.93333333333334,0)" xlink:href="#bd"/>
                <use transform="matrix(0.06666666666666667,0,0,0.06666666666666667,147.46666666666667,0)" xlink:href="#bA"/>
            </g>
        </defs>
    </g>
</svg>