<svg xmlns="http://www.w3.org/2000/svg" xmlns:xlink="http://www.w3.org/1999/xlink" xmlns:lucid="lucid" width="1339.7" height="703"><g transform="translate(-22.33648481294324 -175.14601667434977)" lucid:page-tab-id="8QsQQHPJBuZ9"><path d="M436.62 299.15v10.1m0 10.12v20.22m0 10.1v20.22m0 10.12v20.22m0 10.1v20.23m0 10.1v20.22m0 10.12v20.22m0 10.1v20.23m0 10.1v20.22m0 10.12v20.22m0 10.1v20.23m0 10.1v20.22m0 10.12v20.22m0 10.1v20.23m0 10.1v20.22m0 10.12v10.1" stroke="#224c72" stroke-width="2" fill="none"/><path d="M437.62 299.17h-2v-1.02h2zM437.62 755.15h-2v-1.03h2z" stroke="#224c72" stroke-width=".05" fill="#224c72"/><path d="M695.6 299.15v10.1m0 10.12v20.22m0 10.1v20.22m0 10.12v20.22m0 10.1v20.23m0 10.1v20.22m0 10.12v20.22m0 10.1v20.23m0 10.1v20.22m0 10.12v20.22m0 10.1v20.23m0 10.1v20.22m0 10.12v20.22m0 10.1v20.23m0 10.1v20.22m0 10.12v10.1" stroke="#224c72" stroke-width="2" fill="none"/><path d="M696.6 299.17h-2v-1.02h2zM696.6 755.15h-2v-1.03h2z" stroke="#224c72" stroke-width=".05" fill="#224c72"/><path d="M43.84 202.65a6 6 0 0 1 6-6h189.82a6 6 0 0 1 6 6v88a6 6 0 0 1-6 6H49.84a6 6 0 0 1-6-6z" stroke="#4881b3" stroke-width="3" fill="#f5fbff"/><use xlink:href="#a" transform="matrix(1,0,0,1,43.83648481294324,196.64601667434977) translate(15.654999999999982 55.025)"/><use xlink:href="#b" transform="matrix(1,0,0,1,43.83648481294324,196.64601667434977) translate(98.505 55.025)"/><path d="M1257.05 299.15v10.1m0 10.12v20.22m0 10.1v20.22m0 10.12v20.22m0 10.1v20.23m0 10.1v20.22m0 10.12v20.22m0 10.1v20.23m0 10.1v20.22m0 10.12v20.22m0 10.1v20.23m0 10.1v20.22m0 10.12v20.22m0 10.1v20.23m0 10.1v20.22m0 10.12v10.1" stroke="#224c72" stroke-width="2" fill="none"/><path d="M1258.05 299.17h-2v-1.02h2zM1258.05 755.15h-2v-1.03h2z" stroke="#224c72" stroke-width=".05" fill="#224c72"/><path d="M144.75 299.15v10.1m0 10.12v20.22m0 10.1v20.22m0 10.12v20.22m0 10.1v20.23m0 10.1v20.22m0 10.12v20.22m0 10.1v20.23m0 10.1v20.22m0 10.12v20.22m0 10.1v20.23m0 10.1v20.22m0 10.12v20.22m0 10.1v20.23m0 10.1v20.22m0 10.12v10.1" stroke="#224c72" stroke-width="2" fill="none"/><path d="M145.75 299.17h-2v-1.02h2zM145.75 755.15h-2v-1.03h2z" stroke="#224c72" stroke-width=".05" fill="#224c72"/><path d="M968.58 299.15v10.1m0 10.12v20.22m0 10.1v20.22m0 10.12v20.22m0 10.1v20.23m0 10.1v20.22m0 10.12v20.22m0 10.1v20.23m0 10.1v20.22m0 10.12v20.22m0 10.1v20.23m0 10.1v20.22m0 10.12v20.22m0 10.1v20.23m0 10.1v20.22m0 10.12v10.1" stroke="#224c72" stroke-width="2" fill="none"/><path d="M969.58 299.17h-2v-1.02h2zM969.58 755.15h-2v-1.03h2z" stroke="#224c72" stroke-width=".05" fill="#224c72"/><path d="M43.84 762.65a6 6 0 0 1 6-6h189.82a6 6 0 0 1 6 6v88a6 6 0 0 1-6 6H49.84a6 6 0 0 1-6-6z" stroke="#4881b3" stroke-width="3" fill="#f5fbff"/><use xlink:href="#a" transform="matrix(1,0,0,1,43.83648481294324,756.6460166743498) translate(15.654999999999982 55.025)"/><use xlink:href="#b" transform="matrix(1,0,0,1,43.83648481294324,756.6460166743498) translate(98.505 55.025)"/><path d="M365.66 202.65a6 6 0 0 1 6-6h129.92a6 6 0 0 1 6 6v88a6 6 0 0 1-6 6H371.66a6 6 0 0 1-6-6z" stroke="#4881b3" stroke-width="3" fill="#f5fbff"/><use xlink:href="#c" transform="matrix(1,0,0,1,365.6564848129433,196.64601667434977) translate(15.604999999999999 55.025)"/><use xlink:href="#d" transform="matrix(1,0,0,1,365.6564848129433,196.64601667434977) translate(66.505 55.025)"/><path d="M365.66 762.65a6 6 0 0 1 6-6h129.92a6 6 0 0 1 6 6v88a6 6 0 0 1-6 6H371.66a6 6 0 0 1-6-6z" stroke="#4881b3" stroke-width="3" fill="#f5fbff"/><use xlink:href="#c" transform="matrix(1,0,0,1,365.6564848129433,756.6460166743498) translate(15.604999999999999 55.025)"/><use xlink:href="#d" transform="matrix(1,0,0,1,365.6564848129433,756.6460166743498) translate(66.505 55.025)"/><path d="M627.58 202.65a6 6 0 0 1 6-6H757.6a6 6 0 0 1 6 6v88a6 6 0 0 1-6 6H633.58a6 6 0 0 1-6-6z" stroke="#4881b3" stroke-width="3" fill="#f5fbff"/><use xlink:href="#e" transform="matrix(1,0,0,1,627.5764848129432,196.64601667434977) translate(15.555000000000001 55.025)"/><use xlink:href="#f" transform="matrix(1,0,0,1,627.5764848129432,196.64601667434977) translate(66.555 55.025)"/><path d="M627.58 762.65a6 6 0 0 1 6-6H757.6a6 6 0 0 1 6 6v88a6 6 0 0 1-6 6H633.58a6 6 0 0 1-6-6z" stroke="#4881b3" stroke-width="3" fill="#f5fbff"/><use xlink:href="#e" transform="matrix(1,0,0,1,627.5764848129432,756.6460166743498) translate(15.555000000000001 55.025)"/><use xlink:href="#f" transform="matrix(1,0,0,1,627.5764848129432,756.6460166743498) translate(66.555 55.025)"/><path d="M883.6 202.65a6 6 0 0 1 6-6h157.97a6 6 0 0 1 6 6v88a6 6 0 0 1-6 6H889.6a6 6 0 0 1-6-6z" stroke="#4881b3" stroke-width="3" fill="#f5fbff"/><use xlink:href="#g" transform="matrix(1,0,0,1,883.5964848129432,196.64601667434977) translate(15.579999999999993 55.025)"/><use xlink:href="#d" transform="matrix(1,0,0,1,883.5964848129432,196.64601667434977) translate(94.53 55.025)"/><path d="M883.6 762.65a6 6 0 0 1 6-6h157.97a6 6 0 0 1 6 6v88a6 6 0 0 1-6 6H889.6a6 6 0 0 1-6-6z" stroke="#4881b3" stroke-width="3" fill="#f5fbff"/><use xlink:href="#g" transform="matrix(1,0,0,1,883.5964848129432,756.6460166743498) translate(15.579999999999993 55.025)"/><use xlink:href="#d" transform="matrix(1,0,0,1,883.5964848129432,756.6460166743498) translate(94.53 55.025)"/><path d="M1173.57 202.65a6 6 0 0 1 6-6h154.97a6 6 0 0 1 6 6v88a6 6 0 0 1-6 6h-154.97a6 6 0 0 1-6-6z" stroke="#4881b3" stroke-width="3" fill="#f5fbff"/><use xlink:href="#h" transform="matrix(1,0,0,1,1173.5664848129431,196.64601667434977) translate(15.579999999999993 55.025)"/><use xlink:href="#d" transform="matrix(1,0,0,1,1173.5664848129431,196.64601667434977) translate(91.53 55.025)"/><path d="M1173.57 762.65a6 6 0 0 1 6-6h154.97a6 6 0 0 1 6 6v88a6 6 0 0 1-6 6h-154.97a6 6 0 0 1-6-6z" stroke="#4881b3" stroke-width="3" fill="#f5fbff"/><use xlink:href="#h" transform="matrix(1,0,0,1,1173.5664848129431,756.6460166743498) translate(15.579999999999993 55.025)"/><use xlink:href="#d" transform="matrix(1,0,0,1,1173.5664848129431,756.6460166743498) translate(91.53 55.025)"/><path d="M145.75 357.75h272.37M145.77 357.75h-1.02" stroke="#224c72" stroke-width="2" fill="none"/><path d="M433.38 357.75l-14.26 4.64v-9.28z" stroke="#224c72" stroke-width="2" fill="#224c72"/><use xlink:href="#i" transform="matrix(1,0,0,1,221.18495015947838,336.48050795326054) translate(0 11.516111611161117)"/><path d="M437.62 417.36H677.1M437.64 417.36h-1.02" stroke="#224c72" stroke-width="2" fill="none"/><path d="M692.35 417.36L678.1 422v-9.27z" stroke="#224c72" stroke-width="2" fill="#224c72"/><use xlink:href="#j" transform="matrix(1,0,0,1,470.3338205465167,396.08921664891267) translate(0 11.516111611161117)"/><path d="M696.6 476.97h253.48M696.6 476.97h-1" stroke="#224c72" stroke-width="2" fill="none"/><path d="M965.35 476.97l-14.27 4.64v-9.26z" stroke="#224c72" stroke-width="2" fill="#224c72"/><use xlink:href="#k" transform="matrix(1,0,0,1,747.9723849029523,455.69792534456474) translate(0 11.516111611161117)"/><path d="M967.58 536.58h-253.5M967.56 536.58h1.02" stroke="#224c72" stroke-width="2" fill="none"/><path d="M698.82 536.58l14.27-4.63v9.27z" stroke="#224c72" stroke-width="2" fill="#224c72"/><use xlink:href="#l" transform="matrix(1,0,0,1,718.0624839128533,515.3066340402167) translate(0 11.516111611161117)"/><path d="M696.6 596.2h541.95M696.6 596.2h-1" stroke="#224c72" stroke-width="2" fill="none"/><path d="M1253.82 596.2l-14.27 4.63v-9.28z" stroke="#224c72" stroke-width="2" fill="#224c72"/><g><use xlink:href="#m" transform="matrix(1,0,0,1,891.3276819326552,574.9153427358689) translate(0 11.516111611161117)"/></g><path d="M1256.05 655.8H714.1M1256.03 655.8h1.02" stroke="#224c72" stroke-width="2" fill="none"/><path d="M698.82 655.8l14.27-4.64v9.27z" stroke="#224c72" stroke-width="2" fill="#224c72"/><g><use xlink:href="#n" transform="matrix(1,0,0,1,856.9992728417462,634.5240514315209) translate(0 11.516111611161117)"/></g><path d="M694.6 715.4H163.24M694.56 715.4h1.03" stroke="#224c72" stroke-width="2" fill="none"/><path d="M147.98 715.4l14.27-4.63v9.27z" stroke="#224c72" stroke-width="2" fill="#224c72"/><g><use xlink:href="#o" transform="matrix(1,0,0,1,329.5970653709985,694.1327601271731) translate(0 11.516111611161117)"/></g><defs><path fill="#1D262B" d="M212-179c-10-28-35-45-73-45-59 0-87 40-87 99 0 60 29 101 89 101 43 0 62-24 78-52l27 14C228-24 195 4 139 4 59 4 22-46 18-125c-6-104 99-153 187-111 19 9 31 26 39 46" id="p"/><path fill="#1D262B" d="M84 4C-5 8 30-112 23-190h32v120c0 31 7 50 39 49 72-2 45-101 50-169h31l1 190h-30c-1-10 1-25-2-33-11 22-28 36-60 37" id="q"/><path fill="#1D262B" d="M135-143c-3-34-86-38-87 0 15 53 115 12 119 90S17 21 10-45l28-5c4 36 97 45 98 0-10-56-113-15-118-90-4-57 82-63 122-42 12 7 21 19 24 35" id="r"/><path fill="#1D262B" d="M59-47c-2 24 18 29 38 22v24C64 9 27 4 27-40v-127H5v-23h24l9-43h21v43h35v23H59v120" id="s"/><path fill="#1D262B" d="M100-194c62-1 85 37 85 99 1 63-27 99-86 99S16-35 15-95c0-66 28-99 85-99zM99-20c44 1 53-31 53-75 0-43-8-75-51-75s-53 32-53 75 10 74 51 75" id="t"/><path fill="#1D262B" d="M210-169c-67 3-38 105-44 169h-31v-121c0-29-5-50-35-48C34-165 62-65 56 0H25l-1-190h30c1 10-1 24 2 32 10-44 99-50 107 0 11-21 27-35 58-36 85-2 47 119 55 194h-31v-121c0-29-5-49-35-48" id="u"/><path fill="#1D262B" d="M100-194c63 0 86 42 84 106H49c0 40 14 67 53 68 26 1 43-12 49-29l28 8c-11 28-37 45-77 45C44 4 14-33 15-96c1-61 26-98 85-98zm52 81c6-60-76-77-97-28-3 7-6 17-6 28h103" id="v"/><path fill="#1D262B" d="M114-163C36-179 61-72 57 0H25l-1-190h30c1 12-1 29 2 39 6-27 23-49 58-41v29" id="w"/><g id="a"><use transform="matrix(0.05,0,0,0.05,0,0)" xlink:href="#p"/><use transform="matrix(0.05,0,0,0.05,12.950000000000001,0)" xlink:href="#q"/><use transform="matrix(0.05,0,0,0.05,22.950000000000003,0)" xlink:href="#r"/><use transform="matrix(0.05,0,0,0.05,31.950000000000003,0)" xlink:href="#s"/><use transform="matrix(0.05,0,0,0.05,36.95,0)" xlink:href="#t"/><use transform="matrix(0.05,0,0,0.05,46.95,0)" xlink:href="#u"/><use transform="matrix(0.05,0,0,0.05,61.900000000000006,0)" xlink:href="#v"/><use transform="matrix(0.05,0,0,0.05,71.9,0)" xlink:href="#w"/></g><path fill="#1D262B" d="M205 0l-28-72H64L36 0H1l101-248h38L239 0h-34zm-38-99l-47-123c-12 45-31 82-46 123h93" id="x"/><path fill="#1D262B" d="M115-194c55 1 70 41 70 98S169 2 115 4C84 4 66-9 55-30l1 105H24l-1-265h31l2 30c10-21 28-34 59-34zm-8 174c40 0 45-34 45-75s-6-73-45-74c-42 0-51 32-51 76 0 43 10 73 51 73" id="y"/><path fill="#1D262B" d="M24 0v-261h32V0H24" id="z"/><path fill="#1D262B" d="M24-231v-30h32v30H24zM24 0v-190h32V0H24" id="A"/><path fill="#1D262B" d="M96-169c-40 0-48 33-48 73s9 75 48 75c24 0 41-14 43-38l32 2c-6 37-31 61-74 61-59 0-76-41-82-99-10-93 101-131 147-64 4 7 5 14 7 22l-32 3c-4-21-16-35-41-35" id="B"/><path fill="#1D262B" d="M141-36C126-15 110 5 73 4 37 3 15-17 15-53c-1-64 63-63 125-63 3-35-9-54-41-54-24 1-41 7-42 31l-33-3c5-37 33-52 76-52 45 0 72 20 72 64v82c-1 20 7 32 28 27v20c-31 9-61-2-59-35zM48-53c0 20 12 33 32 33 41-3 63-29 60-74-43 2-92-5-92 41" id="C"/><path fill="#1D262B" d="M117-194c89-4 53 116 60 194h-32v-121c0-31-8-49-39-48C34-167 62-67 57 0H25l-1-190h30c1 10-1 24 2 32 11-22 29-35 61-36" id="D"/><g id="b"><use transform="matrix(0.05,0,0,0.05,0,0)" xlink:href="#x"/><use transform="matrix(0.05,0,0,0.05,12,0)" xlink:href="#y"/><use transform="matrix(0.05,0,0,0.05,22,0)" xlink:href="#y"/><use transform="matrix(0.05,0,0,0.05,32,0)" xlink:href="#z"/><use transform="matrix(0.05,0,0,0.05,35.95,0)" xlink:href="#A"/><use transform="matrix(0.05,0,0,0.05,39.900000000000006,0)" xlink:href="#B"/><use transform="matrix(0.05,0,0,0.05,48.900000000000006,0)" xlink:href="#C"/><use transform="matrix(0.05,0,0,0.05,58.900000000000006,0)" xlink:href="#s"/><use transform="matrix(0.05,0,0,0.05,63.900000000000006,0)" xlink:href="#A"/><use transform="matrix(0.05,0,0,0.05,67.85000000000001,0)" xlink:href="#t"/><use transform="matrix(0.05,0,0,0.05,77.85000000000001,0)" xlink:href="#D"/></g><path fill="#1D262B" d="M140-251c81 0 123 46 123 126C263-46 219 4 140 4 59 4 17-45 17-125s42-126 123-126zm0 227c63 0 89-41 89-101s-29-99-89-99c-61 0-89 39-89 99S79-25 140-24" id="E"/><path fill="#1D262B" d="M85-194c31 0 48 13 60 33l-1-100h32l1 261h-30c-2-10 0-23-3-31C134-8 116 4 85 4 32 4 16-35 15-94c0-66 23-100 70-100zm9 24c-40 0-46 34-46 75 0 40 6 74 45 74 42 0 51-32 51-76 0-42-9-74-50-73" id="F"/><g id="c"><use transform="matrix(0.05,0,0,0.05,0,0)" xlink:href="#E"/><use transform="matrix(0.05,0,0,0.05,14,0)" xlink:href="#w"/><use transform="matrix(0.05,0,0,0.05,19.95,0)" xlink:href="#F"/><use transform="matrix(0.05,0,0,0.05,29.950000000000003,0)" xlink:href="#v"/><use transform="matrix(0.05,0,0,0.05,39.95,0)" xlink:href="#w"/></g><path fill="#1D262B" d="M185-189c-5-48-123-54-124 2 14 75 158 14 163 119 3 78-121 87-175 55-17-10-28-26-33-46l33-7c5 56 141 63 141-1 0-78-155-14-162-118-5-82 145-84 179-34 5 7 8 16 11 25" id="G"/><path fill="#1D262B" d="M108 0H70L1-190h34L89-25l56-165h34" id="H"/><g id="d"><use transform="matrix(0.05,0,0,0.05,0,0)" xlink:href="#G"/><use transform="matrix(0.05,0,0,0.05,12,0)" xlink:href="#v"/><use transform="matrix(0.05,0,0,0.05,22,0)" xlink:href="#w"/><use transform="matrix(0.05,0,0,0.05,27.950000000000003,0)" xlink:href="#H"/><use transform="matrix(0.05,0,0,0.05,36.95,0)" xlink:href="#A"/><use transform="matrix(0.05,0,0,0.05,40.900000000000006,0)" xlink:href="#B"/><use transform="matrix(0.05,0,0,0.05,49.900000000000006,0)" xlink:href="#v"/></g><path fill="#1D262B" d="M30 0v-248h187v28H63v79h144v27H63v87h162V0H30" id="I"/><g id="e"><use transform="matrix(0.05,0,0,0.05,0,0)" xlink:href="#I"/><use transform="matrix(0.05,0,0,0.05,12,0)" xlink:href="#H"/><use transform="matrix(0.05,0,0,0.05,21,0)" xlink:href="#v"/><use transform="matrix(0.05,0,0,0.05,31,0)" xlink:href="#D"/><use transform="matrix(0.05,0,0,0.05,41,0)" xlink:href="#s"/></g><path fill="#1D262B" d="M233-177c-1 41-23 64-60 70L243 0h-38l-65-103H63V0H30v-248c88 3 205-21 203 71zM63-129c60-2 137 13 137-47 0-61-80-42-137-45v92" id="J"/><g id="f"><use transform="matrix(0.05,0,0,0.05,0,0)" xlink:href="#J"/><use transform="matrix(0.05,0,0,0.05,12.950000000000001,0)" xlink:href="#t"/><use transform="matrix(0.05,0,0,0.05,22.950000000000003,0)" xlink:href="#q"/><use transform="matrix(0.05,0,0,0.05,32.95,0)" xlink:href="#s"/><use transform="matrix(0.05,0,0,0.05,37.95,0)" xlink:href="#v"/><use transform="matrix(0.05,0,0,0.05,47.95,0)" xlink:href="#w"/></g><path fill="#1D262B" d="M33 0v-248h34V0H33" id="K"/><path fill="#1D262B" d="M179-190L93 31C79 59 56 82 12 73V49c39 6 53-20 64-50L1-190h34L92-34l54-156h33" id="L"/><g id="g"><use transform="matrix(0.05,0,0,0.05,0,0)" xlink:href="#K"/><use transform="matrix(0.05,0,0,0.05,5,0)" xlink:href="#D"/><use transform="matrix(0.05,0,0,0.05,15,0)" xlink:href="#H"/><use transform="matrix(0.05,0,0,0.05,24,0)" xlink:href="#v"/><use transform="matrix(0.05,0,0,0.05,34,0)" xlink:href="#D"/><use transform="matrix(0.05,0,0,0.05,44,0)" xlink:href="#s"/><use transform="matrix(0.05,0,0,0.05,49,0)" xlink:href="#t"/><use transform="matrix(0.05,0,0,0.05,59,0)" xlink:href="#w"/><use transform="matrix(0.05,0,0,0.05,64.95,0)" xlink:href="#L"/></g><path fill="#1D262B" d="M30-248c87 1 191-15 191 75 0 78-77 80-158 76V0H30v-248zm33 125c57 0 124 11 124-50 0-59-68-47-124-48v98" id="M"/><g id="h"><use transform="matrix(0.05,0,0,0.05,0,0)" xlink:href="#M"/><use transform="matrix(0.05,0,0,0.05,12,0)" xlink:href="#C"/><use transform="matrix(0.05,0,0,0.05,22,0)" xlink:href="#L"/><use transform="matrix(0.05,0,0,0.05,31,0)" xlink:href="#u"/><use transform="matrix(0.05,0,0,0.05,45.95,0)" xlink:href="#v"/><use transform="matrix(0.05,0,0,0.05,55.95,0)" xlink:href="#D"/><use transform="matrix(0.05,0,0,0.05,65.95,0)" xlink:href="#s"/></g><path fill="#1D262B" d="M190-63c-7 42-38 67-86 67-59 0-84-38-90-98-12-110 154-137 174-36l-49 2c-2-19-15-32-35-32-30 0-35 28-38 64-6 74 65 87 74 30" id="N"/><path fill="#1D262B" d="M133-34C117-15 103 5 69 4 32 3 11-16 11-54c-1-60 55-63 116-61 1-26-3-47-28-47-18 1-26 9-28 27l-52-2c7-38 36-58 82-57s74 22 75 68l1 82c-1 14 12 18 25 15v27c-30 8-71 5-69-32zm-48 3c29 0 43-24 42-57-32 0-66-3-65 30 0 17 8 27 23 27" id="O"/><path fill="#1D262B" d="M25 0v-261h50V0H25" id="P"/><path fill="#1D262B" d="M-4 44V30h207v14H-4" id="Q"/><path fill="#1D262B" d="M135-194c53 0 70 44 70 98 0 56-19 98-73 100-31 1-45-17-59-34 3 33 2 69 2 105H25l-1-265h48c2 10 0 23 3 31 11-24 29-35 60-35zM114-30c33 0 39-31 40-66 0-38-9-64-40-64-56 0-55 130 0 130" id="R"/><path fill="#1D262B" d="M25-224v-37h50v37H25zM25 0v-190h50V0H25" id="S"/><path fill="#1D262B" d="M67-93c0 74 22 123 53 168H70C40 30 18-18 18-93s22-123 52-168h50c-32 44-53 94-53 168" id="T"/><path fill="#1D262B" d="M24-248c93 1 206-16 204 79-1 75-69 88-152 82V0H24v-248zm52 121c47 0 100 7 100-41 0-47-54-39-100-39v80" id="U"/><path fill="#1D262B" d="M185-48c-13 30-37 53-82 52C43 2 14-33 14-96s30-98 90-98c62 0 83 45 84 108H66c0 31 8 55 39 56 18 0 30-7 34-22zm-45-69c5-46-57-63-70-21-2 6-4 13-4 21h74" id="V"/><path fill="#1D262B" d="M140-251c80 0 125 45 125 126S219 4 139 4C58 4 15-44 15-125s44-126 125-126zm-1 214c52 0 73-35 73-88 0-50-21-86-72-86-52 0-73 35-73 86s22 88 72 88" id="W"/><path fill="#1D262B" d="M135-150c-39-12-60 13-60 57V0H25l-1-190h47c2 13-1 29 3 40 6-28 27-53 61-41v41" id="X"/><path fill="#1D262B" d="M88-194c31-1 46 15 58 34l-1-101h50l1 261h-48c-2-10 0-23-3-31C134-8 116 4 84 4 32 4 16-41 15-95c0-56 19-97 73-99zm17 164c33 0 40-30 41-66 1-37-9-64-41-64s-38 30-39 65c0 43 13 65 39 65" id="Y"/><path fill="#1D262B" d="M102-93c0 74-22 123-52 168H0C30 29 54-18 53-93c0-74-22-123-53-168h50c30 45 52 94 52 168" id="Z"/><g id="i"><use transform="matrix(0.03998649864986499,0,0,0.03998649864986499,0,0)" xlink:href="#N"/><use transform="matrix(0.03998649864986499,0,0,0.03998649864986499,7.997299729972998,0)" xlink:href="#O"/><use transform="matrix(0.03998649864986499,0,0,0.03998649864986499,15.994599459945997,0)" xlink:href="#P"/><use transform="matrix(0.03998649864986499,0,0,0.03998649864986499,19.993249324932496,0)" xlink:href="#P"/><use transform="matrix(0.03998649864986499,0,0,0.03998649864986499,23.991899189918993,0)" xlink:href="#Q"/><use transform="matrix(0.03998649864986499,0,0,0.03998649864986499,31.989198919891994,0)" xlink:href="#O"/><use transform="matrix(0.03998649864986499,0,0,0.03998649864986499,39.98649864986499,0)" xlink:href="#R"/><use transform="matrix(0.03998649864986499,0,0,0.03998649864986499,48.74354185418542,0)" xlink:href="#S"/><use transform="matrix(0.03998649864986499,0,0,0.03998649864986499,52.74219171917192,0)" xlink:href="#T"/><use transform="matrix(0.03998649864986499,0,0,0.03998649864986499,57.500585058505855,0)" xlink:href="#U"/><use transform="matrix(0.03998649864986499,0,0,0.03998649864986499,67.09734473447345,0)" xlink:href="#P"/><use transform="matrix(0.03998649864986499,0,0,0.03998649864986499,71.09599459945996,0)" xlink:href="#O"/><use transform="matrix(0.03998649864986499,0,0,0.03998649864986499,79.09329432943295,0)" xlink:href="#N"/><use transform="matrix(0.03998649864986499,0,0,0.03998649864986499,87.09059405940594,0)" xlink:href="#V"/><use transform="matrix(0.03998649864986499,0,0,0.03998649864986499,95.08789378937895,0)" xlink:href="#W"/><use transform="matrix(0.03998649864986499,0,0,0.03998649864986499,106.28411341134114,0)" xlink:href="#X"/><use transform="matrix(0.03998649864986499,0,0,0.03998649864986499,111.88222322232224,0)" xlink:href="#Y"/><use transform="matrix(0.03998649864986499,0,0,0.03998649864986499,120.63926642664268,0)" xlink:href="#V"/><use transform="matrix(0.03998649864986499,0,0,0.03998649864986499,128.6365661566157,0)" xlink:href="#X"/><use transform="matrix(0.03998649864986499,0,0,0.03998649864986499,134.2346759675968,0)" xlink:href="#Z"/></g><path fill="#1D262B" d="M85 4C-2 5 27-109 22-190h50c7 57-23 150 33 157 60-5 35-97 40-157h50l1 190h-47c-2-12 1-28-3-38-12 25-28 42-61 42" id="aa"/><path fill="#1D262B" d="M135-194c52 0 70 43 70 98 0 56-19 99-73 100-30 1-46-15-58-35L72 0H24l1-261h50v104c11-23 29-37 60-37zM114-30c31 0 40-27 40-66 0-37-7-63-39-63s-41 28-41 65c0 36 8 64 40 64" id="ab"/><path fill="#1D262B" d="M137-138c1-29-70-34-71-4 15 46 118 7 119 86 1 83-164 76-172 9l43-7c4 19 20 25 44 25 33 8 57-30 24-41C81-84 22-81 20-136c-2-80 154-74 161-7" id="ac"/><path fill="#1D262B" d="M114-157C55-157 80-60 75 0H25v-261h50l-1 109c12-26 28-41 61-42 86-1 58 113 63 194h-50c-7-57 23-157-34-157" id="ad"/><path fill="#1D262B" d="M128 0H69L1-190h53L99-40l48-150h52" id="ae"/><path fill="#1D262B" d="M135-194c87-1 58 113 63 194h-50c-7-57 23-157-34-157-59 0-34 97-39 157H25l-1-190h47c2 12-1 28 3 38 12-26 28-41 61-42" id="af"/><path fill="#1D262B" d="M115-3C79 11 28 4 28-45v-112H4v-33h27l15-45h31v45h36v33H77v99c-1 23 16 31 38 25v30" id="ag"/><g id="j"><use transform="matrix(0.03998649864986499,0,0,0.03998649864986499,0,0)" xlink:href="#R"/><use transform="matrix(0.03998649864986499,0,0,0.03998649864986499,8.757043204320432,0)" xlink:href="#aa"/><use transform="matrix(0.03998649864986499,0,0,0.03998649864986499,17.514086408640864,0)" xlink:href="#ab"/><use transform="matrix(0.03998649864986499,0,0,0.03998649864986499,26.271129612961293,0)" xlink:href="#P"/><use transform="matrix(0.03998649864986499,0,0,0.03998649864986499,30.269779477947797,0)" xlink:href="#S"/><use transform="matrix(0.03998649864986499,0,0,0.03998649864986499,34.2684293429343,0)" xlink:href="#ac"/><use transform="matrix(0.03998649864986499,0,0,0.03998649864986499,42.2657290729073,0)" xlink:href="#ad"/><use transform="matrix(0.03998649864986499,0,0,0.03998649864986499,51.02277227722773,0)" xlink:href="#Q"/><use transform="matrix(0.03998649864986499,0,0,0.03998649864986499,59.02007200720074,0)" xlink:href="#V"/><use transform="matrix(0.03998649864986499,0,0,0.03998649864986499,67.01737173717373,0)" xlink:href="#ae"/><use transform="matrix(0.03998649864986499,0,0,0.03998649864986499,75.01467146714673,0)" xlink:href="#V"/><use transform="matrix(0.03998649864986499,0,0,0.03998649864986499,83.01197119711972,0)" xlink:href="#af"/><use transform="matrix(0.03998649864986499,0,0,0.03998649864986499,91.76901440144016,0)" xlink:href="#ag"/><use transform="matrix(0.03998649864986499,0,0,0.03998649864986499,96.52740774077408,0)" xlink:href="#T"/><use transform="matrix(0.03998649864986499,0,0,0.03998649864986499,101.28580108010802,0)" xlink:href="#W"/><use transform="matrix(0.03998649864986499,0,0,0.03998649864986499,112.48202070207023,0)" xlink:href="#X"/><use transform="matrix(0.03998649864986499,0,0,0.03998649864986499,118.08013051305133,0)" xlink:href="#Y"/><use transform="matrix(0.03998649864986499,0,0,0.03998649864986499,126.83717371737177,0)" xlink:href="#V"/><use transform="matrix(0.03998649864986499,0,0,0.03998649864986499,134.83447344734478,0)" xlink:href="#X"/><use transform="matrix(0.03998649864986499,0,0,0.03998649864986499,140.43258325832588,0)" xlink:href="#U"/><use transform="matrix(0.03998649864986499,0,0,0.03998649864986499,150.02934293429348,0)" xlink:href="#P"/><use transform="matrix(0.03998649864986499,0,0,0.03998649864986499,154.02799279927999,0)" xlink:href="#O"/><use transform="matrix(0.03998649864986499,0,0,0.03998649864986499,162.025292529253,0)" xlink:href="#N"/><use transform="matrix(0.03998649864986499,0,0,0.03998649864986499,170.022592259226,0)" xlink:href="#V"/><use transform="matrix(0.03998649864986499,0,0,0.03998649864986499,178.019891989199,0)" xlink:href="#Y"/><use transform="matrix(0.03998649864986499,0,0,0.03998649864986499,186.77693519351945,0)" xlink:href="#Z"/></g><path fill="#1D262B" d="M195-6C206 82 75 100 31 46c-4-6-6-13-8-21l49-6c3 16 16 24 34 25 40 0 42-37 40-79-11 22-30 35-61 35-53 0-70-43-70-97 0-56 18-96 73-97 30 0 46 14 59 34l2-30h47zm-90-29c32 0 41-27 41-63 0-35-9-62-40-62-32 0-39 29-40 63 0 36 9 62 39 62" id="ah"/><path fill="#1D262B" d="M238-95c0 69-44 99-111 99C63 4 22-25 22-93v-155h51v151c-1 38 19 59 55 60 90 1 49-130 58-211h52v153" id="ai"/><path fill="#1D262B" d="M24 0v-248h52V0H24" id="aj"/><path fill="#1D262B" d="M110-194c64 0 96 36 96 99 0 64-35 99-97 99-61 0-95-36-95-99 0-62 34-99 96-99zm-1 164c35 0 45-28 45-65 0-40-10-65-43-65-34 0-45 26-45 65 0 36 10 65 43 65" id="ak"/><path fill="#1D262B" d="M123 10C108 53 80 86 19 72V37c35 8 53-11 59-39L3-190h52l48 148c12-52 28-100 44-148h51" id="al"/><g id="k"><use transform="matrix(0.03998649864986499,0,0,0.03998649864986499,0,0)" xlink:href="#ag"/><use transform="matrix(0.03998649864986499,0,0,0.03998649864986499,4.758393339333934,0)" xlink:href="#X"/><use transform="matrix(0.03998649864986499,0,0,0.03998649864986499,10.356503150315033,0)" xlink:href="#S"/><use transform="matrix(0.03998649864986499,0,0,0.03998649864986499,14.355153015301529,0)" xlink:href="#ah"/><use transform="matrix(0.03998649864986499,0,0,0.03998649864986499,23.112196219621964,0)" xlink:href="#ah"/><use transform="matrix(0.03998649864986499,0,0,0.03998649864986499,31.869239423942396,0)" xlink:href="#V"/><use transform="matrix(0.03998649864986499,0,0,0.03998649864986499,39.8665391539154,0)" xlink:href="#X"/><use transform="matrix(0.03998649864986499,0,0,0.03998649864986499,45.4646489648965,0)" xlink:href="#T"/><use transform="matrix(0.03998649864986499,0,0,0.03998649864986499,50.223042304230425,0)" xlink:href="#ai"/><use transform="matrix(0.03998649864986499,0,0,0.03998649864986499,60.57954545454547,0)" xlink:href="#R"/><use transform="matrix(0.03998649864986499,0,0,0.03998649864986499,69.3365886588659,0)" xlink:href="#Y"/><use transform="matrix(0.03998649864986499,0,0,0.03998649864986499,78.09363186318635,0)" xlink:href="#O"/><use transform="matrix(0.03998649864986499,0,0,0.03998649864986499,86.09093159315934,0)" xlink:href="#ag"/><use transform="matrix(0.03998649864986499,0,0,0.03998649864986499,90.84932493249327,0)" xlink:href="#V"/><use transform="matrix(0.03998649864986499,0,0,0.03998649864986499,98.84662466246627,0)" xlink:href="#aj"/><use transform="matrix(0.03998649864986499,0,0,0.03998649864986499,102.84527452745277,0)" xlink:href="#af"/><use transform="matrix(0.03998649864986499,0,0,0.03998649864986499,111.60231773177321,0)" xlink:href="#ae"/><use transform="matrix(0.03998649864986499,0,0,0.03998649864986499,119.5996174617462,0)" xlink:href="#V"/><use transform="matrix(0.03998649864986499,0,0,0.03998649864986499,127.5969171917192,0)" xlink:href="#af"/><use transform="matrix(0.03998649864986499,0,0,0.03998649864986499,136.35396039603964,0)" xlink:href="#ag"/><use transform="matrix(0.03998649864986499,0,0,0.03998649864986499,141.11235373537357,0)" xlink:href="#ak"/><use transform="matrix(0.03998649864986499,0,0,0.03998649864986499,149.869396939694,0)" xlink:href="#X"/><use transform="matrix(0.03998649864986499,0,0,0.03998649864986499,155.4675067506751,0)" xlink:href="#al"/><use transform="matrix(0.03998649864986499,0,0,0.03998649864986499,163.46480648064812,0)" xlink:href="#Z"/></g><g id="l"><use transform="matrix(0.03998649864986499,0,0,0.03998649864986499,0,0)" xlink:href="#R"/><use transform="matrix(0.03998649864986499,0,0,0.03998649864986499,8.757043204320432,0)" xlink:href="#aa"/><use transform="matrix(0.03998649864986499,0,0,0.03998649864986499,17.514086408640864,0)" xlink:href="#ab"/><use transform="matrix(0.03998649864986499,0,0,0.03998649864986499,26.271129612961293,0)" xlink:href="#P"/><use transform="matrix(0.03998649864986499,0,0,0.03998649864986499,30.269779477947797,0)" xlink:href="#S"/><use transform="matrix(0.03998649864986499,0,0,0.03998649864986499,34.2684293429343,0)" xlink:href="#ac"/><use transform="matrix(0.03998649864986499,0,0,0.03998649864986499,42.2657290729073,0)" xlink:href="#ad"/><use transform="matrix(0.03998649864986499,0,0,0.03998649864986499,51.02277227722773,0)" xlink:href="#Q"/><use transform="matrix(0.03998649864986499,0,0,0.03998649864986499,59.02007200720074,0)" xlink:href="#V"/><use transform="matrix(0.03998649864986499,0,0,0.03998649864986499,67.01737173717373,0)" xlink:href="#ae"/><use transform="matrix(0.03998649864986499,0,0,0.03998649864986499,75.01467146714673,0)" xlink:href="#V"/><use transform="matrix(0.03998649864986499,0,0,0.03998649864986499,83.01197119711972,0)" xlink:href="#af"/><use transform="matrix(0.03998649864986499,0,0,0.03998649864986499,91.76901440144016,0)" xlink:href="#ag"/><use transform="matrix(0.03998649864986499,0,0,0.03998649864986499,96.52740774077408,0)" xlink:href="#T"/><use transform="matrix(0.03998649864986499,0,0,0.03998649864986499,101.28580108010802,0)" xlink:href="#aj"/><use transform="matrix(0.03998649864986499,0,0,0.03998649864986499,105.28445094509453,0)" xlink:href="#af"/><use transform="matrix(0.03998649864986499,0,0,0.03998649864986499,114.04149414941497,0)" xlink:href="#ae"/><use transform="matrix(0.03998649864986499,0,0,0.03998649864986499,122.03879387938797,0)" xlink:href="#V"/><use transform="matrix(0.03998649864986499,0,0,0.03998649864986499,130.03609360936096,0)" xlink:href="#af"/><use transform="matrix(0.03998649864986499,0,0,0.03998649864986499,138.7931368136814,0)" xlink:href="#ag"/><use transform="matrix(0.03998649864986499,0,0,0.03998649864986499,143.55153015301534,0)" xlink:href="#ak"/><use transform="matrix(0.03998649864986499,0,0,0.03998649864986499,152.30857335733577,0)" xlink:href="#X"/><use transform="matrix(0.03998649864986499,0,0,0.03998649864986499,157.90668316831687,0)" xlink:href="#al"/><use transform="matrix(0.03998649864986499,0,0,0.03998649864986499,165.90398289828988,0)" xlink:href="#ai"/><use transform="matrix(0.03998649864986499,0,0,0.03998649864986499,176.26048604860492,0)" xlink:href="#R"/><use transform="matrix(0.03998649864986499,0,0,0.03998649864986499,185.01752925292536,0)" xlink:href="#Y"/><use transform="matrix(0.03998649864986499,0,0,0.03998649864986499,193.77457245724577,0)" xlink:href="#O"/><use transform="matrix(0.03998649864986499,0,0,0.03998649864986499,201.7718721872188,0)" xlink:href="#ag"/><use transform="matrix(0.03998649864986499,0,0,0.03998649864986499,206.53026552655274,0)" xlink:href="#V"/><use transform="matrix(0.03998649864986499,0,0,0.03998649864986499,214.52756525652575,0)" xlink:href="#Y"/><use transform="matrix(0.03998649864986499,0,0,0.03998649864986499,223.2846084608462,0)" xlink:href="#Z"/></g><path fill="#1D262B" d="M24 0v-248h195v40H76v63h132v40H76v65h150V0H24" id="am"/><path fill="#1D262B" d="M144 0l-44-69L55 0H2l70-98-66-92h53l41 62 40-62h54l-67 91 71 99h-54" id="an"/><path fill="#1D262B" d="M220-157c-53 9-28 100-34 157h-49v-107c1-27-5-49-29-50C55-147 81-57 75 0H25l-1-190h47c2 12-1 28 3 38 10-53 101-56 108 0 13-22 24-43 59-42 82 1 51 116 57 194h-49v-107c-1-25-5-48-29-50" id="ao"/><g id="m"><use transform="matrix(0.03998649864986499,0,0,0.03998649864986499,0,0)" xlink:href="#ag"/><use transform="matrix(0.03998649864986499,0,0,0.03998649864986499,4.758393339333934,0)" xlink:href="#X"/><use transform="matrix(0.03998649864986499,0,0,0.03998649864986499,10.356503150315033,0)" xlink:href="#S"/><use transform="matrix(0.03998649864986499,0,0,0.03998649864986499,14.355153015301529,0)" xlink:href="#ah"/><use transform="matrix(0.03998649864986499,0,0,0.03998649864986499,23.112196219621964,0)" xlink:href="#ah"/><use transform="matrix(0.03998649864986499,0,0,0.03998649864986499,31.869239423942396,0)" xlink:href="#V"/><use transform="matrix(0.03998649864986499,0,0,0.03998649864986499,39.8665391539154,0)" xlink:href="#X"/><use transform="matrix(0.03998649864986499,0,0,0.03998649864986499,45.4646489648965,0)" xlink:href="#T"/><use transform="matrix(0.03998649864986499,0,0,0.03998649864986499,50.223042304230425,0)" xlink:href="#am"/><use transform="matrix(0.03998649864986499,0,0,0.03998649864986499,59.81980198019802,0)" xlink:href="#an"/><use transform="matrix(0.03998649864986499,0,0,0.03998649864986499,67.81710171017103,0)" xlink:href="#V"/><use transform="matrix(0.03998649864986499,0,0,0.03998649864986499,75.81440144014402,0)" xlink:href="#N"/><use transform="matrix(0.03998649864986499,0,0,0.03998649864986499,83.81170117011702,0)" xlink:href="#aa"/><use transform="matrix(0.03998649864986499,0,0,0.03998649864986499,92.56874437443743,0)" xlink:href="#ag"/><use transform="matrix(0.03998649864986499,0,0,0.03998649864986499,97.32713771377139,0)" xlink:href="#V"/><use transform="matrix(0.03998649864986499,0,0,0.03998649864986499,105.32443744374437,0)" xlink:href="#U"/><use transform="matrix(0.03998649864986499,0,0,0.03998649864986499,114.92119711971196,0)" xlink:href="#O"/><use transform="matrix(0.03998649864986499,0,0,0.03998649864986499,122.91849684968496,0)" xlink:href="#al"/><use transform="matrix(0.03998649864986499,0,0,0.03998649864986499,130.91579657965795,0)" xlink:href="#ao"/><use transform="matrix(0.03998649864986499,0,0,0.03998649864986499,143.71147614761475,0)" xlink:href="#V"/><use transform="matrix(0.03998649864986499,0,0,0.03998649864986499,151.70877587758775,0)" xlink:href="#af"/><use transform="matrix(0.03998649864986499,0,0,0.03998649864986499,160.4658190819082,0)" xlink:href="#ag"/><use transform="matrix(0.03998649864986499,0,0,0.03998649864986499,165.22421242124213,0)" xlink:href="#Z"/></g><g id="n"><use transform="matrix(0.03998649864986499,0,0,0.03998649864986499,0,0)" xlink:href="#R"/><use transform="matrix(0.03998649864986499,0,0,0.03998649864986499,8.757043204320432,0)" xlink:href="#aa"/><use transform="matrix(0.03998649864986499,0,0,0.03998649864986499,17.514086408640864,0)" xlink:href="#ab"/><use transform="matrix(0.03998649864986499,0,0,0.03998649864986499,26.271129612961293,0)" xlink:href="#P"/><use transform="matrix(0.03998649864986499,0,0,0.03998649864986499,30.269779477947797,0)" xlink:href="#S"/><use transform="matrix(0.03998649864986499,0,0,0.03998649864986499,34.2684293429343,0)" xlink:href="#ac"/><use transform="matrix(0.03998649864986499,0,0,0.03998649864986499,42.2657290729073,0)" xlink:href="#ad"/><use transform="matrix(0.03998649864986499,0,0,0.03998649864986499,51.02277227722773,0)" xlink:href="#Q"/><use transform="matrix(0.03998649864986499,0,0,0.03998649864986499,59.02007200720074,0)" xlink:href="#V"/><use transform="matrix(0.03998649864986499,0,0,0.03998649864986499,67.01737173717373,0)" xlink:href="#ae"/><use transform="matrix(0.03998649864986499,0,0,0.03998649864986499,75.01467146714673,0)" xlink:href="#V"/><use transform="matrix(0.03998649864986499,0,0,0.03998649864986499,83.01197119711972,0)" xlink:href="#af"/><use transform="matrix(0.03998649864986499,0,0,0.03998649864986499,91.76901440144016,0)" xlink:href="#ag"/><use transform="matrix(0.03998649864986499,0,0,0.03998649864986499,96.52740774077408,0)" xlink:href="#T"/><use transform="matrix(0.03998649864986499,0,0,0.03998649864986499,101.28580108010802,0)" xlink:href="#U"/><use transform="matrix(0.03998649864986499,0,0,0.03998649864986499,110.88256075607563,0)" xlink:href="#O"/><use transform="matrix(0.03998649864986499,0,0,0.03998649864986499,118.87986048604863,0)" xlink:href="#al"/><use transform="matrix(0.03998649864986499,0,0,0.03998649864986499,126.87716021602162,0)" xlink:href="#ao"/><use transform="matrix(0.03998649864986499,0,0,0.03998649864986499,139.67283978397842,0)" xlink:href="#V"/><use transform="matrix(0.03998649864986499,0,0,0.03998649864986499,147.67013951395143,0)" xlink:href="#af"/><use transform="matrix(0.03998649864986499,0,0,0.03998649864986499,156.42718271827187,0)" xlink:href="#ag"/><use transform="matrix(0.03998649864986499,0,0,0.03998649864986499,161.1855760576058,0)" xlink:href="#U"/><use transform="matrix(0.03998649864986499,0,0,0.03998649864986499,170.7823357335734,0)" xlink:href="#X"/><use transform="matrix(0.03998649864986499,0,0,0.03998649864986499,176.3804455445545,0)" xlink:href="#ak"/><use transform="matrix(0.03998649864986499,0,0,0.03998649864986499,185.13748874887494,0)" xlink:href="#N"/><use transform="matrix(0.03998649864986499,0,0,0.03998649864986499,193.13478847884795,0)" xlink:href="#V"/><use transform="matrix(0.03998649864986499,0,0,0.03998649864986499,201.132088208821,0)" xlink:href="#ac"/><use transform="matrix(0.03998649864986499,0,0,0.03998649864986499,209.12938793879397,0)" xlink:href="#ac"/><use transform="matrix(0.03998649864986499,0,0,0.03998649864986499,217.12668766876698,0)" xlink:href="#V"/><use transform="matrix(0.03998649864986499,0,0,0.03998649864986499,225.12398739873996,0)" xlink:href="#Y"/><use transform="matrix(0.03998649864986499,0,0,0.03998649864986499,233.88103060306045,0)" xlink:href="#Z"/></g><path fill="#1D262B" d="M121-226c-27-7-43 5-38 36h38v33H83V0H34v-157H6v-33h28c-9-59 32-81 87-68v32" id="ap"/><g id="o"><use transform="matrix(0.03998649864986499,0,0,0.03998649864986499,0,0)" xlink:href="#af"/><use transform="matrix(0.03998649864986499,0,0,0.03998649864986499,8.757043204320432,0)" xlink:href="#ak"/><use transform="matrix(0.03998649864986499,0,0,0.03998649864986499,17.514086408640864,0)" xlink:href="#ag"/><use transform="matrix(0.03998649864986499,0,0,0.03998649864986499,22.2724797479748,0)" xlink:href="#S"/><use transform="matrix(0.03998649864986499,0,0,0.03998649864986499,26.2711296129613,0)" xlink:href="#ap"/><use transform="matrix(0.03998649864986499,0,0,0.03998649864986499,31.02952295229523,0)" xlink:href="#al"/><use transform="matrix(0.03998649864986499,0,0,0.03998649864986499,39.02682268226823,0)" xlink:href="#T"/><use transform="matrix(0.03998649864986499,0,0,0.03998649864986499,43.78521602160217,0)" xlink:href="#U"/><use transform="matrix(0.03998649864986499,0,0,0.03998649864986499,53.381975697569764,0)" xlink:href="#O"/><use transform="matrix(0.03998649864986499,0,0,0.03998649864986499,61.37927542754277,0)" xlink:href="#al"/><use transform="matrix(0.03998649864986499,0,0,0.03998649864986499,69.37657515751576,0)" xlink:href="#ao"/><use transform="matrix(0.03998649864986499,0,0,0.03998649864986499,82.17225472547256,0)" xlink:href="#V"/><use transform="matrix(0.03998649864986499,0,0,0.03998649864986499,90.16955445544555,0)" xlink:href="#af"/><use transform="matrix(0.03998649864986499,0,0,0.03998649864986499,98.92659765976597,0)" xlink:href="#ag"/><use transform="matrix(0.03998649864986499,0,0,0.03998649864986499,103.6849909990999,0)" xlink:href="#U"/><use transform="matrix(0.03998649864986499,0,0,0.03998649864986499,113.28175067506751,0)" xlink:href="#X"/><use transform="matrix(0.03998649864986499,0,0,0.03998649864986499,118.87986048604861,0)" xlink:href="#ak"/><use transform="matrix(0.03998649864986499,0,0,0.03998649864986499,127.63690369036905,0)" xlink:href="#N"/><use transform="matrix(0.03998649864986499,0,0,0.03998649864986499,135.63420342034206,0)" xlink:href="#V"/><use transform="matrix(0.03998649864986499,0,0,0.03998649864986499,143.63150315031507,0)" xlink:href="#ac"/><use transform="matrix(0.03998649864986499,0,0,0.03998649864986499,151.62880288028808,0)" xlink:href="#ac"/><use transform="matrix(0.03998649864986499,0,0,0.03998649864986499,159.62610261026109,0)" xlink:href="#V"/><use transform="matrix(0.03998649864986499,0,0,0.03998649864986499,167.62340234023407,0)" xlink:href="#Y"/><use transform="matrix(0.03998649864986499,0,0,0.03998649864986499,176.38044554455453,0)" xlink:href="#Z"/></g></defs></g></svg>