<svg xmlns="http://www.w3.org/2000/svg"
    xmlns:xlink="http://www.w3.org/1999/xlink"
    xmlns:lucid="lucid" width="1181" height="901">
    <g transform="translate(-179.5 -359.5)" lucid:page-tab-id="0_0">
        <path d="M460 380h60v200h-60z" stroke="#3a414a" fill="#fff"/>
        <use xlink:href="#a" transform="matrix(1,0,0,1,465,385) translate(18.82716049382716 100.90277777777777)"/>
        <path d="M520 380h60v200h-60z" stroke="#3a414a" fill="#fff"/>
        <use xlink:href="#b" transform="matrix(1,0,0,1,525,385) translate(18.82716049382716 100.90277777777777)"/>
        <path d="M580 380h60v200h-60z" stroke="#3a414a" fill="#fff"/>
        <use xlink:href="#c" transform="matrix(1,0,0,1,585,385) translate(18.82716049382716 100.90277777777777)"/>
        <path d="M640 380h60v200h-60z" stroke="#3a414a" fill="#fff"/>
        <use xlink:href="#d" transform="matrix(1,0,0,1,645,385) translate(18.82716049382716 100.90277777777777)"/>
        <path d="M700 380h60v200h-60z" stroke="#3a414a" fill="#fff"/>
        <use xlink:href="#e" transform="matrix(1,0,0,1,705,385) translate(18.82716049382716 100.90277777777777)"/>
        <path d="M760 380h60v200h-60z" stroke="#3a414a" fill="#fff"/>
        <use xlink:href="#f" transform="matrix(1,0,0,1,765,385) translate(18.82716049382716 100.90277777777777)"/>
        <path d="M820 380h60v200h-60z" stroke="#3a414a" fill="#fff"/>
        <use xlink:href="#g" transform="matrix(1,0,0,1,825,385) translate(18.82716049382716 100.90277777777777)"/>
        <path d="M880 380h60v200h-60z" stroke="#3a414a" fill="#fff"/>
        <use xlink:href="#h" transform="matrix(1,0,0,1,885,385) translate(18.82716049382716 100.90277777777777)"/>
        <path d="M460 640h60v200h-60z" stroke="#3a414a" fill="#fff"/>
        <use xlink:href="#a" transform="matrix(1,0,0,1,465,645) translate(18.82716049382716 100.90277777777777)"/>
        <path d="M520 640h60v200h-60z" stroke="#3a414a" fill="#fff"/>
        <use xlink:href="#b" transform="matrix(1,0,0,1,525,645) translate(18.82716049382716 100.90277777777777)"/>
        <path d="M580 640h60v200h-60z" stroke="#3a414a" fill="#fff"/>
        <use xlink:href="#c" transform="matrix(1,0,0,1,585,645) translate(18.82716049382716 100.90277777777777)"/>
        <path d="M640 640h60v200h-60z" stroke="#3a414a" fill="#fff"/>
        <use xlink:href="#d" transform="matrix(1,0,0,1,645,645) translate(18.82716049382716 100.90277777777777)"/>
        <path d="M700 640h60v200h-60z" stroke="#3a414a" fill="#fff"/>
        <use xlink:href="#e" transform="matrix(1,0,0,1,705,645) translate(18.82716049382716 100.90277777777777)"/>
        <path d="M460 900h60v200h-60z" stroke="#3a414a" fill="#fff"/>
        <use xlink:href="#a" transform="matrix(1,0,0,1,465,905) translate(18.82716049382716 100.90277777777777)"/>
        <path d="M520 900h60v200h-60z" stroke="#3a414a" fill="#fff"/>
        <use xlink:href="#b" transform="matrix(1,0,0,1,525,905) translate(18.82716049382716 100.90277777777777)"/>
        <path d="M580 900h60v200h-60z" stroke="#3a414a" fill="#fff"/>
        <use xlink:href="#c" transform="matrix(1,0,0,1,585,905) translate(18.82716049382716 100.90277777777777)"/>
        <path d="M640 900h60v200h-60z" stroke="#3a414a" fill="#fff"/>
        <use xlink:href="#d" transform="matrix(1,0,0,1,645,905) translate(18.82716049382716 100.90277777777777)"/>
        <path d="M700 900h60v200h-60z" stroke="#3a414a" fill="#fff"/>
        <use xlink:href="#e" transform="matrix(1,0,0,1,705,905) translate(18.82716049382716 100.90277777777777)"/>
        <path d="M760 900h60v200h-60z" stroke="#3a414a" fill="#fff"/>
        <use xlink:href="#f" transform="matrix(1,0,0,1,765,905) translate(18.82716049382716 100.90277777777777)"/>
        <path d="M820 900h60v200h-60z" stroke="#3a414a" fill="#fff"/>
        <use xlink:href="#g" transform="matrix(1,0,0,1,825,905) translate(18.82716049382716 100.90277777777777)"/>
        <path d="M880 900h60v200h-60z" stroke="#3a414a" fill="#fff"/>
        <use xlink:href="#h" transform="matrix(1,0,0,1,885,905) translate(18.82716049382716 100.90277777777777)"/>
        <path d="M940 900h60v200h-60z" stroke="#3a414a" fill="#fff"/>
        <use xlink:href="#i" transform="matrix(1,0,0,1,945,905) translate(18.82716049382716 100.90277777777777)"/>
        <path d="M1000 900h60v200h-60z" stroke="#3a414a" fill="#fff"/>
        <use xlink:href="#j" transform="matrix(1,0,0,1,1005,905) translate(18.82716049382716 100.90277777777777)"/>
        <path d="M200 456a6 6 0 0 1 6-6h228a6 6 0 0 1 6 6v48a6 6 0 0 1-6 6H206a6 6 0 0 1-6-6z" stroke="#000" stroke-opacity="0" fill="#fff" fill-opacity="0"/>
        <use xlink:href="#k" transform="matrix(1,0,0,1,205,455) translate(49.96296296296296 30.708333333333332)"/>
        <use xlink:href="#l" transform="matrix(1,0,0,1,205,455) translate(165.22222222222223 30.708333333333332)"/>
        <path d="M200 706a6 6 0 0 1 6-6h228a6 6 0 0 1 6 6v48a6 6 0 0 1-6 6H206a6 6 0 0 1-6-6z" stroke="#000" stroke-opacity="0" fill="#fff" fill-opacity="0"/>
        <use xlink:href="#k" transform="matrix(1,0,0,1,205,705) translate(49.96296296296296 30.708333333333332)"/>
        <use xlink:href="#m" transform="matrix(1,0,0,1,205,705) translate(165.22222222222223 30.708333333333332)"/>
        <path d="M200 956a6 6 0 0 1 6-6h228a6 6 0 0 1 6 6v48a6 6 0 0 1-6 6H206a6 6 0 0 1-6-6z" stroke="#000" stroke-opacity="0" fill="#fff" fill-opacity="0"/>
        <use xlink:href="#k" transform="matrix(1,0,0,1,205,955) translate(49.96296296296296 30.708333333333332)"/>
        <use xlink:href="#n" transform="matrix(1,0,0,1,205,955) translate(165.22222222222223 30.708333333333332)"/>
        <path d="M490 1179.5v-62.62" stroke="#3a414a" fill="none"/>
        <path d="M490.5 1180h-1v-.5h1z" stroke="#3a414a" stroke-width=".05" fill="#3a414a"/>
        <path d="M490 1102.12l4.63 14.26h-9.26z" stroke="#3a414a" fill="#3a414a"/>
        <path d="M370 1186a6 6 0 0 1 6-6h228a6 6 0 0 1 6 6v48a6 6 0 0 1-6 6H376a6 6 0 0 1-6-6z" stroke="#000" stroke-opacity="0" fill="#fff" fill-opacity="0"/>
        <use xlink:href="#o" transform="matrix(1,0,0,1,375,1185) translate(85.58641975308642 30.27777777777778)"/>
        <path d="M1220 709.5V486a6 6 0 0 0-6-6H956.88" stroke="#3a414a" fill="none"/>
        <path d="M1220.5 710h-1v-.5h1z" stroke="#3a414a" stroke-width=".05" fill="#3a414a"/>
        <path d="M942.12 480l14.26-4.63v9.26z" stroke="#3a414a" fill="#3a414a"/>
        <path d="M1100 716a6 6 0 0 1 6-6h228a6 6 0 0 1 6 6v48a6 6 0 0 1-6 6h-228a6 6 0 0 1-6-6z" stroke="#000" stroke-opacity="0" fill="#fff" fill-opacity="0"/>
        <use xlink:href="#p" transform="matrix(1,0,0,1,1105,715) translate(60.83333333333333 30.27777777777778)"/>
        <use xlink:href="#q" transform="matrix(1,0,0,1,1105,715) translate(111.32716049382717 30.27777777777778)"/>
        <path d="M1220 770.5V994a6 6 0 0 1-6 6h-137.12" stroke="#3a414a" fill="none"/>
        <path d="M1220.5 770.5h-1v-.5h1z" stroke="#3a414a" stroke-width=".05" fill="#3a414a"/>
        <path d="M1062.12 1000l14.26-4.63v9.26z" stroke="#3a414a" fill="#3a414a"/>
        <path d="M1099.5 740H776.88" stroke="#3a414a" fill="none"/>
        <path d="M1100 740.5h-.5v-1h.5z" stroke="#3a414a" stroke-width=".05" fill="#3a414a"/>
        <path d="M762.12 740l14.26-4.63v9.26z" stroke="#3a414a" fill="#3a414a"/>
        <defs>
            <path fill="#3a414a" d="M101-251c68 0 85 55 85 127S166 4 100 4C33 4 14-52 14-124c0-73 17-127 87-127zm-1 229c47 0 54-49 54-102s-4-102-53-102c-51 0-55 48-55 102 0 53 5 102 54 102" id="r"/>
            <use transform="matrix(0.06172839506172839,0,0,0.06172839506172839,0,0)" xlink:href="#r" id="a"/>
            <path fill="#3a414a" d="M27 0v-27h64v-190l-56 39v-29l58-41h29v221h61V0H27" id="s"/>
            <use transform="matrix(0.06172839506172839,0,0,0.06172839506172839,0,0)" xlink:href="#s" id="b"/>
            <path fill="#3a414a" d="M101-251c82-7 93 87 43 132L82-64C71-53 59-42 53-27h129V0H18c2-99 128-94 128-182 0-28-16-43-45-43s-46 15-49 41l-32-3c6-41 34-60 81-64" id="t"/>
            <use transform="matrix(0.06172839506172839,0,0,0.06172839506172839,0,0)" xlink:href="#t" id="c"/>
            <path fill="#3a414a" d="M126-127c33 6 58 20 58 59 0 88-139 92-164 29-3-8-5-16-6-25l32-3c6 27 21 44 54 44 32 0 52-15 52-46 0-38-36-46-79-43v-28c39 1 72-4 72-42 0-27-17-43-46-43-28 0-47 15-49 41l-32-3c6-42 35-63 81-64 48-1 79 21 79 65 0 36-21 52-52 59" id="u"/>
            <use transform="matrix(0.06172839506172839,0,0,0.06172839506172839,0,0)" xlink:href="#u" id="d"/>
            <path fill="#3a414a" d="M155-56V0h-30v-56H8v-25l114-167h33v167h35v25h-35zm-30-156c-27 46-58 90-88 131h88v-131" id="v"/>
            <use transform="matrix(0.06172839506172839,0,0,0.06172839506172839,0,0)" xlink:href="#v" id="e"/>
            <path fill="#3a414a" d="M54-142c48-35 137-8 131 61C196 18 31 33 14-55l32-4c7 23 22 37 52 37 35-1 51-22 54-58 4-55-73-65-99-34H22l8-134h141v27H59" id="w"/>
            <use transform="matrix(0.06172839506172839,0,0,0.06172839506172839,0,0)" xlink:href="#w" id="f"/>
            <path fill="#3a414a" d="M110-160c48 1 74 30 74 79 0 53-28 85-80 85-65 0-83-55-86-122-5-90 50-162 133-122 14 7 22 21 27 39l-31 6c-5-40-67-38-82-6-9 19-15 44-15 74 11-20 30-34 60-33zm-7 138c34 0 49-23 49-58s-16-56-50-56c-29 0-50 16-49 49 1 36 15 65 50 65" id="x"/>
            <use transform="matrix(0.06172839506172839,0,0,0.06172839506172839,0,0)" xlink:href="#x" id="g"/>
            <path fill="#3a414a" d="M64 0c3-98 48-159 88-221H18v-27h164v26C143-157 98-101 97 0H64" id="y"/>
            <use transform="matrix(0.06172839506172839,0,0,0.06172839506172839,0,0)" xlink:href="#y" id="h"/>
            <path fill="#3a414a" d="M134-131c28 9 52 24 51 62-1 50-34 73-85 73S17-19 16-69c0-36 21-54 49-61-75-25-45-126 34-121 46 3 78 18 79 63 0 33-17 51-44 57zm-34-11c31 1 46-15 46-44 0-28-17-43-47-42-29 0-46 13-45 42 1 28 16 44 46 44zm1 122c35 0 51-18 51-52 0-30-18-46-53-46-33 0-51 17-51 47 0 34 19 51 53 51" id="z"/>
            <use transform="matrix(0.06172839506172839,0,0,0.06172839506172839,0,0)" xlink:href="#z" id="i"/>
            <path fill="#3a414a" d="M99-251c64 0 84 50 84 122C183-37 130 33 47-8c-14-7-20-23-25-40l30-5c6 39 69 39 84 7 9-19 16-44 16-74-10 22-31 35-62 35-49 0-73-33-73-83 0-54 28-83 82-83zm-1 141c31-1 51-18 51-49 0-36-14-67-51-67-34 0-49 23-49 58 0 34 15 58 49 58" id="A"/>
            <use transform="matrix(0.06172839506172839,0,0,0.06172839506172839,0,0)" xlink:href="#A" id="j"/>
            <path fill="#3a414a" d="M24-248c93 1 206-16 204 79-1 75-69 88-152 82V0H24v-248zm52 121c47 0 100 7 100-41 0-47-54-39-100-39v80" id="B"/>
            <path fill="#3a414a" d="M133-34C117-15 103 5 69 4 32 3 11-16 11-54c-1-60 55-63 116-61 1-26-3-47-28-47-18 1-26 9-28 27l-52-2c7-38 36-58 82-57s74 22 75 68l1 82c-1 14 12 18 25 15v27c-30 8-71 5-69-32zm-48 3c29 0 43-24 42-57-32 0-66-3-65 30 0 17 8 27 23 27" id="C"/>
            <path fill="#3a414a" d="M135-150c-39-12-60 13-60 57V0H25l-1-190h47c2 13-1 29 3 40 6-28 27-53 61-41v41" id="D"/>
            <path fill="#3a414a" d="M115-3C79 11 28 4 28-45v-112H4v-33h27l15-45h31v45h36v33H77v99c-1 23 16 31 38 25v30" id="E"/>
            <path fill="#3a414a" d="M25-224v-37h50v37H25zM25 0v-190h50V0H25" id="F"/>
            <path fill="#3a414a" d="M110-194c64 0 96 36 96 99 0 64-35 99-97 99-61 0-95-36-95-99 0-62 34-99 96-99zm-1 164c35 0 45-28 45-65 0-40-10-65-43-65-34 0-45 26-45 65 0 36 10 65 43 65" id="G"/>
            <path fill="#3a414a" d="M135-194c87-1 58 113 63 194h-50c-7-57 23-157-34-157-59 0-34 97-39 157H25l-1-190h47c2 12-1 28 3 38 12-26 28-41 61-42" id="H"/>
            <g id="k">
                <use transform="matrix(0.07407407407407407,0,0,0.07407407407407407,0,0)" xlink:href="#B"/>
                <use transform="matrix(0.07407407407407407,0,0,0.07407407407407407,17.77777777777778,0)" xlink:href="#C"/>
                <use transform="matrix(0.07407407407407407,0,0,0.07407407407407407,32.592592592592595,0)" xlink:href="#D"/>
                <use transform="matrix(0.07407407407407407,0,0,0.07407407407407407,42.96296296296296,0)" xlink:href="#E"/>
                <use transform="matrix(0.07407407407407407,0,0,0.07407407407407407,51.77777777777777,0)" xlink:href="#F"/>
                <use transform="matrix(0.07407407407407407,0,0,0.07407407407407407,59.18518518518518,0)" xlink:href="#E"/>
                <use transform="matrix(0.07407407407407407,0,0,0.07407407407407407,68,0)" xlink:href="#F"/>
                <use transform="matrix(0.07407407407407407,0,0,0.07407407407407407,75.4074074074074,0)" xlink:href="#G"/>
                <use transform="matrix(0.07407407407407407,0,0,0.07407407407407407,91.62962962962962,0)" xlink:href="#H"/>
            </g>
            <path fill="#3a414a" d="M101-251c68 0 84 54 84 127C185-50 166 4 99 4S15-52 14-124c-1-75 17-127 87-127zm-1 216c37-5 36-46 36-89s4-89-36-89c-39 0-36 45-36 89 0 43-3 85 36 89" id="I"/>
            <use transform="matrix(0.07407407407407407,0,0,0.07407407407407407,0,0)" xlink:href="#I" id="l"/>
            <path fill="#3a414a" d="M23 0v-37h61v-169l-59 37v-38l62-41h46v211h57V0H23" id="J"/>
            <use transform="matrix(0.07407407407407407,0,0,0.07407407407407407,0,0)" xlink:href="#J" id="m"/>
            <path fill="#3a414a" d="M182-182c0 78-84 86-111 141h115V0H12c-6-101 99-100 120-180 1-22-12-31-33-32-23 0-32 14-35 34l-49-3c5-45 32-70 84-70 51 0 83 22 83 69" id="K"/>
            <use transform="matrix(0.07407407407407407,0,0,0.07407407407407407,0,0)" xlink:href="#K" id="n"/>
            <path fill="#3a414a" d="M140-251c81 0 123 46 123 126C263-46 219 4 140 4 59 4 17-45 17-125s42-126 123-126zm0 227c63 0 89-41 89-101s-29-99-89-99c-61 0-89 39-89 99S79-25 140-24" id="L"/>
            <path fill="#3a414a" d="M101-234c-31-9-42 10-38 44h38v23H63V0H32v-167H5v-23h27c-7-52 17-82 69-68v24" id="M"/>
            <path fill="#3a414a" d="M135-143c-3-34-86-38-87 0 15 53 115 12 119 90S17 21 10-45l28-5c4 36 97 45 98 0-10-56-113-15-118-90-4-57 82-63 122-42 12 7 21 19 24 35" id="N"/>
            <path fill="#3a414a" d="M100-194c63 0 86 42 84 106H49c0 40 14 67 53 68 26 1 43-12 49-29l28 8c-11 28-37 45-77 45C44 4 14-33 15-96c1-61 26-98 85-98zm52 81c6-60-76-77-97-28-3 7-6 17-6 28h103" id="O"/>
            <path fill="#3a414a" d="M59-47c-2 24 18 29 38 22v24C64 9 27 4 27-40v-127H5v-23h24l9-43h21v43h35v23H59v120" id="P"/>
            <g id="o">
                <use transform="matrix(0.06172839506172839,0,0,0.06172839506172839,0,0)" xlink:href="#L"/>
                <use transform="matrix(0.06172839506172839,0,0,0.06172839506172839,17.28395061728395,0)" xlink:href="#M"/>
                <use transform="matrix(0.06172839506172839,0,0,0.06172839506172839,23.02469135802469,0)" xlink:href="#M"/>
                <use transform="matrix(0.06172839506172839,0,0,0.06172839506172839,29.197530864197528,0)" xlink:href="#N"/>
                <use transform="matrix(0.06172839506172839,0,0,0.06172839506172839,40.30864197530864,0)" xlink:href="#O"/>
                <use transform="matrix(0.06172839506172839,0,0,0.06172839506172839,52.654320987654316,0)" xlink:href="#P"/>
            </g>
            <path fill="#3a414a" d="M190 0L58-211 59 0H30v-248h39L202-35l-2-213h31V0h-41" id="Q"/>
            <path fill="#3a414a" d="M206 0h-36l-40-164L89 0H53L-1-190h32L70-26l43-164h34l41 164 42-164h31" id="R"/>
            <g id="p">
                <use transform="matrix(0.06172839506172839,0,0,0.06172839506172839,0,0)" xlink:href="#Q"/>
                <use transform="matrix(0.06172839506172839,0,0,0.06172839506172839,15.987654320987653,0)" xlink:href="#O"/>
                <use transform="matrix(0.06172839506172839,0,0,0.06172839506172839,28.333333333333332,0)" xlink:href="#R"/>
            </g>
            <path fill="#3a414a" d="M114-163C36-179 61-72 57 0H25l-1-190h30c1 12-1 29 2 39 6-27 23-49 58-41v29" id="S"/>
            <path fill="#3a414a" d="M24-231v-30h32v30H24zM24 0v-190h32V0H24" id="T"/>
            <g id="q">
                <use transform="matrix(0.06172839506172839,0,0,0.06172839506172839,0,0)" xlink:href="#R"/>
                <use transform="matrix(0.06172839506172839,0,0,0.06172839506172839,15.987654320987653,0)" xlink:href="#S"/>
                <use transform="matrix(0.06172839506172839,0,0,0.06172839506172839,23.333333333333332,0)" xlink:href="#T"/>
                <use transform="matrix(0.06172839506172839,0,0,0.06172839506172839,28.209876543209873,0)" xlink:href="#P"/>
                <use transform="matrix(0.06172839506172839,0,0,0.06172839506172839,34.382716049382715,0)" xlink:href="#O"/>
                <use transform="matrix(0.06172839506172839,0,0,0.06172839506172839,46.72839506172839,0)" xlink:href="#N"/>
            </g>
        </defs>
    </g>
</svg>